<?xml version="1.0" encoding="UTF-8"?><svg id="a" xmlns="http://www.w3.org/2000/svg" viewBox="0 0 860 300"><defs><style>.b{fill:#032120;}.c{fill:#699999;}.d{fill:#eaf7ec;}.e{fill:#fff;}.f{fill:#fffbe9;}.g{fill:#ffb399;}.h{fill:#96d1cf;}.i{fill:#65b1ae;}.j{fill:#2f5957;}.k{fill:#db5753;}.l{fill:#246bb8;}.m{fill:#43807d;}.n{fill:#81bcbc;}</style></defs><rect class="d" width="860" height="300"/><g><g><g><path class="b" d="M458.3261,41.3658c-.5692-.082-1.135-.1526-1.6985-.2153,0,0-3.551-6.813-12.5982-4.8528-8.5453,1.8515-8.1618,7.5983-8.1618,7.5983-2.7769-.874-6.5997-.793-11.1832,2.5797-9.4734,6.9704-9.1064,21.5811-1.2776,27.0659,.3514,15.0269,10.8267,26.9295,26.0963,29.1272,16.9283,2.4365,32.4789-9.3334,35.0632-26.2399,3.1822-20.8184-9.3116-32.6266-26.2401-35.063Z"/><path class="g" d="M456.5854,80.6247s-3.1918-2.5372-2.7448-7.185c.1309-1.36,.363-2.8655,.6312-4.2811,.4019-2.1218-1.1534-4.1098-3.3092-4.2396-5.3394-.3213-14.5137-1.2069-20.3626-3.6126-1.8887-.7769-4.0403,.2177-4.7145,2.1453-.9539,2.7269-2.1501,6.3265-2.5429,9.0052-3.6674,25.0029-11.1074,34.1872,14.6335,35.215l.0218,13.8428,10.0676,7.9674,22.8824-11.2355v-20.5425s-16.0574-.0363-14.5626-17.0794Z"/><path class="k" d="M447.562,109.9576c1.0437-1.2335-.0007-3.1041-1.5975-2.857-3.8112,.5896-7.7665,.5435-7.7665,.5435l-.0217,.0935,.021,13.2868,9.3647-11.0667Z"/><g><path class="g" d="M465.8209,84.7016c-.3857,3.5567-3.5816,6.1275-7.1384,5.7417-3.5569-.3856-6.1275-3.5816-5.7419-7.1384,.3857-3.5567,3.5818-6.1275,7.1385-5.7419,3.5567,.3857,6.1275,3.5818,5.7417,7.1385Z"/><path class="k" d="M462.7833,84.3722c-.2038,1.8792-1.8923,3.2372-3.7715,3.0336-1.879-.2038-3.2372-1.8923-3.0334-3.7715,.2037-1.879,1.8922-3.2372,3.7713-3.0334,1.8792,.2037,3.2372,1.8922,3.0336,3.7713Z"/></g><path class="b" d="M437.0778,69.487c-.7371,.5096-1.2326,1.4112-.9827,2.2214,.2875,.9318,1.4228,1.4088,2.4666,1.4378,1.0439,.0292,2.0738-.2666,3.1178-.3301,1.0106-.0615,2.0315,.0989,2.956,.4647,.4194,.1658,.823,.3744,1.268,.4707,.4448,.0963,.9556,.0619,1.3103-.2161,.4029-.3157,.5034-.8659,.4169-1.3437-.4264-2.3547-3.3396-3.6019-6.1617-3.7135-1.676-.0662-3.3198,.2681-4.3912,1.0088Z"/><path class="b" d="M428.0014,68.354c-.714-.6401-1.7371-1.1148-2.8876-1.4032-.904-.2265-1.8149,.3445-1.9765,1.2622l-.2902,1.6464c-.1414,.8016,.346,1.5801,1.1285,1.8044,.6368,.1826,1.2726,.3648,1.9285,.4293,1.1283,.1109,2.4162-.248,2.8529-1.2125,.38-.8386-.031-1.8772-.7557-2.5267Z"/><g><path class="k" d="M430.8695,88.9105c-.2269,0-.4497-.1086-.5868-.3101l-.2026-.2979c-.2202-.3237-.1364-.7646,.1873-.9848s.7646-.1364,.9848,.1875l.2026,.2977c.2202,.3237,.1364,.7646-.1873,.9848-.1221,.083-.2607,.1228-.398,.1228Z"/><path class="k" d="M426.8305,89.2346c-.189,0-.3775-.075-.5169-.2237-2.3744-2.5285-3.2208-4.1991-2.9215-5.7662,.3036-1.5893,1.7912-2.9011,5.1133-4.494,.2557-.7798,.9473-3.0386,.8716-4.4356-.0212-.3909,.2783-.7249,.6692-.7462,.3903-.0207,.7249,.2784,.7462,.6693,.1077,1.9846-.9961,5.1277-1.0432,5.2606-.0631,.1784-.1952,.3243-.3666,.4047-3.0104,1.4149-4.3853,2.4937-4.5981,3.607-.1977,1.0351,.5925,2.4323,2.5623,4.5301,.2681,.2853,.254,.7339-.0314,1.0018-.1368,.1285-.3113,.1921-.4849,.1921Z"/></g><path class="b" d="M424.5031,77.0251c-.0879,1.0049,.4528,1.8732,1.2076,1.9391,.7547,.0659,1.4377-.6955,1.5256-1.7003,.0877-1.005-.4529-1.8732-1.2076-1.9391-.7548-.0659-1.4378,.6953-1.5256,1.7003Z"/><path class="b" d="M439.1083,78.9061c-.0879,1.005,.4528,1.8732,1.2076,1.9391,.7547,.0659,1.4377-.6953,1.5256-1.7003,.0877-1.005-.4529-1.8732-1.2077-1.9391-.7547-.0659-1.4377,.6953-1.5254,1.7003Z"/><path class="m" d="M574.0575,194.8056c-6.9982-5.0146-12.0352-13.4567-24.6769-38.6515-8.1857-16.3139-27.0479-27.1359-47.3554-32.0831,.7497-7.0772-1.0803-15.6813-10.6212-17.4269,0,0-1.1875-14.15-12.6943-16.1623,0,0-3.164,4.0174-7.5617,7.2223,0,0-7.1773,24.4656-21.785,23.2698-9.7214-.7958-11.1649-13.3298-11.1649-13.3298l-6.4926-.4932s-8.8826,3.2575-13.0742,15.0377c-10.9295,1.031-25.5787,3.9381-35.1195,11.8615-12.8598,10.6796-16.7327,34.7135-16.7327,34.7135h-52.5176s-5.1347,8.5613-6.9749,20.9757c-1.4587,9.8403,.5478,21.7632-6.321,40.7281-3.148,8.6919-4.139,17.4201-3.3441,25.6083h294.8577c10.8559-15.1108,0-48.0704-18.4216-61.2701Z"/><path class="j" d="M448.7284,155.9587c-12.379-.0091-19.9102-6.1586-24.0526-11.3158-4.4746-5.5707-6.0142-11.0635-6.0776-11.2946-.1034-.3775,.1186-.767,.4958-.8706,.3762-.1034,.7675,.1181,.8713,.4954,.0149,.0542,1.5425,5.4799,5.8492,10.8235,5.7405,7.1226,13.4417,10.7376,22.8897,10.7444,22.8406,0,48.2626-24.1301,48.5169-24.374,.2821-.2709,.7312-.2618,1.0021,.021,.2709,.2825,.2617,.7312-.021,1.0021-1.0546,1.0117-26.0933,24.7687-49.4739,24.7687Z"/><path class="j" d="M482.0654,120.1643c-.2082,0-.4145-.0912-.5545-.2666-.2442-.306-.1943-.7519,.1116-.9962,6.6947-5.3447,7.8414-10.7259,7.8523-10.7795,.0768-.3829,.448-.6323,.8326-.5566,.3832,.076,.6331,.4468,.5581,.8303-.0465,.2389-1.2254,5.9189-8.3584,11.6138-.1305,.1042-.2867,.1548-.4417,.1548Z"/><path class="f" d="M423.8217,193.8228c-.12,0-.2418-.0306-.3533-.0949-.3391-.1954-.4557-.629-.26-.9682,2.1346-3.7032,.5745-12.2612-2.6343-24.869-3.3881-13.3115,12.2301-26.629,12.8967-27.1894,.2997-.252,.7466-.2132,.9986,.0863,.2519,.2994,.2132,.7466-.0861,.9986-.1565,.1316-15.6038,13.3069-12.4356,25.7548,3.382,13.2876,4.8735,21.7896,2.4886,25.9267-.131,.2277-.3697,.355-.6147,.355Z"/><path class="f" d="M462.8042,187.7913c-.4486-.0344-.739-.3765-.7072-.7667,2.5759-31.4842-9.5595-43.4292-9.6824-43.5462-.2832-.2695-.2952-.7179-.0261-1.0015,.2695-.2837,.7167-.2963,1.0007-.0279,.5222,.4934,12.7583,12.4548,10.1208,44.6913-.0305,.3705-.3406,.651-.7058,.651Z"/><rect class="h" x="337.8296" y="159.341" width="176.1982" height="126.6673" rx="29.3749" ry="29.3749"/><g><path class="e" d="M416.3868,278.0057h-50.5142c-8.0259,0-14.5554-6.5297-14.5554-14.5557s6.5295-14.5557,14.5554-14.5557h50.5142c8.0262,0,14.5557,6.5297,14.5557,14.5557s-6.5295,14.5557-14.5557,14.5557Zm-50.5142-25.8036c-6.2019,0-11.2476,5.0459-11.2476,11.2479s5.0457,11.2479,11.2476,11.2479h50.5142c6.2022-.0001,11.2479-5.0459,11.2479-11.2479s-5.0457-11.2479-11.2479-11.2479h-50.5142Z"/><circle class="e" cx="416.3869" cy="263.4499" r="12.9018"/></g><g><path class="n" d="M416.387,215.1615h-50.5141c-7.1257,0-12.9019,5.7762-12.9019,12.9018s5.7762,12.9018,12.9019,12.9018h50.5141c7.1255,0,12.9018-5.7764,12.9018-12.9018s-5.7762-12.9018-12.9018-12.9018Z"/><circle class="c" cx="365.8728" cy="228.0632" r="12.9018"/></g><path class="i" d="M385.2319,35.6361h-92.1945c-3.2572,0-5.8978,2.6406-5.8978,5.8979v50.1143c0,3.2572,2.6406,5.8978,5.8978,5.8978h65.1644l18.4244,13.731c2.2657,1.6885,5.4878,.0714,5.4878-2.7544v-10.9766h3.1179c3.2574,0,5.8979-2.6406,5.8979-5.8978V41.534c0-3.2574-2.6406-5.8979-5.8979-5.8979Z"/><path class="e" d="M327.7844,86.1558c-.1784,0-.3565-.0669-.494-.2005l-20.9347-20.3427c-.2808-.2728-.2872-.7216-.0142-1.0024,.273-.2807,.7217-.287,1.0022-.0144l20.4455,19.8674,43.1413-41.1019c.2833-.2698,.7319-.2593,1.0021,.0243,.2699,.2835,.259,.7322-.0243,1.0021l-43.635,41.5724c-.1369,.1303-.3129,.1956-.489,.1956Z"/><g><rect class="l" x="275.1897" y="131.7642" width="97.8825" height="71.9036" rx="11.2356" ry="11.2356"/><g><path class="e" d="M309.36,184.1336c-.1813,0-.3627-.0692-.5011-.2076l-16.2295-16.2297c-.2769-.2768-.2769-.7255,0-1.0024l16.8866-16.8867c.2769-.2768,.7255-.2768,1.0024,0s.2769,.7256,0,1.0024l-16.3854,16.3856,15.7283,15.7284c.2769,.2768,.2769,.7256,0,1.0024-.1384,.1384-.3198,.2076-.5011,.2076Z"/><path class="e" d="M339.3514,184.1336c-.1813,0-.3627-.0692-.5011-.2076-.2769-.2768-.2769-.7256,0-1.0024l15.7285-15.7284-16.3857-16.3856c-.2769-.2768-.2769-.7256,0-1.0024s.7255-.2768,1.0024,0l16.8868,16.8867c.1329,.1329,.2076,.3132,.2076,.5013,0,.1879-.0747,.3683-.2076,.5011l-16.2298,16.2297c-.1384,.1384-.3198,.2076-.5011,.2076Z"/><path class="e" d="M319.3799,184.1338c-.068,0-.1375-.0099-.2061-.0309-.3747-.1136-.5861-.5095-.4725-.8841l10.0505-33.1164c.1137-.3745,.5091-.5863,.8842-.4723,.3747,.1136,.5861,.5095,.4726,.8841l-10.0507,33.1164c-.093,.306-.374,.5032-.6781,.5032Z"/></g></g><path class="e" d="M485.0633,185.0787h-98.8442c-.9134,0-1.6538-.7404-1.6538-1.6538s.7404-1.654,1.6538-1.654h98.8442c.9134,0,1.6538,.7404,1.6538,1.654s-.7404,1.6538-1.6538,1.6538Z"/><path class="g" d="M535.6998,199.7035s-3.5243-12.1687-8.9526-16.9184c-5.4282-4.7497-3.8186-21.9021-19.7194-19.9027,0,0,6.9999,7.9153,6.9999,15.0398,0,0-4.6216-1.2587-27.8774-3.5549-13.2456-1.3079-18.0168,11.5704-1.715,13.3868,0,0-10.6603-.537-11.9829,5.8874-.7917,3.845,2.2617,7.5769,10.2977,8.7923-4.3418,.6264-8.6058,1.3417-8.9407,5.3437-.3993,4.7718,5.5414,7.3838,25.558,9.047-11.4596,7.0492-12.6659,8.7833-11.1581,11.7989,2.5952,5.1902,13.5707,1.9602,24.8113-.235l22.3214,22.7019,14.5581-41.8736-14.2003-9.5134Z"/><path class="h" d="M301.5738,28.639c-.9135,0-1.654-.7404-1.654-1.654V15.6456c0-.9134,.7404-1.6538,1.654-1.6538s1.654,.7404,1.654,1.6538v11.3394c0,.9135-.7404,1.654-1.654,1.654Z"/><path class="h" d="M278.4217,45.2767c-.1396,0-.2812-.0177-.4225-.0549l-13.5698-3.5749c-.8832-.2327-1.4106-1.1375-1.1781-2.0207,.2329-.8835,1.1385-1.4105,2.0208-1.178l13.5698,3.5749c.8832,.2326,1.4107,1.1373,1.1781,2.0206-.1957,.7421-.8655,1.233-1.5984,1.233Z"/><path class="b" d="M435.866,44.604c-.3287,0-.6232-.2294-.6927-.564-.0284-.1371-.6732-3.3925,1.3792-6.4009,1.5794-2.3152,4.2834-3.8132,8.0364-4.4527,10.7387-1.829,12.7159,7.7327,12.7345,7.8293,.0743,.3843-.1769,.7562-.5611,.8305-.3852,.0749-.7564-.177-.8307-.5612-.0669-.3381-1.7529-8.2947-11.1046-6.7012-3.3496,.5707-5.7356,1.8617-7.0918,3.8371-1.718,2.5018-1.1791,5.3049-1.1734,5.333,.0771,.3829-.17,.7572-.5528,.8354-.0481,.0098-.0957,.0145-.1431,.0145Z"/><path class="k" d="M510.8277,190.5054c-.0555-.0021-26.447-2.0446-26.447-2.0446-.3903-.0302-.6822-.3711-.652-.7614,.0302-.3901,.3673-.6818,.7614-.652l26.3915,2.0425c.3905,.0302,.6823,.3711,.6521,.7614-.0289,.3716-.3395,.6541-.7061,.6541Z"/><path class="k" d="M508.4148,204.3767c-.0346-.0008-25.6989-1.2347-25.6989-1.2347-.3909-.0187-.6927-.3509-.6738-.742,.0187-.3909,.3437-.6913,.7421-.6739l25.6642,1.2337c.3909,.0189,.6927,.3509,.6738,.742-.0183,.3796-.3315,.6749-.7075,.6749Z"/><path class="k" d="M508.4144,217.5335h-9.0469c-.3916,0-.7089-.3174-.7089-.7087s.3173-.7089,.7089-.7089h9.0469c.3916,0,.7089,.3174,.7089,.7089s-.3173,.7087-.7089,.7087Z"/><path class="k" d="M518.9698,179.9507c-.0605,0-.122-.0078-.1832-.0242l-4.9416-1.3194c-.3785-.101-.6032-.4895-.5021-.8677,.101-.3782,.4898-.6032,.8676-.502l4.9416,1.3194c.3785,.101,.6031,.4895,.5021,.8677-.0847,.317-.3713,.5261-.6844,.5261Z"/><path class="g" d="M337.0854,118.6639c-3.9126-.3596-6.6722,2.31-6.2419,1.7562-1.2304-1.7657-3.7832-4.3184-8.2334-4.2442-3.4293,.0573-5.7885,1.2821-7.2845,2.4799-1.9053-1.373-2.9426-2.9644-6.6255-3.3229-3.8109-.3709-7.5552,1.3856-8.4915,3.008,0,0-1.6864-3.008-5.5313-1.5527-2.7551,1.0428-5.7676,4.1857-10.4041,26.9814-1.2974,6.3787,8.7078,9.1978,13.9099-2.5257l.5654-1.8848s-2.9314,16.8576,5.9415,17.3628c5.8654,.334,7.8036-9.3359,8.4442-15.9307-.0411,6.4225,.9015,15.7619,6.7121,15.9391,4.2395,.1294,6.615-5.4602,7.9407-11.3318,.1653,4.1582,1.3275,7.8383,4.775,8.4359,8.4816,1.4701,12.4398-21.8261,12.4398-21.8261l5.2002-.2443s-4.0435-12.2662-13.1165-13.1001Z"/><path class="k" d="M327.7879,146.1074c-.0289,0-.0577-.0017-.087-.0053-.3885-.0475-.665-.4011-.6174-.7896l3.0565-24.9786c.0475-.3887,.4037-.6642,.7896-.6175,.3885,.0476,.665,.4011,.6175,.7898l-3.0566,24.9784c-.0439,.3593-.3495,.6228-.7026,.6228Z"/><path class="k" d="M298.7491,140.068c-.4402-.0288-.7348-.3674-.7079-.758l1.4601-21.0182c.0272-.3903,.3582-.6869,.7564-.658,.3905,.0271,.6851,.3657,.6582,.7562l-1.4602,21.0183c-.026,.3739-.3372,.6597-.7065,.6597Z"/><path class="k" d="M313.1383,142.5574c-.4574-.04-.7435-.3857-.7066-.7755l2.1883-23.1927c.0369-.3898,.3799-.6759,.7723-.6392,.3898,.0369,.6759,.3827,.6389,.7723l-2.1882,23.1927c-.0346,.3671-.3434,.6424-.7047,.6424Z"/><path class="k" d="M345.0026,132.7172c-.0397,0-.0799-.0034-.1203-.0102-.3857-.0658-.6453-.4321-.5794-.818l.7917-4.6367c.0658-.386,.4313-.6449,.818-.5794,.3857,.0658,.6453,.4321,.5794,.818l-.7917,4.6367c-.0588,.3455-.3588,.5896-.6977,.5896Z"/></g><path class="h" d="M570.5803,140.8099c-.2939,0-.5914-.0782-.8606-.2427-.7796-.4763-1.0254-1.4941-.5492-2.2737,4.9829-8.157,5.9253-17.7712,2.4596-25.091-3.5829-7.5667-12.2337-11.9463-19.5316-10.1753,.1477,3.5524-1.5021,9.7367-4.8645,11.791-1.432,.8747-3.028,.8989-4.4936,.0683-1.6217-.919-2.4338-2.4485-2.2868-4.3065,.2884-3.6498,4.3542-7.9804,8.0365-9.7809-1.0686-5.0702-4.7285-9.6012-9.5019-11.496-2.433-.9656-5.4773-1.272-8.4172-.7981,.113,1.2842,.0805,2.5844-.1119,3.8754-.4464,2.9914-1.684,5.2929-3.5795,6.6555-1.6338,1.1745-4.0034,1.4807-5.8968,.7618-1.5831-.6012-2.6547-1.8174-3.0169-3.4247-.3602-1.5989,.1362-3.3596,1.4349-5.0918,1.8799-2.5073,4.4802-4.2167,7.3365-5.2171-1.2196-4.1154-4.2465-7.7577-8.1975-9.3743-5.7676-2.36-13.1583-.2604-16.8241,4.7806-.5369,.7386-1.5715,.9022-2.3104,.3649-.7385-.5372-.9021-1.5715-.3648-2.3103,4.5966-6.3214,13.5174-8.8565,20.7519-5.8967,4.9872,2.0405,8.7156,6.5062,10.1726,11.6159,3.5594-.5868,7.2378-.2086,10.2433,.9845,5.66,2.2466,10.0283,7.5423,11.4307,13.5135,8.6923-1.9042,18.8018,3.2191,22.9808,12.0449,3.9373,8.3159,2.9312,19.1334-2.6265,28.2309-.3117,.5103-.8557,.792-1.413,.792Zm-21.8131-36.363c-2.4914,1.6499-4.8696,4.5403-5.0161,6.3937-.045,.5697,.1229,.8863,.6202,1.1679,.422,.2392,.7308,.2357,1.1383-.0133,1.5199-.9285,3.008-4.5178,3.2576-7.5484Zm-21.4584-15.0588c-2.0653,.8118-3.9193,2.0871-5.2614,3.8772-.3994,.5327-1.0415,1.5503-.8544,2.3804,.0423,.1875,.1707,.7583,.9641,1.0595,.857,.3254,2.0574,.1728,2.7919-.3553,1.4568-1.0474,2.0214-3.0021,2.2384-4.4577,.1236-.8293,.1619-1.6681,.1215-2.5042Z"/><path class="j" d="M532.6565,256.7846c-.0814,0-.1642-.014-.2449-.0437-.3673-.1352-.5556-.5426-.4204-.91l18.094-49.1699c.1104-.3001,.4086-.4894,.7265-.4613,.2284,.0197,23.0225,2.1267,37.5069,15.2111,.2906,.2624,.3134,.7105,.051,1.0011-.2628,.2903-.7108,.3132-1.0011,.0507-12.902-11.6547-32.6491-14.3923-36.1434-14.7938l-17.9035,48.6517c-.1055,.2867-.3768,.4641-.6651,.4641Z"/><path class="j" d="M556.9113,199.9832c-.1795,0-.3593-.0679-.4972-.2038-.279-.2747-.2825-.7234-.0078-1.0024,4.0879-4.1516,9.6343-4.0717,9.8703-4.0663,.3915,.0091,.7013,.3338,.6921,.7251-.0092,.3912-.3378,.7003-.7244,.6922-.0738-.0014-5.1878-.0529-8.828,3.6436-.1386,.1408-.3219,.2115-.505,.2115Z"/><path class="k" d="M535.6998,199.7035v14.6214c0,1.7688,2.2016,2.5815,3.351,1.2371l7.3996-8.6563-10.7506-7.2022Z"/></g><path class="f" d="M427.6279,97.2287c2.8612,.4184,5.2269-.8326,6.9248-2.3463,.4404-.3927,.4025-1.4086-.0539-1.5041-1.8901-.3951-3.8356-.6988-4.8485-.8469-.7761-.1136-1.2695-.1762-1.2695-.1762-.0782-.0115-.5689-.0928-1.3451-.2063-1.0129-.1481-1.4703-.1996-3.3943-.3624-.4647-.0394-.8568,.7337-.6404,1.2998,.724,1.8938,2.1343,3.6782,4.6269,4.1424Z"/></g></svg>