<svg xmlns="http://www.w3.org/2000/svg" xmlns:xlink="http://www.w3.org/1999/xlink" viewBox="0 0 800 400"><defs><style>.a,.k{fill:#fff;}.a,.c,.d,.e{fill-rule:evenodd;}.b{fill:#e8f4f9;}.d,.i{fill:#00a797;}.e{fill:#fcce4b;}.f{mask:url(#a);}.g{mask:url(#b);}.h,.l{fill:none;}.h{stroke:#000;stroke-linecap:square;stroke-width:2px;}.j,.k{isolation:isolate;}.k{font-size:25px;font-family:PingFangSC-Medium-GBpc-EUC-H, PingFang SC;}.l{stroke:#fff;stroke-width:1.5px;}</style><mask id="a" x="388.81" y="49.5" width="10.25" height="10.25" maskUnits="userSpaceOnUse"><g transform="translate(0 0)"><polygon class="a" points="388.81 49.5 399.06 49.5 399.06 59.75 388.81 59.75 388.81 49.5"/></g></mask><mask id="b" x="388.81" y="49.5" width="10.25" height="10.25" maskUnits="userSpaceOnUse"><g transform="translate(0 0)"><polygon class="a" points="388.81 49.5 399.06 49.5 399.06 59.75 388.81 59.75 388.81 49.5"/></g></mask></defs><title>5</title><rect class="b" width="800" height="400"/><path class="c" d="M360.43,62.12a2.42,2.42,0,1,0,2.42,2.42,2.42,2.42,0,0,0-2.42-2.42m0,6.7a4.29,4.29,0,1,1,4.28-4.28,4.28,4.28,0,0,1-4.28,4.28" transform="translate(0 0)"/><path class="d" d="M272.56,64.42A2.42,2.42,0,1,0,275,66.84a2.43,2.43,0,0,0-2.42-2.42m0,6.7a4.28,4.28,0,1,1,4.29-4.28,4.28,4.28,0,0,1-4.29,4.28" transform="translate(0 0)"/><path class="c" d="M424.89,59.84a2.42,2.42,0,1,0,2.42,2.42,2.42,2.42,0,0,0-2.42-2.42m0,6.7a4.28,4.28,0,1,1,4.28-4.28,4.28,4.28,0,0,1-4.28,4.28" transform="translate(0 0)"/><polygon class="c" points="399.89 96.92 390.95 87.99 392.27 86.67 401.2 95.61 399.89 96.92"/><polygon class="c" points="392.27 96.92 390.95 95.61 399.89 86.67 401.2 87.99 392.27 96.92"/><polygon class="c" points="517.68 69.66 508.75 60.73 510.06 59.41 519 68.35 517.68 69.66"/><polygon class="c" points="510.06 69.66 508.75 68.35 517.68 59.41 519 60.73 510.06 69.66"/><polygon class="e" points="398.18 59.31 389.25 50.38 389.69 49.94 398.62 58.88 398.18 59.31"/><polygon class="e" points="389.69 59.31 389.25 58.88 398.18 49.94 398.62 50.38 389.69 59.31"/><g class="f"><polygon class="d" points="397.74 59.75 388.81 50.82 390.12 49.5 399.06 58.44 397.74 59.75"/></g><g class="g"><polygon class="d" points="390.12 59.75 388.81 58.44 397.74 49.5 399.06 50.82 390.12 59.75"/></g><path class="d" d="M282.26,289.07l40.15-4.53s3.86-74.55.72-104.06-14.51-36.76-19.35-42.08c-16,63.85-23.94,133-21.52,150.67" transform="translate(0 0)"/><path class="d" d="M358.44,216.84s-22.73,28-44.5,45.71C291,231.11,290,229.9,290,229.9s34.1-25.39,50.78-33.13c17.66,19.59,15.48,17.89,15.48,17.89Z" transform="translate(0 0)"/><path class="a" d="M330,217.55a28.63,28.63,0,0,0,18.5,8.09A66.62,66.62,0,0,0,364.34,224a6.73,6.73,0,0,0,5.18-7.29L368,202.87l-.05,0a31.47,31.47,0,0,0-11.82-5.25l-.81-.18a38.79,38.79,0,0,0-16.58.07l-2.73.61-4.39,3.23Z" transform="translate(0 0)"/><polygon class="a" points="366.11 207.67 367.68 223.4 360.2 232.22 347.25 236.24 347.14 231.77 357.19 227.31 359.42 219.72 366.11 207.67"/><polygon class="c" points="346.34 237.51 346.18 231.17 356.4 226.62 358.51 219.46 360.32 219.99 357.97 228 348.1 232.38 348.17 234.97 359.66 231.4 366.69 223.1 365.17 207.76 367.05 207.58 368.65 223.71 360.74 233.04 346.34 237.51"/><path class="a" d="M361.65,206.78l1.78,17.41-5.8,9.15-6.3,3.87a5.55,5.55,0,0,1-7.95-2.37l0-.05,7.81-5.58,3.13-8.48-1.07-10.88Z" transform="translate(0 0)"/><path class="c" d="M348.41,239a6.26,6.26,0,0,1-1.86-.28,6.51,6.51,0,0,1-4-3.46l-.36-.77,8.21-5.87,2.95-8-1-10.66,1.89-.19,1.08,11.1-3.3,9-7.36,5.25a4.62,4.62,0,0,0,6.25,1.35l6.11-3.76,5.51-8.69-1.75-17.09,1.88-.19,1.82,17.73-6.1,9.62-6.48,4a6.51,6.51,0,0,1-3.42,1" transform="translate(0 0)"/><path class="a" d="M335,199.63l-8.37,5.19s-13,13.91-16,16.24c-.45,2.79,2.12,6.47,9.15,3.35S334.65,213,334.65,213Z" transform="translate(0 0)"/><path class="a" d="M340.67,206.55l7.2,18.53,2.33,20.27a2.64,2.64,0,0,0,2.8,2.32h.05a2.64,2.64,0,0,0,2.45-2.52l.91-21.08-1.68-16.57Z" transform="translate(0 0)"/><path class="c" d="M352.85,248.62a3.59,3.59,0,0,1-3.59-3.17l-2.32-20.14-7.15-18.41,1.76-.69,7.24,18.64,2.35,20.39a1.72,1.72,0,0,0,3.42-.13l.9-21-1.67-16.5,1.88-.19,1.68,16.64v.06l-.9,21.08a3.58,3.58,0,0,1-3.34,3.42h-.26" transform="translate(0 0)"/><path class="c" d="M315,226.56a5.62,5.62,0,0,1-3.55-1.11,4.75,4.75,0,0,1-1.76-4.54l.06-.37.3-.23c3-2.25,16.25-16.81,16.39-17l.18-.16,9-5.87,2.11-.5a42.62,42.62,0,0,1,18.57-.17l2.4.52a20.49,20.49,0,0,1,7.79,3.46l2.38,1.72,1.56,14.22a7.65,7.65,0,0,1-2.26,6.31l-1.32-1.35a5.76,5.76,0,0,0,1.7-4.75l-1.46-13.39-1.7-1.23a19,19,0,0,0-7.09-3.15l-2.4-.51a40.68,40.68,0,0,0-17.74.16l-1.79.42-8.67,5.63C326.54,206,315,218.65,311.5,221.55a2.86,2.86,0,0,0,1.08,2.41c1.39,1.06,3.8.91,6.79-.42,3.32-1.47,9.43-6.51,11.23-8.47l1.4,1.27c-1.94,2.12-8.28,7.34-11.87,8.93a12.78,12.78,0,0,1-5.15,1.29" transform="translate(0 0)"/><path class="c" d="M348.4,226.58c-5.37-.45-9.66-1.86-12.75-4.18l1.14-1.51c2.79,2.11,6.76,3.39,11.77,3.8Z" transform="translate(0 0)"/><path class="d" d="M214.55,149.16S237,123,283.83,127.4c23.58,9.43,27.21,19.95,27.21,19.95s-9,155.87-5.32,200.49a895.76,895.76,0,0,1-121.52-1.45S184.08,188,214.55,149.16" transform="translate(0 0)"/><path class="c" d="M304.78,347.92c-2.21-27.18.48-106.49,3.46-166.14l1.89.1c-3,59.59-5.67,138.79-3.47,165.89Z" transform="translate(0 0)"/><path class="d" d="M245.51,130.66s9.18-13.06,31.19-9.67,32.41,23.21,32.41,23.21-5.08,15.72-17.66,16.45c-10.4-.73-24.18-25.64-30.95-29.51s-15-.48-15-.48" transform="translate(0 0)"/><path class="c" d="M291.45,161.6h-.06c-6.86-.48-14.61-10.21-21.44-18.81-3.86-4.85-7.5-9.43-9.92-10.82-6.28-3.58-14.09-.46-14.17-.43l-.71-1.74c.35-.15,8.73-3.52,15.82.53,2.73,1.56,6.31,6.07,10.46,11.29,6.24,7.85,14,17.61,20,18.09,11.75-.73,16.7-15.64,16.75-15.79l1.79.58c-.21.67-5.42,16.35-18.49,17.1Z" transform="translate(0 0)"/><polygon class="c" points="286.64 214.41 288.53 214.41 288.53 152.31 286.64 152.31 286.64 214.41"/><polygon class="c" points="293.17 203.89 295.06 203.89 295.06 153.76 293.17 153.76 293.17 203.89"/><path class="d" d="M322.41,284.54a20.32,20.32,0,1,1-20.32-20.32,20.32,20.32,0,0,1,20.32,20.32" transform="translate(0 0)"/><path class="d" d="M223.26,274.5a21.41,21.41,0,1,1-21.4-21.4,21.41,21.41,0,0,1,21.4,21.4" transform="translate(0 0)"/><path class="d" d="M214.55,149.16s-30.74,36.37-34,126.34c13.87,1.63,42.25,3.81,42.25,3.81s8.8-59,23.31-102.21c12.33-37.37-22.13-41-31.56-27.94" transform="translate(0 0)"/><path class="c" d="M223.74,279.45l-1.87-.28c.09-.59,9-59.62,23.34-102.37l1.8.6c-14.32,42.6-23.18,101.46-23.27,102" transform="translate(0 0)"/><path class="a" d="M303.15,295.73c-3.78-.86-7.71-2-11.73-3.23-.82,9.36-1.79,18.71-2.56,28.08,68.53,9.16,83.57-22.32,83.57-22.32s-28.65-2.9-69.28-2.53" transform="translate(0 0)"/><path class="c" d="M289.87,319.76a178.46,178.46,0,0,0,22.6,1.54c41,0,55.26-17.43,58.39-22.23-5.93-.54-29.25-2.43-60.67-2.43l-7,0h-.11l-.11,0c-3.31-.75-6.9-1.73-10.68-2.9-.34,3.79-.7,7.61-1.05,11.31-.46,4.82-.93,9.79-1.34,14.7m22.6,3.43h0a179.56,179.56,0,0,1-23.74-1.68l-.89-.12.07-.89c.43-5.21.93-10.5,1.42-15.61.39-4.09.79-8.32,1.15-12.47l.1-1.18,1.12.36c4.1,1.3,8,2.37,11.55,3.18l6.94,0c36.48,0,62.08,2.55,62.34,2.57l1.33.14-.57,1.21c-.13.26-3.08,6.3-12.12,12.37-8.26,5.55-23.41,12.15-48.7,12.15" transform="translate(0 0)"/><path class="c" d="M308.69,261.64l.34,41.82a9,9,0,0,0,9,8.93l61.63.08a9,9,0,0,0,9-9h0v-41.9a9,9,0,0,0-9-9h-62a9,9,0,0,0-9,9Z" transform="translate(0 0)"/><path class="a" d="M299.79,306.37c1.82-5.81,7.44-6.4,18.26-3.27,9.19,2.66,11.43,6.56,11.43,6.56s14.33,3.84,19.16,4.2c3.39,2.66.62,5-11,5.14-8.65.12-19.22.31-28.29-1.27-5.3-.91-11.37-5.56-9.56-11.36" transform="translate(0 0)"/><path class="d" d="M294.72,293.55c-37.5-11.13-84.88-39.18-84.88-39.18L185,287.83s31.79,29.91,105.74,34.38c1.1-9.15,2.89-19.52,4-28.66" transform="translate(0 0)"/><path class="c" d="M294.45,294.45c-37.18-11-84.62-39-85.1-39.27l1-1.62c.47.28,47.71,28.12,84.67,39.08Z" transform="translate(0 0)"/><path class="c" d="M329.66,320a124,124,0,0,1-20.47-1.35l.32-1.87c8.82,1.53,19.25,1.38,27.62,1.27h.5c10.61-.15,11.37-2.06,11.4-2.14s-.15-.61-.76-1.14c-5.12-.48-18.46-4-19-4.21l-.38-.1-.19-.34s-2.26-3.63-10.87-6.12c-5.52-1.6-9.36-2.14-12.09-1.69l-.3-1.87c3-.49,7.12.07,12.92,1.74,7.95,2.31,10.94,5.57,11.74,6.65,2.18.58,14.37,3.76,18.65,4.08l.29,0,.23.18c1.79,1.41,1.85,2.63,1.59,3.4s-1.1,3.26-13.17,3.43h-.49c-2.36,0-4.89.06-7.5.06" transform="translate(0 0)"/><path class="c" d="M289.91,107.16s-3.83,10.73-1,12.26,6.38-3.83,6.38-3.83Z" transform="translate(0 0)"/><path class="c" d="M309.29,125.21a21.79,21.79,0,0,1-5.11-2.37l1-1.6a19.54,19.54,0,0,0,4.66,2.16Z" transform="translate(0 0)"/><path class="a" d="M304.22,92.08s-10.36,10.17-11.13,21l-13.66,15.76s2.56,10.73,7.41,16.86,8.94.51,8.94.51l9.43-15a7.67,7.67,0,0,0,3.35.17c8.94-1.53,16.86-19.67,19.93-29.38a42,42,0,0,0-24.27-10" transform="translate(0 0)"/><path class="c" d="M291.55,149.55c-1.92,0-3.76-1.08-5.45-3.22-4.93-6.22-7.48-16.79-7.59-17.23l-.11-.48,14.5-16.5,1.42,1.25-13.85,15.76c.55,2.11,3,10.85,7.11,16,1.34,1.68,2.71,2.53,4,2.5a5.06,5.06,0,0,0,3.41-1.94l9.21-14.65,1.6,1-9.27,14.74a6.91,6.91,0,0,1-4.9,2.74h-.1" transform="translate(0 0)"/><path class="c" d="M307.24,132.49c-8.74,0-14.38-13.38-14.63-14l1.75-.72c.06.14,5.95,14.1,14,12.71,8.46-1.45,16.25-19.43,19.19-28.74l1.8.57c-3.29,10.4-11.33,28.43-20.67,30a9.33,9.33,0,0,1-1.48.12" transform="translate(0 0)"/><path class="c" d="M307,97.45s-4.35,5.88-11.25,6.39l-4.59-.51s5.36-15.85,8.94-17.89c8.17,0,26.06-1.28,28.36,4.85,5.62-1.53,11,1.28,11.49,5.88a4.73,4.73,0,0,1-3.83,5.37s-7.66,7.66-20.95,0c-4.09,2.81-8.17-4.09-8.17-4.09" transform="translate(0 0)"/><path class="c" d="M320.82,111.25s15.33-.77,15.59-10.73c-10.73-4.86-17.63-3.84-17.63-3.84s-5.88,13.8,2,14.57" transform="translate(0 0)"/><path class="a" d="M315.84,111s-.51,10.92-2.43,11a3.45,3.45,0,0,1-2-.51Z" transform="translate(0 0)"/><path class="c" d="M313.25,122.93a4.25,4.25,0,0,1-2.44-.7l1.12-1.52a2.67,2.67,0,0,0,1.31.33c.68-.79,1.43-5.31,1.66-10.09l1.88.09c-.54,11.78-2.64,11.86-3.33,11.88h-.2" transform="translate(0 0)"/><path class="a" d="M298.85,104.86s-3.32-7.41-8.43-3.07.76,10.74,3.83,11Z" transform="translate(0 0)"/><path class="c" d="M294.17,113.72c-2.17-.18-5.36-2.76-6.38-5.93a6,6,0,0,1,2-6.72,5.4,5.4,0,0,1,4.8-1.47c3.21.72,5,4.7,5.1,4.87l-1.72.78.86-.39-.86.39s-1.52-3.3-3.8-3.81a3.59,3.59,0,0,0-3.16,1.07,4.11,4.11,0,0,0-1.44,4.7c.81,2.52,3.39,4.52,4.74,4.63Z" transform="translate(0 0)"/><path class="c" d="M307.45,112a22.1,22.1,0,0,1-1.83-1.94c-.35-.4-.72-.83-1.19-1.32l1.25-1.41a14.13,14.13,0,0,0,2.15,1c2.24.88,3.63,1.47,4.13,2.32l-1.63,1v0a5.64,5.64,0,0,0-1.64-.91Z" transform="translate(0 0)"/><path class="c" d="M317.58,117.42a6.3,6.3,0,0,0-2.3-2.56l-.41-.31,1.16-1.5a14.13,14.13,0,0,0,2.15,1c2.23.88,3.63,1.47,4.13,2.32l-1.63,1v0a4.77,4.77,0,0,0-1.47-.83,1.42,1.42,0,0,1,.08.18Z" transform="translate(0 0)"/><path class="c" d="M308.16,125.61a5,5,0,0,1-4.1-2.15,9.05,9.05,0,0,1-1.19-3.32l1.86-.38a7.25,7.25,0,0,0,.89,2.63,3.12,3.12,0,0,0,2.84,1.31l.2,1.88a4.19,4.19,0,0,1-.5,0" transform="translate(0 0)"/><path class="c" d="M452.67,313.32c.47,16,1.9,35.26,1.9,35.26s47.18,1.67,117.94-.95c-5-72.91-6.91-166.19-38-206.57-19.3-8.94-39.19-9.41-65.05-.72s-33.23,19.3-35,22.52c15,52.89,22.51,70.4,18.23,150.46" transform="translate(0 0)"/><path class="c" d="M439.21,157s-21.81,9.65-26.1,59.33c-4.28,30.38,2,44.08,2,44.08l31.45,1.07,4.16-50a83.54,83.54,0,0,0-8.18-43.63Z" transform="translate(0 0)"/><path class="a" d="M462.32,111.87s1.66-4.64,5.47-3.21,3,10.84-2.62,10.12Z" transform="translate(0 0)"/><path class="c" d="M465.77,119.75a4.31,4.31,0,0,1-.71,0l.23-1.84c2.58.32,3.46-2,3.71-3.06.52-2.08,0-4.69-1.53-5.27a2.57,2.57,0,0,0-2.09,0,5.34,5.34,0,0,0-2.19,2.65l-1.75-.63a7.06,7.06,0,0,1,3.16-3.71,4.43,4.43,0,0,1,3.52-.07c2.6,1,3.41,4.56,2.69,7.46s-2.6,4.51-5,4.51" transform="translate(0 0)"/><path class="c" d="M435.39,99s-6.67,4-4.53,9.76a15.8,15.8,0,0,0,6.91,8.11l2.74,5.36,5-8Z" transform="translate(0 0)"/><path class="c" d="M470.18,129.62s3.45-4.17,1.31-8.58c2.86-.59,2.5-6.43,1.43-9.17a26.66,26.66,0,0,0-3.81-6l-13.35,6.19Z" transform="translate(0 0)"/><path class="a" d="M452,130.81,459.22,150s3.1,3,10.24-.47a13.57,13.57,0,0,0,7.86-9.89L467.2,119.85Z" transform="translate(0 0)"/><path class="c" d="M460,149.43a5.55,5.55,0,0,0,3.18.82,13.88,13.88,0,0,0,5.88-1.57,12.83,12.83,0,0,0,7.3-8.9l-9.5-18.54-13.79,9.91Zm3.18,2.69h0a6.7,6.7,0,0,1-4.61-1.46l-.15-.14-.07-.2-7.52-19.85,16.7-12,10.75,21,0,.28c0,.29-.86,7-8.38,10.62a15.63,15.63,0,0,1-6.69,1.77Z" transform="translate(0 0)"/><path class="a" d="M465.77,116.4s1.43,15.25-10.72,18.58-13.46-7.74-16-14.53-3.93-13.94-3.81-16.08-1.19-12.75,14.18-12,16.08,10.73,16.32,24.07" transform="translate(0 0)"/><path class="c" d="M448,93.23c-11.77,0-11.78,7.34-11.79,10.48,0,.28,0,.53,0,.71-.11,2,1.3,9,3.76,15.71.36,1,.69,2,1,3.14,1.77,5.6,3.59,11.39,9.95,11.39a14.83,14.83,0,0,0,3.85-.57c11.25-3.09,10.1-17,10-17.61v-.06c-.25-13.92-1.13-22.49-15.43-23.15-.49,0-1,0-1.41,0m2.95,43.3c-7.72,0-9.94-7.05-11.73-12.7-.34-1.09-.66-2.12-1-3.06-2.45-6.65-4-14-3.87-16.45,0-.16,0-.37,0-.62,0-3,0-12.33,13.65-12.33.48,0,1,0,1.49,0,16.76.77,17,12.51,17.21,24.94.07.91,1,16.12-11.41,19.53a16.44,16.44,0,0,1-4.34.65" transform="translate(0 0)"/><path class="c" d="M432.18,101.87s-5.73,6.6-.48,8.57c8.22,3.1,12.75-5.6,12.75-5.6s.69,3.82,6.9,3.34a6.75,6.75,0,0,0,6-4.05s2.74,7.86,9.53,8.81c3.1.72,3.46.24,3.46.24s1.31-14.17.23-16.2-2.62-5.48-7.5-4.29c1.31-4.64-6.31-10.48-10.36-5.48-1.67-1.78-4.77-3.1-10.25-.12-5.13,2.79-4.17,5.36-4.17,5.36a5.54,5.54,0,0,0-6.91,2.27,5.29,5.29,0,0,0,.84,7.15" transform="translate(0 0)"/><path class="c" d="M450.52,129.13a1.53,1.53,0,0,1-.9-.28l1.06-1.53a.34.34,0,0,0-.16,0,1,1,0,0,0,.3-.11,7.34,7.34,0,0,0,2.95-2.87l1.63.91a9.3,9.3,0,0,1-3.72,3.61,2.58,2.58,0,0,1-1.16.32" transform="translate(0 0)"/><path class="a" d="M458.5,115.8a5,5,0,1,1-5-5,5,5,0,0,1,5,5" transform="translate(0 0)"/><path class="c" d="M453.5,111.73a4.08,4.08,0,1,0,4.07,4.07,4.07,4.07,0,0,0-4.07-4.07m0,10a5.94,5.94,0,1,1,5.93-5.94,5.94,5.94,0,0,1-5.93,5.94" transform="translate(0 0)"/><path class="a" d="M445.87,121.16a5,5,0,1,1-5-5,5,5,0,0,1,5,5" transform="translate(0 0)"/><path class="c" d="M440.87,117.09a4.08,4.08,0,1,0,4.07,4.07,4.08,4.08,0,0,0-4.07-4.07m0,10a5.94,5.94,0,1,1,5.94-5.94,5.94,5.94,0,0,1-5.94,5.94" transform="translate(0 0)"/><path class="c" d="M445.77,119.57l-1.14-1.48a7.7,7.7,0,0,1,4-1.54l.14,1.86a5.69,5.69,0,0,0-3,1.16" transform="translate(0 0)"/><path class="c" d="M307.65,106.06a4.07,4.07,0,1,1-4.07,4.07,4.08,4.08,0,0,1,4.07-4.07m0,10a5.94,5.94,0,1,0-5.94-5.94,5.95,5.95,0,0,0,5.94,5.94" transform="translate(0 0)"/><path class="c" d="M320.28,111.42a4.07,4.07,0,1,1-4.08,4.07,4.08,4.08,0,0,1,4.08-4.07m0,10a5.94,5.94,0,1,0-5.94-5.94,5.95,5.95,0,0,0,5.94,5.94" transform="translate(0 0)"/><path class="c" d="M315.38,113.9l1.13-1.48a7.66,7.66,0,0,0-4-1.54l-.14,1.86a5.72,5.72,0,0,1,3,1.16" transform="translate(0 0)"/><path class="c" d="M446.89,126.92h0a1.85,1.85,0,0,1-1.48-.66,2.14,2.14,0,0,1-.37-1.45c0-.83,0-2.35-.07-3.94a62.44,62.44,0,0,1,0-6.48l1.85.21a58.33,58.33,0,0,0,0,6.21c.05,1.63.09,3.17.06,4.07v.18h0a1,1,0,0,0,.66-.28l1.34,1.29a2.79,2.79,0,0,1-2,.85" transform="translate(0 0)"/><path class="c" d="M517.47,172s30.5,73.39,38.84,102.21c26-4.4,39.67-9.29,39.67-9.29s-19.54-104.83-64.81-125.32c-25.73-9-13.7,32.4-13.7,32.4" transform="translate(0 0)"/><path class="a" d="M555.41,274.5c-5.78-20-22.34-61.7-31.7-84.78l1.73-.69c9.37,23.1,25.95,64.87,31.76,85Z" transform="translate(0 0)"/><path class="a" d="M489.12,301.35,423.58,315l-1.8-3.43c-1.16-2.23-3.08-1.81-4.18-1.52h0a2.26,2.26,0,0,0-1.63,2.72l3,10.59s8.91.47,41.61-.42,39.85-5.72,39.85-5.72Z" transform="translate(0 0)"/><path class="c" d="M419.64,322.48c1.1,0,3.69.1,8.43.1,8.31,0,19.22-.18,32.43-.54,26.21-.72,35.82-4,38.5-5.13l-10.29-14.53-65.62,13.7L421,312a2,2,0,0,0-1.87-1.25,4.88,4.88,0,0,0-1.25.2,1.34,1.34,0,0,0-1,1.61Zm8.43,2h0c-6.72,0-9.1-.12-9.2-.12l-.66,0L415,313.05a3.22,3.22,0,0,1,2.3-3.87,6.68,6.68,0,0,1,1.76-.28,3.83,3.83,0,0,1,3.52,2.26l1.47,2.81,65.45-13.66,12.16,17.18-.79.53c-.3.2-7.75,5-40.35,5.88-13.22.36-24.15.54-32.48.54Z" transform="translate(0 0)"/><polygon class="a" points="393.88 266.14 463.39 250.78 497.16 302.42 423.9 317.96 393.88 266.14"/><path class="c" d="M395.32,266.78l29,50.13,71.28-15.12-32.68-50ZM423.43,319l-31-53.51,71.38-15.78,34.87,53.32Z" transform="translate(0 0)"/><path class="a" d="M479,309.45s-8.4-5.19-15.19-2.68-8.75,4.82-8.75,4.82l-17.51,2s-2.33,2.32-.9,4.11,32.7,2.32,32.7,2.32Z" transform="translate(0 0)"/><path class="c" d="M469.33,320.92c-.08,0-7.92-.14-15.84-.49-16.42-.74-17.14-1.64-17.57-2.18-1.54-1.93-.12-4.27,1-5.35l.23-.23,17.51-2c.76-.73,3.22-2.73,8.86-4.81,7.14-2.62,15.64,2.54,16,2.76l-1,1.59c-.08-.05-8.1-4.91-14.37-2.6s-8.36,4.54-8.38,4.56l-.23.27-.37,0L438,314.44c-.41.5-1.28,1.71-.67,2.58,1.91,1.06,19.82,1.83,32,2Z" transform="translate(0 0)"/><path class="c" d="M596.33,269a20.25,20.25,0,1,1-20.25-20.25A20.24,20.24,0,0,1,596.33,269" transform="translate(0 0)"/><path class="c" d="M487.69,302.36s48.84-23.83,77.19-50.75l24.78,32.64s-46.7,31-97.68,35.5c-4.29-15.72-4.29-17.39-4.29-17.39" transform="translate(0 0)"/><path class="a" d="M515,288.53l-.95-1.6a336.53,336.53,0,0,0,38.77-26.14l1.16,1.46a338.91,338.91,0,0,1-39,26.28" transform="translate(0 0)"/><path class="a" d="M418.75,322.4l-3-9.87a2.26,2.26,0,0,1,1.63-2.72h0c1.1-.29,2.93-.44,3.65,1.7l3.48,7.51Z" transform="translate(0 0)"/><path class="c" d="M417.85,322.67l-3-9.87a3.21,3.21,0,0,1,2.29-3.89c2.35-.62,4.08.21,4.78,2.25l3.47,7.46-1.69.78-3.53-7.6c-.25-.76-.76-1.56-2.52-1.1a1.34,1.34,0,0,0-1,1.61l3,9.82Z" transform="translate(0 0)"/><path class="a" d="M400.9,265.72a45.16,45.16,0,0,0,14.8,8.77l11.88-26.11L416.2,237.19l-.14.07-.11.06A27.22,27.22,0,0,0,402.18,257c-.7,4.48-1.29,8.44-1.28,8.73" transform="translate(0 0)"/><path class="c" d="M401.87,265.35a44.93,44.93,0,0,0,13.34,8l11.25-24.75L416,238.34a26.45,26.45,0,0,0-12.94,18.79c-.84,5.4-1.13,7.46-1.23,8.22Zm14.33,10.28-.79-.25a45.87,45.87,0,0,1-15.14-9l-.28-.26,0-.38c0-.19,0-.47,1.29-8.92a28.3,28.3,0,0,1,14.24-20.34l.86-.48,12.33,12.14Z" transform="translate(0 0)"/><path class="a" d="M413.27,273.56s8.83,3.61,10.51,3.42,5.16-.44,5.72-3.42c-5.31-1.68-8.9-3-11.17-3.87Z" transform="translate(0 0)"/><path class="c" d="M423.69,277.91c-2.05,0-8.72-2.65-10.77-3.49l.71-1.72c4.14,1.69,9.14,3.46,10.05,3.35l.22,0c1.85-.2,3.69-.52,4.42-1.87-5-1.6-8.37-2.84-10.32-3.6l.67-1.74c2.05.8,5.64,2.12,11.11,3.85l.79.25-.15.81c-.67,3.54-4.48,3.95-6.32,4.15l-.21,0h-.2" transform="translate(0 0)"/><path class="a" d="M415.08,270.76l9,4.29,2.47.25a6.36,6.36,0,0,0,5.78-2.57l.89-1.6-15.17-5.59Z" transform="translate(0 0)"/><path class="c" d="M427.2,276.27c-.25,0-.49,0-.74,0l-2.62-.27-9.16-4.36.8-1.68,8.87,4.22,2.3.24a5.45,5.45,0,0,0,4.91-2.16l.33-.59-14.15-5.22.64-1.75,16.2,6-1.49,2.64a7.31,7.31,0,0,1-5.89,3" transform="translate(0 0)"/><polygon class="a" points="401.46 220.4 405.56 217.6 444.55 268.9 447.72 277.1 440.82 271.69 401.46 220.4"/><path class="c" d="M441.49,271l4.14,3.25-1.9-4.93-38.37-50.48-2.56,1.74Zm8.32,8.89-9.73-7.66-40-52.08,5.65-3.85,39.6,52.11Z" transform="translate(0 0)"/><path class="a" d="M417,266.66l9.79,3.82,3.78.71a4.91,4.91,0,0,0,5.26-3.27l.57-1.64-12.75-7.46Z" transform="translate(0 0)"/><path class="c" d="M431.2,272.16a6,6,0,0,1-.73-.05l-4-.76-9.79-3.83.67-1.73,9.72,3.79,3.69.69a4,4,0,0,0,4.21-2.65l.32-.92-12.09-7.07.94-1.61,13.4,7.85-.81,2.36a5.87,5.87,0,0,1-5.52,3.93" transform="translate(0 0)"/><path class="a" d="M439.25,259c0,.14,0,.28-.05.4-5.41,1.5-9-4.91-9.76-11.06a105,105,0,0,1-9.51-11.94l5.6,1.89A20.13,20.13,0,0,1,439.25,259" transform="translate(0 0)"/><path class="c" d="M422.33,238.23a112.77,112.77,0,0,0,7.8,9.52l.2.22,0,.29c.66,5.51,3.67,11.07,8,10.42a19.11,19.11,0,0,0-13.11-19.47Zm15.31,22.36c-5.17,0-8.31-6.06-9.08-11.8A106.76,106.76,0,0,1,419.15,237l-1.48-2.26,8.15,2.76a21,21,0,0,1,14.35,21.67c0,.15,0,.3,0,.44l-.08.62-.6.16a6.69,6.69,0,0,1-1.81.25Z" transform="translate(0 0)"/><path class="a" d="M421.05,249.37a67,67,0,0,0,8.2,7.4c4.11,3,9.52,6.34,9.52,6.34l-.2.51a4.58,4.58,0,0,1-5.2,2.8l-4.61-.7-8-4.4Z" transform="translate(0 0)"/><path class="c" d="M434.32,267.45a5.51,5.51,0,0,1-1.14-.11l-4.73-.72-8.11-4.49.9-1.63,7.82,4.33,4.45.67a3.65,3.65,0,0,0,4.1-2c-1.58-1-5.66-3.61-8.9-6a66.85,66.85,0,0,1-8.38-7.55l1.43-1.2a65.52,65.52,0,0,0,8,7.25c4,2.93,9.4,6.27,9.46,6.3l.66.41-.49,1.23a5.48,5.48,0,0,1-5.11,3.49" transform="translate(0 0)"/><line class="h" x1="163.91" y1="347.3" x2="595.98" y2="347.3"/><circle cx="151.15" cy="103.84" r="32.15"/><circle class="i" cx="606.85" cy="136.93" r="32.15"/><g class="j"><text class="k" transform="translate(584.16 145.29)">365</text></g><g class="j"><text class="k" transform="translate(137.91 111.56)">14</text></g><path class="l" d="M362.45,252.14v13.12a2,2,0,0,1-2,2H338a2,2,0,0,1-2-2V252.14h0" transform="translate(0 0)"/></svg>