<svg xmlns="http://www.w3.org/2000/svg" xmlns:xlink="http://www.w3.org/1999/xlink" viewBox="0 0 800 400"><defs><style>.a{fill:#fff;}.a,.c,.d{fill-rule:evenodd;}.b{fill:#e8f4f9;}.c{fill:#00a797;}.e{mask:url(#a);}</style><mask id="a" x="178" y="67.04" width="427" height="265.55" maskUnits="userSpaceOnUse"><g transform="translate(0 0)"><polygon class="a" points="605 332.59 178 332.59 178 67.04 605 67.04 605 332.59"/></g></mask></defs><title>3</title><rect class="b" width="800" height="400"/><path class="c" d="M493.4,121.74h0A23.38,23.38,0,1,0,470,98.36a23.38,23.38,0,0,0,23.38,23.38" transform="translate(0 0)"/><path class="a" d="M484.13,104.1a9.27,9.27,0,1,0,18.53,0" transform="translate(0 0)"/><path class="d" d="M500,94.39A2.65,2.65,0,1,1,502.66,97,2.65,2.65,0,0,1,500,94.39" transform="translate(0 0)"/><path class="d" d="M481.49,94.39A2.65,2.65,0,1,1,484.13,97a2.65,2.65,0,0,1-2.64-2.65" transform="translate(0 0)"/><path class="d" d="M390,308.31l-5.05,4a122.66,122.66,0,0,1-29.67-11.68c-12-6.62-26.12-19.33-26.54-33.39-.37-12-6.9-23.36-17.48-30.36-11.76-7.78-19.72-23.83-17.39-35.05.77-3.68,3.07-8.31,9.71-9.48a10,10,0,0,1,1.72-.15c8.43,0,15.12,11,19.26,20.15,3.79,8.46,17.07,14.29,28.23,16.93A29.33,29.33,0,0,1,370.92,242c7.21,10.62,10.56,27.24,9.95,49.4A19.45,19.45,0,0,0,389,307.65c.37.27.7.48,1,.66Zm-4.65,5.76,7.94-6.29-1.57-.42a7.51,7.51,0,0,1-1.75-1,17.81,17.81,0,0,1-7.43-14.89c.61-22.5-2.83-39.45-10.24-50.36a30.88,30.88,0,0,0-19.13-13.39c-10.29-2.44-23.56-8.09-27.12-16-6.21-13.81-13.39-21.12-20.75-21.12a11.38,11.38,0,0,0-2,.18,13,13,0,0,0-11,10.76c-2.46,11.81,5.83,28.63,18.09,36.75,10.14,6.71,16.39,17.56,16.74,29,.45,14.75,15,28,27.39,34.77A123.42,123.42,0,0,0,385,314Z" transform="translate(0 0)"/><path class="d" d="M398.35,312.3a17.06,17.06,0,0,0,5.5-.89l-.52-1.56c-7.48,2.54-15.59-1.49-20.27-5.71-8.49-7.66-12.05-18.2-15.81-29.36C364.62,267,361.91,259,357.36,252c-6.32-9.65-12.21-15.66-22.51-23-1.77-1.25-3.62-2.4-5.58-3.61-8.58-5.31-17.46-10.81-20.87-26.05l-1.59.36c3.57,15.91,13.15,21.85,21.61,27.09,1.94,1.19,3.76,2.33,5.49,3.55,10.25,7.26,15.82,12.94,22.09,22.52,4.43,6.77,7.11,14.72,9.71,22.41,3.66,10.86,7.46,22.1,16.26,30.05,4.07,3.67,10.09,6.94,16.38,6.94" transform="translate(0 0)"/><path class="d" d="M501.35,181.59a1.65,1.65,0,0,1,1,.66c6.65,7.44,6.26,20.73-1.05,36.47A108.24,108.24,0,0,1,477.78,251c-7.18,6.7-14.3,11.27-20.72,13.36,14.78-8.67,24.16-33.23,30.11-48.8.7-1.83,1.36-3.54,2-5.09,1.8-4.56,3.37-9.14,4.76-13.18,2.66-7.72,5.41-15.71,7.45-15.71m-51.82,85.72c18.58,0,42.57-24.78,53.32-47.92,7.7-16.59,8-30.16.79-38.21a3.12,3.12,0,0,0-2.29-1.21c-3.09,0-5.22,5.76-9,16.81-1.39,4-3,8.58-4.74,13.12-.62,1.55-1.27,3.27-2,5.1-6.84,17.87-18.27,47.78-36.77,50.68l.1,1.62h.58" transform="translate(0 0)"/><path class="d" d="M573.41,179a10.4,10.4,0,0,1,1.92.18c7.24,1.33,9.85,6.57,10.76,10.72,2.81,12.88-6.18,32.11-19.26,41.16a44.53,44.53,0,0,0-19.32,35.07c-.47,16.37-16.18,31.15-29.48,38.83a132.93,132.93,0,0,1-32.92,13.56l-5.79-4.79a14.2,14.2,0,0,0,1.25-.87,22.7,22.7,0,0,0,8.94-18.72c-.66-25.72,3.06-45,11.07-57.37,5.09-7.84,11.69-12.68,20.17-14.78,12.36-3.06,27-9.8,31.25-19.56,4.59-10.69,12-23.43,21.41-23.43ZM484.68,320.24l.39-.08a133.47,133.47,0,0,0,33.79-13.84c13.67-7.89,29.81-23.15,30.3-40.19a42.9,42.9,0,0,1,18.62-33.78,49.57,49.57,0,0,0,16.36-20.23c3.64-8,4.94-16.29,3.56-22.61-1.46-6.66-5.63-10.8-12.07-12a11.92,11.92,0,0,0-2.22-.21c-8.13,0-16.06,8.45-22.93,24.42-4,9.22-18.7,15.79-30.13,18.62-8.9,2.2-15.83,7.27-21.16,15.48-8.19,12.62-12,32.24-11.32,58.29a21.15,21.15,0,0,1-8.3,17.39,8.08,8.08,0,0,1-2,1.22l-1.41.46,1.13.95Z" transform="translate(0 0)"/><path class="d" d="M470.82,319.36c7,0,13.64-3.78,18.14-8,9.75-9.18,14-22.17,18-34.74,2.88-8.9,5.86-18.11,10.79-26,7-11.1,13.16-17.69,24.55-26.1,1.92-1.42,3.95-2.73,6.1-4.12,9.37-6,20-12.91,23.94-31.28l-1.61-.34c-3.81,17.71-13.68,24.08-23.23,30.25-2.17,1.4-4.22,2.73-6.19,4.18-11.42,8.44-18,15.39-25,26.54-5,8-8.05,17.34-11,26.34-4.19,12.94-8.15,25.16-17.59,34.06-5.21,4.9-14.23,9.57-22.55,6.63l-.55,1.54a18.29,18.29,0,0,0,6.09,1" transform="translate(0 0)"/><path class="d" d="M478.47,326.32l-.23.8ZM590.62,261c4.74,0,8.65,1.58,10.47,4.23,1.28,1.87,3.21,5.89,1.72,11.83-2,8.22-11,21.36-41.69,37.31a127.8,127.8,0,0,1-58.65,14.79A104.54,104.54,0,0,1,485,327.76a53.91,53.91,0,0,0,8.06-2.1c19.28-1.38,36.81-19,55.37-37.55,3.52-3.53,7.16-7.19,10.77-10.67C574,263.15,585.22,261,590.62,261Zm-88.15,69.81a129.45,129.45,0,0,0,59.41-15c31.28-16.24,40.39-29.83,42.53-38.38,1.64-6.57-.52-11.07-2-13.16-2.13-3.1-6.55-4.95-11.83-4.95-5.65,0-17.38,2.19-32.6,16.88-3.63,3.5-7.27,7.15-10.8,10.69-18.37,18.41-35.71,35.8-54.42,37.08l-.21,0c-6,2-9.88,2.46-12,2.46a7.94,7.94,0,0,1-2.09-.2l-.1.32.1-.32-.07.21.06-.21-.5,1.57.12-.34-.11.35.23-.69-.2.7c.39.12,9.76,2.92,24.47,2.92Z" transform="translate(0 0)"/><path class="d" d="M251.63,182.45a8.44,8.44,0,0,1,8.54,8.32v4.86a8.45,8.45,0,0,1-8.54,8.33H215.54a8.45,8.45,0,0,1-8.55-8.33v-4.86a8.44,8.44,0,0,1,8.55-8.32Zm-36.09,23.1h36.09a10.07,10.07,0,0,0,10.18-9.92v-4.86a10.07,10.07,0,0,0-10.18-9.92H215.54a10.07,10.07,0,0,0-10.19,9.92v4.86a10.07,10.07,0,0,0,10.19,9.92Z" transform="translate(0 0)"/><path class="d" d="M344.87,101.6H257a9.35,9.35,0,0,1-9.43-9.25V78.79A9.36,9.36,0,0,1,257,69.53h78.44a9.36,9.36,0,0,1,9.43,9.26ZM257,103.21h89.51V78.79a11,11,0,0,0-11.07-10.87H257a11,11,0,0,0-11.07,10.87V92.35A11,11,0,0,0,257,103.21Z" transform="translate(0 0)"/><g class="e"><polygon class="d" points="332.39 80.28 258.28 80.28 258.28 78.51 332.39 78.51 332.39 80.28"/></g><g class="e"><polygon class="d" points="332.39 86.45 258.28 86.45 258.28 84.69 332.39 84.69 332.39 86.45"/></g><g class="e"><polygon class="d" points="331.51 92.63 286.51 92.63 286.51 90.86 331.51 90.86 331.51 92.63"/></g><g class="e"><path class="d" d="M287.79,119a16.49,16.49,0,0,1,16.49,16.47v21.13A16.49,16.49,0,0,1,287.79,173H207v-37.6A16.49,16.49,0,0,1,223.48,119Zm-82.44,55.7h82.44a18.13,18.13,0,0,0,18.13-18.1V135.44a18.14,18.14,0,0,0-18.13-18.11H223.48a18.14,18.14,0,0,0-18.13,18.11Z" transform="translate(0 0)"/></g><g class="e"><polygon class="d" points="291.81 131.44 217.7 131.44 217.7 129.68 291.81 129.68 291.81 131.44"/></g><g class="e"><polygon class="d" points="291.81 137.62 217.7 137.62 217.7 135.86 291.81 135.86 291.81 137.62"/></g><g class="e"><polygon class="d" points="291.81 149.97 265.34 149.97 265.34 148.21 291.81 148.21 291.81 149.97"/></g><g class="e"><polygon class="d" points="291.81 156.15 217.7 156.15 217.7 154.38 291.81 154.38 291.81 156.15"/></g><g class="e"><polygon class="d" points="291.81 162.32 217.7 162.32 217.7 160.56 291.81 160.56 291.81 162.32"/></g><g class="e"><path class="c" d="M412.27,125.58s28.49,4.13,43.49,21.09c22.53,25.47,1.58,30.93,7.26,40.25,5.23,8.59,32.89,9.48,45.61,34.28,10.89,21.24-6.25,67.7-106.18,51.61C388.18,197.07,380.91,134,380.91,134s10.16-10.7,31.36-8.46" transform="translate(0 0)"/></g><g class="e"><path class="a" d="M303.28,270l-22.75-9.75s-14.87,22.09-12.23,52.93h27s7.83-24.45,8-43.18" transform="translate(0 0)"/></g><g class="e"><polygon class="a" points="356.21 297.1 340.2 329.06 282.1 276.95 297.66 256.72 356.21 297.1"/></g><g class="e"><polygon class="d" points="356.21 296.92 340.06 329.06 304.16 296.98 322.11 273.48 356.21 296.92"/></g><g class="e"><path class="d" d="M328.86,312.3c0,9.75,8.3,17.65,18.53,17.65s18.53-7.9,18.53-17.65-8.3-17.64-18.53-17.64-18.53,7.9-18.53,17.64" transform="translate(0 0)"/></g><g class="e"><path class="d" d="M340.13,330.83l17-33.39-58.31-39.62a16.4,16.4,0,0,0-8.45-2.86,13.8,13.8,0,0,0-10.39,4.65l-.06,0-.42.61.7.46-.26.67.56.21.38-.46a12.18,12.18,0,0,1,9.49-4.49,14.9,14.9,0,0,1,7.52,2.57L355,298,339.62,328.2l-38.91-34.4-1.1,1.21Z" transform="translate(0 0)"/></g><g class="e"><polygon class="d" points="402.97 233.96 375.7 219.67 329.74 306.42 361.27 323.77 402.97 233.96"/></g><g class="e"><path class="d" d="M328.86,312.3c0,9.75,8.3,17.65,18.53,17.65s18.53-7.9,18.53-17.65-8.3-17.64-18.53-17.64-18.53,7.9-18.53,17.64" transform="translate(0 0)"/></g><g class="e"><path class="d" d="M456.49,201.38l37.35,129.45h-127l7.45-52.16s-4.19-5.09-4.41-9.53c-.14-2.68,2.89-8.4,5.31-12.53a136.55,136.55,0,0,0,6.46-12.42l.08-.16a34.56,34.56,0,0,0,3-17.59l-3.38-13.21s29.31-20.14,75.18-11.85" transform="translate(0 0)"/></g><g class="e"><path class="d" d="M372.09,230.7a19.85,19.85,0,1,0,19.85-19.85,19.85,19.85,0,0,0-19.85,19.85" transform="translate(0 0)"/></g><g class="e"><path class="d" d="M432.08,221a19.85,19.85,0,1,0,19.85-19.85A19.85,19.85,0,0,0,432.08,221" transform="translate(0 0)"/></g><g class="e"><path class="a" d="M367.6,330.83l7.74-52.27-.24-.28s-4.15-4.92-4.36-9c-.1-1.91,1.8-6.18,5.37-12a136.86,136.86,0,0,0,6.69-12.44l.08-.16a34.16,34.16,0,0,0,3.17-17.92l-1.69.14a32.63,32.63,0,0,1-3,17.11l-.07.16a136.09,136.09,0,0,1-6.62,12.29c-3.83,6.29-5.72,10.64-5.6,12.92.21,4.07,3.58,8.51,4.51,9.68l-7.63,51.57Z" transform="translate(0 0)"/></g><g class="e"><path class="a" d="M411.73,224.08a23.64,23.64,0,0,0,23.88-23.82H434a22.08,22.08,0,0,1-27.1,21.64,13.9,13.9,0,0,1-5.54-2.49,10.22,10.22,0,0,1-3.73-9.22L396,210a11.88,11.88,0,0,0,4.33,10.72,15.6,15.6,0,0,0,6.18,2.79,22.75,22.75,0,0,0,5.21.59" transform="translate(0 0)"/></g><g class="e"><path class="a" d="M425.7,219.67l1.09-1.12a35.34,35.34,0,0,1-4-4.18l-1.26.94a37.56,37.56,0,0,0,4.2,4.36" transform="translate(0 0)"/></g><g class="e"><polygon class="a" points="404.68 221.43 406.5 217.93 404.79 217.02 402.97 220.53 404.68 221.43"/></g><g class="e"><path class="a" d="M398.48,216.14a1.62,1.62,0,0,1,1-.51l-.15-1.26a2.78,2.78,0,0,0-1.61.86Z" transform="translate(0 0)"/></g><g class="e"><path class="a" d="M433.43,206.43l.42-1.2a20.84,20.84,0,0,0-3-.23,16.8,16.8,0,0,1-3.45-.33l-.65,1.14a16.69,16.69,0,0,0,4,.43,22.66,22.66,0,0,1,2.62.19" transform="translate(0 0)"/></g><g class="e"><polygon class="a" points="435.61 202.02 429.44 202.02 429.44 200.26 435.61 200.26 435.61 202.02"/></g><g class="e"><path class="d" d="M501.85,317.6l35.22-8c-.06-.06-30.21-86.71-77.33-106.65a327.13,327.13,0,0,0-22.36,31.18s45,40.81,64.47,83.51" transform="translate(0 0)"/></g><g class="e"><path class="d" d="M500.9,312.3c0,9.75,8.29,17.65,18.52,17.65S538,322.05,538,312.3s-8.29-17.64-18.53-17.64-18.52,7.9-18.52,17.64" transform="translate(0 0)"/></g><g class="e"><path class="d" d="M521.19,294.62,519.54,330s-34.41-1.7-67.17-9.16c-12-2.74-21.93-5.33-30-7.64l4.72-30.84Z" transform="translate(0 0)"/></g><g class="e"><path class="d" d="M500.9,312.3c0,9.75,8.29,17.65,18.52,17.65S538,322.05,538,312.3s-8.29-17.64-18.53-17.64-18.52,7.9-18.52,17.64" transform="translate(0 0)"/></g><g class="e"><path class="a" d="M395.77,277.9l31,4.09-4.73,31.19c-20.29-5.87-28.8-9.94-28.8-9.94Z" transform="translate(0 0)"/></g><g class="e"><path class="a" d="M382.68,291.13a13.23,13.23,0,1,0,13.23-13.23,13.23,13.23,0,0,0-13.23,13.23" transform="translate(0 0)"/></g><g class="e"><path class="a" d="M394.38,277.9l3.3,25.32s-3,8.67-11.59,12.78-36.21,14.83-42.87,14.83H324.45S375,281.92,394.38,277.9" transform="translate(0 0)"/></g><g class="e"><path class="a" d="M397.21,277.9,426.79,282l-4.73,31.19c-20.29-5.87-28.8-9.94-28.8-9.94Z" transform="translate(0 0)"/></g><g class="e"><polygon class="d" points="330.69 330.83 356.21 313.59 355.26 312.3 329.74 329.55 330.69 330.83"/></g><g class="e"><polygon class="d" points="341.21 332.59 361.5 319.03 360.62 317.6 340.33 331.16 341.21 332.59"/></g><g class="e"><polygon class="a" points="520.97 295.54 521.19 293.82 427.01 280.54 426.79 282.26 520.97 295.54"/></g><g class="e"><polygon class="a" points="432.88 316.71 437.38 284.29 435.69 284.07 431.2 316.5 432.88 316.71"/></g><g class="e"><path class="a" d="M433.44,290.25l.41-1.82c-2.23-.67-4.51-1.24-6.77-1.71l-.29,1.85c2.22.46,4.46,1,6.65,1.68" transform="translate(0 0)"/></g><g class="e"><polygon class="a" points="431.81 296.42 432.08 295.19 427.06 294.66 426.79 295.89 431.81 296.42"/></g><g class="e"><path class="a" d="M431.94,310.33l-.79.19.47.57a.83.83,0,0,1-.86,0,.72.72,0,0,1-.3-.41Zm-2.59,1.09c.59,0,1.19,0,1.78-.05a.94.94,0,0,0,.92-.63.73.73,0,0,0-.34-.84,1,1,0,0,0-1,0l-.07,0a27,27,0,0,1-5.32-.27l-.28,1.43a28.5,28.5,0,0,0,4.33.33Z" transform="translate(0 0)"/></g><g class="e"><path class="d" d="M372,173.2c2.2,6.63,8.16,10.68,13.31,9.06s7.54-8.31,5.34-14.94-8.16-10.67-13.31-9-7.54,8.31-5.34,14.93" transform="translate(0 0)"/></g><g class="e"><path class="a" d="M396.79,184.11l6.8,20.56,0,0a6.7,6.7,0,0,0,2.84,12.14,24.87,24.87,0,0,0,8.75-.54c14.52-3.08,13.4-16.33,13.4-16.33l-15.87-29.71Z" transform="translate(0 0)"/></g><g class="e"><path class="d" d="M398.56,186.82l2.1,6.38s8.11-7.44,9.37-13.23c-3.2,4.16-7.41,7.18-11.47,6.85" transform="translate(0 0)"/></g><g class="e"><path class="a" d="M399.48,186.83c-11.29,1.81-21.92-9-23.47-23.49s.94-29.46,17.49-30.93c15.28-1.36,27.23,14.23,21,36.81C414.53,169.22,410.77,185,399.48,186.83Z" transform="translate(0 0)"/></g><g class="e"><path class="d" d="M397.47,187.91a17.68,17.68,0,0,0,2.62-.2c4.57-.71,8.51-3.5,11.7-8.31l-1.39-.9c-2.92,4.4-6.48,6.95-10.57,7.59a16.86,16.86,0,0,1-12.9-3.54c-5.49-4.14-9.27-11.22-10.13-18.94-1.19-10.77.29-18.74,4.42-23.69,2.9-3.48,7.17-5.48,12.7-6l-.14-1.63c-6,.51-10.66,2.71-13.85,6.54-4.42,5.31-6,13.7-4.78,24.92.9,8.16,4.93,15.66,10.76,20.06a19.24,19.24,0,0,0,11.56,4.06" transform="translate(0 0)"/></g><g class="e"><path class="c" d="M425.91,150.17s-9.57,7.26-18.25,2.72-14-10-20.93-9.29-9.35-1.58-9.35-1.58,2.56-15.86,22.26-15.87c24.82,0,26.27,24,26.27,24" transform="translate(0 0)"/></g><g class="e"><path class="c" d="M391.5,139.48s-3.61,2.38-5,5.42-8.48,12.36-20,6.94c-6.55-2.17,0-22.3,25-12.36" transform="translate(0 0)"/></g><g class="e"><path class="c" d="M415.78,133.11s13.73-9.61,4-22.92-36.08.9-19.26,19.62c12.62,4.29,15.27,3.3,15.27,3.3" transform="translate(0 0)"/></g><g class="e"><path class="d" d="M387,171.15c1.84,0,4.46-2.4,4.49-2.42l-1.13-1.18a7.63,7.63,0,0,1-3.35,2,2.72,2.72,0,0,1,.2-1.47,8.39,8.39,0,0,0,.23-.85,21.55,21.55,0,0,0,.32-4l-1.65,0a20,20,0,0,1-.29,3.71c0,.18-.11.42-.18.67a3.22,3.22,0,0,0,.06,2.91,1.48,1.48,0,0,0,1.1.62h.2" transform="translate(0 0)"/></g><g class="e"><path class="d" d="M402.84,170.11c.54,0,.77.64.86,1,.71,3.1-.24,8.06-3.81,8.9a3.44,3.44,0,0,1-.8.09c-3.39,0-7.26-4.3-7.63-5.47a9.84,9.84,0,0,1,1.13-.16,21.75,21.75,0,0,0,3.41-.58,12.48,12.48,0,0,0,5.66-3.1,1.73,1.73,0,0,1,1.18-.7m-3.75,11.62a4.91,4.91,0,0,0,1.22-.14c4.65-1.1,5.92-7,5.05-10.8a2.62,2.62,0,0,0-2.52-2.29,3.38,3.38,0,0,0-2.5,1.29,10.9,10.9,0,0,1-4.79,2.57,20.75,20.75,0,0,1-3.15.53c-1.26.14-2.56.28-2.66,1.56s1.63,3,2.16,3.55c1.1,1.12,4,3.73,7.19,3.73" transform="translate(0 0)"/></g><g class="e"><path class="d" d="M397.53,159.68a3.81,3.81,0,0,1,1.86-2.32,4,4,0,0,1,3-.3,8.77,8.77,0,0,1,2.26,1.23l1-1.34a10.19,10.19,0,0,0-2.72-1.44,5.69,5.69,0,0,0-4.32.42,5.47,5.47,0,0,0-2.67,3.33Z" transform="translate(0 0)"/></g><g class="e"><path class="d" d="M379.79,164.09a2.29,2.29,0,0,1,1.43-1.78,2.11,2.11,0,0,1,2.16.5l1.06-1.18a3.55,3.55,0,0,0-3.71-.87,3.87,3.87,0,0,0-2.46,3.06Z" transform="translate(0 0)"/></g><g class="e"><path class="d" d="M414.34,149.58s-12.46-28.7-35.19-13.65c.73-2.18,2.36-4.83,7.24-6.89,8.2-3.47,24.67-5.22,36.87,19.07-7,3-8.92,1.47-8.92,1.47" transform="translate(0 0)"/></g><g class="e"><path class="d" d="M373.29,181.73a82.25,82.25,0,0,0,13.8-1.54l-.35-1.46c-7.65,1.49-18.92,2.46-20,0a.74.74,0,0,1,0-.68c.54-1,2.8-1.71,3.55-1.89l-.43-1.44c-.37.09-3.62.92-4.59,2.65a2.1,2.1,0,0,0-.1,1.89c.83,1.92,4.2,2.52,8.08,2.52" transform="translate(0 0)"/></g><g class="e"><path class="d" d="M384.47,180.17c.22,1.16,1.77,1.82,3.46,1.47s2.88-1.59,2.66-2.75-1.77-1.83-3.46-1.47-2.88,1.58-2.66,2.75" transform="translate(0 0)"/></g><g class="e"><path class="a" d="M415.11,167.61s11.65,4.61,10.75-7.16-11-8-12.3-3.25c1.23,9.21,1.55,10.41,1.55,10.41" transform="translate(0 0)"/></g><g class="e"><path class="d" d="M412.61,160.85c2.2,6.63,8.17,10.68,13.32,9.06s7.54-8.31,5.33-14.94-8.16-10.68-13.31-9.05-7.54,8.31-5.34,14.93" transform="translate(0 0)"/></g><g class="e"><path class="a" d="M456.55,295.54l.91-1.36-5.5-3.63c-2.26-1.49-4.69-3.29-5-5.77a5.22,5.22,0,0,1,1.2-3.73,14.72,14.72,0,0,1,4-3.16,18.41,18.41,0,0,0,4.08-3.1,9.77,9.77,0,0,0-2.1-14.35c-.48-.3-1-.54-1.46-.78a12.77,12.77,0,0,1-1.68-.92,6.06,6.06,0,0,1-1.84-7.44l-1.46-.75a7.63,7.63,0,0,0,2.36,9.52,13.7,13.7,0,0,0,1.89,1.06c.47.23.91.45,1.33.7a8.15,8.15,0,0,1,1.73,11.87,16.64,16.64,0,0,1-3.72,2.8,16.14,16.14,0,0,0-4.46,3.54,6.88,6.88,0,0,0-1.54,4.93c.36,3.17,3.13,5.24,5.7,6.94Z" transform="translate(0 0)"/></g><g class="e"><path class="a" d="M450.51,249.66a8.51,8.51,0,0,1,1.86-3.23l-1.27-1.18a10.09,10.09,0,0,0-2.25,3.91Z" transform="translate(0 0)"/></g><g class="e"><path class="a" d="M448.23,293.78l.63-1.53a9.79,9.79,0,0,1-6.17-7.63,9.53,9.53,0,0,1,4.07-8.83c.34-.23.7-.45,1.06-.67,1.45-.89,3.1-1.9,3.56-3.7.4-1.55-.28-3.34-1.86-4.91-.45-.43-.92-.83-1.38-1.22a12.61,12.61,0,0,1-2-1.93c-1.62-2.17-1.48-5.14-1.17-8.25l-1.72-.15c-.33,3.43-.47,6.73,1.49,9.35a13.81,13.81,0,0,0,2.25,2.21c.46.39.88.75,1.28,1.14.55.54,1.79,2,1.43,3.37-.3,1.16-1.52,1.91-2.82,2.71-.39.24-.77.47-1.13.72A11.15,11.15,0,0,0,441,284.82a11.49,11.49,0,0,0,7.25,9" transform="translate(0 0)"/></g><g class="e"><polygon class="a" points="464.73 330.83 438.26 330.83 438.26 296.42 464.73 296.42 464.73 330.83"/></g><g class="e"><path class="a" d="M462.08,325.54H470a10.81,10.81,0,0,0,10.65-10.94v-.19A10.8,10.8,0,0,0,470,303.48h-7.88v2.69H470a8.15,8.15,0,0,1,8,8.24v.19a8.15,8.15,0,0,1-8,8.25h-7.88Z" transform="translate(0 0)"/></g><g class="e"><path class="a" d="M576.77,330.83h0Z" transform="translate(0 0)"/></g><g class="e"><polygon class="d" points="576.77 331.71 182.41 331.71 182.41 329.95 576.77 329.95 576.77 331.71"/></g><g class="e"><polygon class="a" points="410.91 329.95 222.11 329.95 222.11 323.77 410.91 323.77 410.91 329.95"/></g><g class="e"><path class="d" d="M408.39,329.26H222v-4.81h186.4Zm1.64,1.57H220.35v-7.94H410Z" transform="translate(0 0)"/></g><g class="e"><path class="a" d="M281.46,223.29l48.28,99.6H222.38l-43-94.94c-1.54-3.41.74-7.4,4.23-7.4h93.69a4.67,4.67,0,0,1,4.17,2.74" transform="translate(0 0)"/></g><g class="e"><path class="d" d="M328,322.14H222.75l-42.69-94.58a4.68,4.68,0,0,1,.32-4.47,3.74,3.74,0,0,1,3.15-1.79H277a3.83,3.83,0,0,1,3.41,2.28Zm-106.33,1.63H330.63l-48.74-100.9a5.46,5.46,0,0,0-4.89-3.2H183.53a5.32,5.32,0,0,0-4.52,2.54,6.26,6.26,0,0,0-.44,6Z" transform="translate(0 0)"/></g><g class="e"><path class="a" d="M239.66,277.06c-1.84-5-.65-11.77,5.71-12.36,5.24-.48,9.91,3.21,11.66,9.2,1.36,4.67-1,10.29-6.44,11-4.54.58-9-2.7-10.93-7.83" transform="translate(0 0)"/></g><g class="e"><path class="d" d="M245.76,265.56c4.72,0,8.8,3.37,10.39,8.6a8.1,8.1,0,0,1-.89,6.71,6.86,6.86,0,0,1-5.1,3.13,8.22,8.22,0,0,1-1,.06c-4,0-7.81-2.94-9.51-7.32-1.13-2.92-1-6.2.34-8.35a6,6,0,0,1,4.88-2.79,8.64,8.64,0,0,1,.88,0m3.41,20.28h0a9.83,9.83,0,0,0,1.21-.08,8.73,8.73,0,0,0,6.37-3.93,9.89,9.89,0,0,0,1.1-8.19c-1.83-6-6.57-9.86-12.09-9.86-.34,0-.69,0-1,.05a7.79,7.79,0,0,0-6.23,3.62,11.4,11.4,0,0,0-.48,9.93c2,5.06,6.45,8.46,11.16,8.46" transform="translate(0 0)"/></g><path class="d" d="M399.24,152.34a5.54,5.54,0,1,0,4.61,6.34,5.55,5.55,0,0,0-4.61-6.34m-2.13,13.45a8.07,8.07,0,1,1,9.24-6.71,8.08,8.08,0,0,1-9.24,6.71" transform="translate(0 0)"/><path class="d" d="M381.13,156.86a5.54,5.54,0,1,0,4.6,6.34,5.53,5.53,0,0,0-4.6-6.34M379,170.31a8.08,8.08,0,1,1,9.23-6.72,8.1,8.1,0,0,1-9.23,6.72" transform="translate(0 0)"/><path class="d" d="M387.18,161.23,386,159a10.34,10.34,0,0,1,5.75-1.22l-.21,2.53a7.84,7.84,0,0,0-4.33.91" transform="translate(0 0)"/></svg>