<?xml version="1.0" encoding="UTF-8"?><svg id="a" xmlns="http://www.w3.org/2000/svg" viewBox="0 0 860 300"><defs><style>.b{fill:#032120;}.c{fill:#eaf7ec;}.d{fill:#fff;}.e{fill:#ffc5c5;}.f{fill:#96d1cf;}.g{fill:#52a8ff;}.h{fill:#549f9c;}</style></defs><rect class="c" width="860" height="300"/><g><path class="h" d="M439.245,83.8999c-.1642-12.198-.2149-24.421-.5444-36.6191-.0128-.5825-.0253-1.1525-.0507-1.7227,0-.2278,0-.4432-.0128-.6839-.0632-2.2296,.393-5.966-1.9506-7.2962-.7093-.4053-1.6341-.4686-2.4066-.19-.1772-.1011-.3801-.19-.6462-.1771-35.4284,1.6336-70.8571,3.3693-106.2858,5.1551-10.0067,.4939-20.0638,.7979-30.0198,1.7355-.9626,.0886-1.0388,1.2412-.3926,1.6466-.1651,1.2034-.2407,2.4446-.279,3.6733-.0125,.5193-.0254,1.0387-.0254,1.5455-.0125,.6333-.0125,1.279-.0378,1.9127-.0632,2.7106-.0507,5.4467-.0254,8.1573,.0886,5.6616-.3825,12.6375-.0523,19.7292,.5164,11.0941,.37,16.68,.8832,31.56,.2165,6.2857,.4025,19.8564,.9601,19.92,8.6005,.8486,23.8971-.4661,32.5484-.5293,8.5498-.0508,17.087-.3293,25.6373-.7223,17.3154-.8358,34.6178-2.1276,51.8701-3.7747,9.766-.9248,19.5574-1.8237,29.2722-3.0778,.6337,.6209,2.0271,.2916,2.0271-.8739-.0382-13.1229-.2914-26.2452-.469-39.3681Zm-53.4024,42.5474c-13.756,1.0765-27.5246,1.8748-41.306,2.3305-.4054-3.9263-.8105-7.8533-1.1905-11.7926-1.7609-18.5437-2.5713-37.0878-3.8-55.6697-.2407-3.724-.5447-7.4355-.9248-11.1341,22.7367-.5069,45.4604-1.1401,68.197-1.8494,9.8168-.304,19.646-.6333,29.4627-.9751,.013,2.1281,.0508,4.2433,.0761,6.3839,.0632,5.5859,.114,11.1847,.203,16.7707,.1642,11.2987,.3164,22.5844,.4811,33.8706,.0761,5.8774,.1771,11.7673,.3164,17.6443-17.1886,1.1655-34.3264,3.091-51.515,4.4209Z"/><path class="b" d="M556.7275,110.1281c-1.0574-.975-2.2399-1.6969-3.395-2.5359-1.1027-.8005-1.0511-1.689-.8008-2.9161,.21-1.0291,.4033-2.0608,.5243-3.1048,.3614-3.1261,.1847-6.4425-1.5941-9.1469-1.6674-2.5352-4.4159-3.9914-7.0883-5.2412-3.052-1.4274-5.8899-2.8462-8.2886-5.2816-3.0175-3.064-5.3328-6.8715-7.5352-10.539-2.3348-3.887-4.3977-7.9015-6.4476-11.9424-.4083-.805-1.7576-.1297-1.425,.7028,2.6783,6.6994,6.349,13.1784,10.5511,19.038,1.8878,2.6325,4.0449,5.1419,6.7415,6.9739,2.3552,1.6,5.04,2.5643,7.5382,3.8994,2.8657,1.5318,5.0366,3.6836,5.5434,7.0196,.2603,1.7165,.1347,3.4657-.1247,5.1735-.222,1.462-.9364,3.1863-.5862,4.6632,.2802,1.1842,1.2083,1.9065,2.1722,2.5485,1.2918,.8604,2.5089,1.7567,3.6037,2.8645,2.2246,2.252,3.8621,5.0799,4.7589,8.1112,.9876,3.338,1.4765,7.825-1.3202,10.4288-2.3668,2.2038-5.9655,2.79-9.0395,3.2407-1.2549,.1838-1.1348,2.1614,.1255,1.9755,5.3611-.7908,11.969-2.4903,12.8222-8.823,.842-6.2491-2.195-12.9224-6.7357-17.1087Z"/><path class="e" d="M519.5116,81.7886c-.8108,2.5205-2.9135,3.6607-4.5979,5.472-1.0512,1.1272-1.178,3.0275-1.4695,4.5093-.2532,1.3044-.5064,2.6222-.7725,3.9394-.5069,2.432-1.1019,4.8512-2.0267,7.1564-.9372,2.2803-2.242,4.4462-4.0407,6.156-.2154,.2028-.4562,.4053-.7095,.5829,.0254,.1772,.0508,.3547,.0761,.5319,.1772,1.0894-1.5073,1.3555-1.8366,.3671-.1014-.2911-.203-.595-.2914-.8865-.4558-.4307-.5447-1.0262-.2533-1.6087,.0254-.0632,.0632-.1139,.114-.1772-.5194-3.2682-1.0512-6.536-1.5706-9.8039-4.9781,1.2791-11.0708,2.1023-14.7569-2.2294-2.1152-2.4699-2.8754-5.8646-3.6226-8.9552-.4053-1.6341-.7472-3.2936-1.0511-4.9527-.5323-2.0267-.8486-4.117-.9376-6.245-.0379-.5826,.38-.899,.8237-.9497-.0637-.38-.1144-.7477-.1651-1.1272-.0886-.6333,.6844-.9502,1.1406-.7095,.1388,0,.2911,.0379,.4428,.1265,1.6848,.9501,3.6104,1.3302,5.5102,.8616,1.482-.3677,2.7485-1.3556,4.3065-1.3809,1.5197-.0254,2.8628,.76,4.1801,1.4187,1.5704,.7726,3.1792,1.4695,4.8262,2.0774,1.7476,.6462,3.534,1.1908,5.3453,1.6341,1.7222,.4307,3.1917,.9755,4.5597-.4686,1.3934-1.4948,3.1161-2.0903,4.9402-.8486,1.8366,1.2283,2.4952,3.4449,1.8366,5.5099Z"/><path class="e" d="M543.5473,186.1732c.0953-.1518,.1563-.3272,.1272-.5409-.4781-3.4699-1.0399-6.9282-1.6873-10.3706-.3172-1.687-.6237-3.391-.9726-5.0849-.0611-.6175-.1242-1.2313-.185-1.8495-.2537-2.5082-.2283-5.282-1.0641-7.6887-1.368-3.99-5.4467-5.5355-9.3098-6.0041-5.282-.6333-10.8172-.2408-16.112,.1776-5.7632,.456-11.6152,1.165-17.2519,2.5077-2.4699,.583-3.7747,2.0395-4.2561,4.5223-.3423,1.7859-.6079,3.61-.7851,5.4467-1.7231,3.331-1.0769,7.3593,.9119,10.5889,2.7484,4.484,7.7389,6.6122,12.7428,7.4738,6.0795,1.0511,12.4638,.8864,18.6197,.8993,3.3057,.0125,6.6122-.0254,9.9179-.1268,1.378-.0316,2.894-.0586,4.264-.4544,.1106,.4956,.2216,.9908,.3305,1.4864,.2558,1.1623,1.8981,.662,1.9206-.3767,.0163-.7625-.0146-1.5227-.0286-2.284,.3546,.9148,.6885,1.8445,1.0499,2.7647,.474,1.2071,2.1019,.5863,1.8603-.6242-.0307-.1542-.0616-.3081-.0923-.4623Z"/><path class="b" d="M543.2209,173.3469c-.2537-1.9181-.5323-3.8333-.8279-5.7453-.2807-1.8157-.3351-4.0025-1.0458-5.6994-.3537-.8449-1.4806-.583-1.5213,.2985-.0461,1.0076,.2702,2.092,.4378,3.087,.1489,.8807,.2932,1.7627,.4337,2.645,.3044,1.9118,.583,3.827,.8528,5.7439,.5402,3.8342,.9069,7.6999,1.4994,11.5245,.131,.8458,1.3734,.793,1.343-.0861-.1351-3.9226-.6574-7.8782-1.1717-11.768Z"/><path class="b" d="M559.703,120.6626c-.5069-4.5347-2.7613-8.7651-6.346-11.6155-1.1272-.8993-2.4699-1.7352-3.1036-3.1031-.6078-1.3302-.4814-2.9006-.5318-4.3194-.076-2.2549-.583-4.3193-1.8873-6.1813-2.6599-3.8379-7.0932-5.852-10.7162-8.6135-4.4458-3.3817-8.0051-7.9036-10.2218-13.0338-1.9759-4.5726-3.1035-9.5253-5.7381-13.7939-2.6345-4.2816-6.8145-6.9032-11.6529-8.0687-10.4753-2.5206-23.1928,1.1272-29.9571,9.7407-3.5842,1.2411-9.8163,4.9779-7.8026,9.3606,.8869,1.9506,3.2933,2.6092,5.2442,2.7613,2.1659,.1518,4.2561-.3293,6.1434-1.3425,.5951,1.3934,2.0392,2.2927,3.6096,2.5331,1.2795,.1904,2.5713-.1772,3.7368-.6837,1.3427-.5829,3.1161-2.1027,4.5851-1.7862,1.3809,.3039,2.736,1.6973,3.9773,2.4066,1.3938,.7855,2.8631,1.4316,4.383,1.9506,2.4952,.8486,5.9534,1.8748,8.5756,1.1909,.785-.2154,.6581-1.1909,.0756-1.5202,.2283-.4304,.4939-.8104,.7979-1.1272,.1397-.0507,.2914-.1014,.4307-.1268,.1776-.0503,.3672-.0756,.5576-.1135,2.6434-.3584,5.3577,1.0753,6.3606,3.6484,.1168,1.0553,.1161,2.1297-.0399,3.1688-.0649,.4342-.1584,.8649-.2682,1.2916-.6029,.6569-1.3309,1.1638-1.5176,2.1006-.2158,1.0511,.3542,2.2415,.6581,3.217,.7726,2.4192,1.5332,4.8642,2.6475,7.144,1.0387,2.1027,2.3306,4.0663,3.9896,5.7381,1.7102,1.7099,3.8129,2.9639,5.6749,4.484,2.1664,1.7735,3.4329,3.7747,4.0284,6.5232,.595,2.7106,1.0004,5.4467,1.7097,8.1449,1.4313,5.459,3.5464,10.7157,6.1813,15.6938-.1521-.0126-.3167-.0379-.469-.0503-.5318-.0637-1.1269,.2279-1.2029,.8104-.2283,1.5073,.2153,2.7868,1.3551,3.8,.456,.3926,1.355,.2911,1.5708-.3293,.1896-.5318,.2911-.9625,.2786-1.4694,8.9681-1.0641,15.8967-9.2721,14.8834-18.4298Z"/><path class="f" d="M558.0052,161.715c-.4681,1.482-1.7352,2.4067-3.1917,2.8499-2.0266,.6079-4.2558,.4686-6.346,.5323-2.5206,.0632-5.0158,.2786-7.5368,.4304-10.3865,.6332-20.7857,1.6211-31.1089,2.9514-5.1302,.6586-10.2476,1.3427-15.3902,1.7988-4.8512,.4179-9.8292,.8108-14.6809,.2153-7.5489-.9248-14.8325-5.8902-17.1756-13.3632-2.4574-7.8533,1.4948-17.5814,4.8004-24.6494,4.497-9.5888,13.085-23.7499,24.4216-25.9412,2.1913-.4309,4.3825-.8741,6.5613-1.3173-3.8254,2.0515-7.2329,5.8008-5.5227,10.2217,1.9127,4.9527,8.1573,5.4337,12.4135,3.6733,2.8624-1.203,5.4213-3.0903,7.9543-4.8641,2.9264-2.0392,5.8138-4.1544,8.6517-6.3207,1.6336-1.2536,3.6479-2.6599,4.2174-4.7244,5.6621,1.4695,10.8176,4.5349,14.9341,9.677,10.0446,12.515,11.8185,28.0186,16.1504,42.8513,.5442,1.8624,1.4818,4.0154,.8481,5.9788Z"/><path class="e" d="M526.0726,103.2079c-.5695,2.0645-2.5838,3.4708-4.2174,4.7244-2.838,2.1664-5.7253,4.2816-8.6517,6.3207-2.5331,1.7738-5.092,3.6611-7.9543,4.8641-4.2561,1.7604-10.5008,1.2794-12.4135-3.6733-1.7102-4.4209,1.6973-8.1701,5.5227-10.2217,3.2678-.6716,6.5232-1.3685,9.7914-2.0525,6.1306-1.2665,12.2866-1.4058,17.9228,.0382Z"/><path class="e" d="M510.7718,142.1323c-.2028,4.8009-2.6475,9.3102-4.763,13.5153-1.1527,2.2927-2.2545,4.6995-3.6226,6.8654-.8993,1.4188-2.1405,1.5709-3.407,.4816-3.129-2.736-5.4849-6.2829-8.1452-9.4496-1.393-1.659-2.8874-3.2424-4.5976-4.5726-1.9002-1.4948-4.0916-2.4952-6.2953-3.4578-2.5206-1.1148-5.0412-2.2166-7.5619-3.3314-1.7609-.7726-4.1168-1.4058-4.9784-3.3061-.8993-1.9506-.8865-4.5851-.7597-6.6753,.1393-2.2166,.6079-4.3826,1.482-6.4217,.1521-.3676,.5322-.4437,.8611-.3423,1.7355-1.6211,4.2561-2.1027,6.4853-2.5966,5.1048-1.1272,10.45-1.9127,15.5295-.2533,4.6865,1.5202,7.8911,5.4088,11.2987,8.7528,1.9505,1.9252,3.9139,3.8379,5.8774,5.7381,1.5704,1.4944,2.6977,2.7738,2.5966,5.0537Z"/><path class="e" d="M491.607,131.8344c-1.4944,.2786-3.0271-.0632-4.4333-.5955-.697-.2532-1.3556-.6964-2.065-.8993-1.6083-.4686-2.2038,.6209-3.1414,1.6595-1.3805,1.5202-2.6724,3.2554-4.2305,4.5855-.9243,.7979-1.7717,2.3415-3.0003,1.9106-3.0147-1.0639-2.1676-5.6853-2.6109-8.0666-1.3551,.6333-2.9768,.6333-4.2811-.279-1.178-.8229-1.7734-2.1659-1.7734-3.521-1.6595,.2786-2.8787,.2674-3.803-1.2653-1.6849-2.8121,.0902-7.1173,2.0283-9.4355,1.8366-2.2038,3.4719-3.8661,6.3218-4.1701,3.3822-.3671,6.7515,1.0641,9.8292,2.242,3.319,1.2795,6.5615,2.7739,9.4621,4.8263,2.432,1.7227,5.1298,4.0658,5.5353,7.2071,.3546,2.6599-1.1144,5.282-3.8379,5.8013Z"/><path class="d" d="M437.3556,122.0235c-17.1836,1.1647-34.3285,3.0924-51.5121,4.4254-13.7549,1.0741-27.5221,1.889-41.3028,2.3418-.4141-3.9335-.8153-7.867-1.1904-11.801-1.7601-18.542-2.575-37.0974-3.8042-55.6785-.2458-3.7135-.5439-7.4275-.919-11.1278,22.7346-.5051,45.4567-1.1388,68.1912-1.8508,9.8209-.3106,19.6423-.6341,29.4636-.9704,.013,2.1222,.0516,4.2441,.0774,6.3792,.0649,5.5902,.1165,11.1797,.1942,16.7699,.1679,11.2962,.3235,22.579,.4914,33.8752,.0777,5.8749,.1684,11.7624,.3107,17.6368Z"/><path class="g" d="M375.3148,71.5115c-1.5717-.8641-3.63,.2818-5.0741,.9655-1.6661,.7879-3.2982,1.6624-4.8441,2.6686-2.9664,1.9311-5.7532,4.1589-8.2642,6.6546-.899,.8936-.7132,2.6678,.2619,3.4237,4.4877,3.4803,9.1295,6.6562,14.3125,9.028,2.6141,1.1958,4.5726-2.835,1.9426-4.03-3.9393-1.7901-7.7452-4.0342-11.062-6.8434,1.798-1.5464,3.6845-2.9796,5.672-4.2853,1.3177-.8653,2.6554-1.6952,4.0151-2.4931,1.445-.8488,3.4516-1.5959,3.8965-3.3797,.1738-.6964-.2674-1.3855-.8562-1.7089Z"/><path class="g" d="M393.7899,65.1272c-.1679-.264-.526-.3739-.8179-.2779-.5958,.1972-1.0457,.2358-1.5194,.7003-.5267,.5167-.8166,1.3588-1.1255,2.0078-.7077,1.4878-1.339,3.001-1.9236,4.5423-1.1704,3.0845-2.3613,6.1618-3.5551,9.2372-1.1951,3.0782-2.4125,6.1468-3.6047,9.2258-.5976,1.5435-1.1713,3.094-1.7331,4.6509-.2811,.7788-.5626,1.5576-.8458,2.3359-.1413,.3893-.2832,.7784-.4253,1.1672-.3281,.5384-.363,.7123-.1052,.5218-1.2366,.8254-.938,3.1027,.6665,3.2891,1.6209,.1879,2.3664-.7293,3.0317-2.079,.8183-1.6603,1.5909-3.3526,2.3506-5.0404,1.5231-3.3838,2.8744-6.8467,4.2179-10.3041,1.3081-3.3677,2.5684-6.7523,3.7942-10.1507,.6233-1.7273,1.2516-3.4607,1.7331-5.2345,.237-.8728,.5339-1.7851,.5742-2.6924,.037-.8283-.2865-1.2292-.7127-1.8994Z"/><path class="g" d="M416.9245,78.7511c-3.0087-1.4604-5.9148-3.1968-8.8725-4.7631-1.4532-.77-2.9422-1.4678-4.4316-2.1647-1.3897-.6499-3.1652-1.7664-4.724-1.7148-1.0736,.0358-1.5306,1.2549-1.0308,2.0953,.4349,.7309,1.2062,1.133,1.8927,1.6083,.7248,.5023,1.4637,.9713,2.2083,1.4429,1.3955,.8836,2.7931,1.7655,4.2312,2.5792,1.9186,1.0853,3.8836,2.1168,5.8184,3.1908-3.7136,2.924-7.3843,5.936-10.8992,9.0749-.7625,.6816-.5804,2.0595,.0395,2.7357,.6737,.7355,1.8579,.9788,2.7124,.3563,4.5735-3.3319,9.0081-6.9531,13.3312-10.6027,1.2453-1.0516,1.3634-3.0424-.2758-3.8382Z"/><path class="b" d="M491.6702,147.8073c-1.0258,2.3429-4.1289,3.1663-6.2825,4.0025-3.3314,1.292-6.7006,2.4953-10.1078,3.5847-3.1668,1.0134-6.3713,2.0141-9.6521,2.6345-3.3314,.6079-6.6629,.5955-10.0321,.4686-7.2707-.2656-14.5539-.57-21.8244-.8486-7.0808-.2786-14.1614-.4935-21.2422-.8736-2.5838-.1398-5.5227-.3044-7.4862-2.242-.9246-.9248-1.5197-2.1281-1.5954-3.3693-.393-.3423-.6212-.8616-.4183-1.4699,1.9629-5.687,7.904-8.3723,13.0342-10.5765,3.4324-1.4818,6.8778-2.7866,10.6018-3.2678,3.8886-.5064,7.8275-.2785,11.7166-.0635,14.06,.76,28.0436,2.5459,41.8379,5.3073,2.9638,.583,6.2699,.9248,9.0567,2.1028,1.8241,.76,3.2931,2.5842,2.3938,4.6109Z"/><path class="b" d="M493.1629,124.2743c-3.2728-2.5485-6.6973-4.776-11.0392-4.0512-3.8479,.6425-7.0225,3.1755-8.9481,6.5115-.9809,1.6994-1.6283,3.6266-1.9494,5.5593-.3131,1.8902-.3679,4.0503,.7879,5.6886,.9976,1.4134,2.815,2.2915,4.5211,1.7202,1.842-.6167,2.692-2.4745,3.2952-4.1598,.6691-1.8673,1.5095-3.3172,3.5119-3.8998,1.872-.5447,3.2599,.1335,4.8728,.9776,.7544,.3946,1.5444-.5576,1.0758-1.242-1.4678-2.1443-4.9527-2.2966-7.1681-1.4237-1.2466,.4914-2.3438,1.3039-3.0857,2.4278-.9438,1.4295-1.0876,3.3382-2.217,4.6417-1.4104,1.6278-3.2229,.2062-3.5619-1.5169-.3268-1.6587,.1535-3.5942,.6944-5.163,1.1098-3.2175,3.3585-6.142,6.5852-7.4276,1.8399-.733,3.8017-1.0424,5.7539-.6025,2.1817,.4911,4.1252,1.7983,5.9431,3.0417,.7385,.5048,1.667-.5069,.9281-1.082Z"/><path class="b" d="M494.4956,121.9637c-2.882-3.2371-5.9718-6.5369-10.2118-7.9119-2.1031-.6824-4.3818-.8795-6.5834-.9639-1.9659-.0756-4.0209,.1065-5.7702,1.0811-1.8415,1.0258-2.9892,2.8482-3.9139,4.6816-1.0216,2.0241-1.9397,4.2582-2.3752,6.4932-.3609,1.8508-.237,3.9165,1.1742,5.3144,1.1451,1.1346,2.931,1.6133,4.3663,.7148,1.9464-1.2192,2.6005-3.9693,3.662-5.8658,1.1955-2.1352,3.6628-4.5581,6.2587-3.0454,1.013,.59,1.7976-1.0507,.7909-1.6408-1.6741-.9809-3.6466-.7592-5.3036,.1572-1.9311,1.0678-3.0717,2.9913-4.0209,4.9111-.5318,1.0749-.9614,2.3252-1.7136,3.2703-.9506,1.1946-2.3343,.9464-3.1044-.3072-1.3435-2.1872,.4383-5.8234,1.3576-7.8778,1.0253-2.292,2.2299-4.7768,4.7692-5.6397,2.3082-.7846,5.0412-.4432,7.4052-.1222,5.2104,.7076,8.7914,4.1863,12.3103,7.8026,.6312,.6481,1.4799-.4033,.9023-1.0516Z"/><path class="b" d="M479.4006,113.277c-2.2495-1.1148-4.5951-2.2145-7.134-2.4045-2.4583-.1838-4.6724,.6286-6.4983,2.2669-3.1317,2.8108-5.9746,7.7236-4.3351,12.0068,.4079,1.0657,1.1318,2.1306,2.2836,2.4628,1.086,.3135,2.3489-.0465,2.691-1.1953,.2096-.7028-.6569-1.0541-1.1734-.7781-.3991,.2133-.706,.4395-1.1704,.2304-.4495-.2025-.7293-.7285-.9127-1.1551-.4233-.9846-.5056-2.1006-.3484-3.1526,.3326-2.2275,1.548-4.252,2.9975-5.9352,1.5031-1.746,3.3626-3.0617,5.7373-3.1252,2.526-.0674,5.006,1.0079,7.2783,1.9917,.792,.3426,1.3655-.8258,.5846-1.2125Z"/><path class="b" d="M469.3514,147.9211c.0507,3.0399-3.1157,5.4844-6.0542,5.9913-2.6473,.4433-5.4466,.0507-8.1069-.1014-2.9385-.1647-5.8899-.3293-8.8284-.494-10.5262-.6079-21.0522-1.2541-31.5654-1.8745-2.6346-.1521-5.2695-.3039-7.9041-.469-2.2927-.1263-4.7751-.0379-7.03-.5442-4.408-1.0009-5.2949-6.055-6.6753-9.7153-3.7115-9.8421-7.448-19.6714-11.0704-29.5388-1.4316-3.8761-3.9268-8.6766-2.1788-12.8442,2.0271-4.8317,8.5037-4.5922,12.8289-4.4001,6.6529,.2956,13.3265,.2749,19.9903,.5244,8.4612,.3169,16.9103,.8104,25.3587,1.4818,2.2927,.1776,4.5851,.3677,6.8778,.5826,1.6978,.1521,3.4582,.2028,5.0923,.7348,3.3315,1.1023,4.4333,4.3572,5.5481,7.3593,3.0017,8.1066,6.0167,16.2136,9.0184,24.3201,1.4063,3.7872,2.9768,7.5619,4.1926,11.4255,.7725,2.4445,1.2416,5.1174,.5065,7.5619Z"/><path class="d" d="M422.4838,126.1408c.0482,1.0129-.2802,1.9988-1.1385,2.8054-3.5668,3.3515-9.8351-.6562-8.3593-5.3081,1.8682-5.887,9.2612-2.4375,9.4978,2.5027Z"/><path class="b" d="M497.8282,145.2779c-3.7912-.4091-5.8636-3.7535-7.4479-6.8745-1.6325-3.215-3.215-6.7078-6.568-8.4571-.8807-.4595-1.492,.8769-.6616,1.373,3.3456,1.998,4.4916,6.0171,6.2292,9.2512,1.6923,3.1485,4.4467,6.5015,8.3282,6.5681,1.0578,.0183,1.1829-1.746,.1201-1.8608Z"/><path class="b" d="M511.4051,138.6362c-.3423,.57-.684,1.153-1.0262,1.7355-1.2288-1.368-2.4704-2.7231-3.7369-4.0661-4.5343-4.8005-9.3984-9.2846-14.0218-13.9835-.6079-.6209,.19-1.5709,.8741-1.0262,5.3198,4.1672,10.1078,9.0567,14.7565,13.946,1.0641,1.1144,2.1155,2.2546,3.1543,3.3943Z"/><path class="e" d="M382.3952,265.5309c-2.8375,.3676-5.6746,.1393-8.5249-.0761-2.9006,.2914-5.8138,.3297-8.7528,.1139-.1139,0-.19,0-.2785-.0125-1.0765,0-1.9885-.3039-2.6217-1.2411-1.0009-1.4823-1.6471-3.3822-2.3311-5.0288-1.6087-3.8886-2.9259-7.8915-3.9268-11.9827-.5064-2.052-2.5963-7.8403,1.0769-8.0308,2.8375-2.8121,7.2455-3.8628,11.0202-3.2424,5.0158,.8358,9.1705,4.1672,12.4259,7.8915,1.8237,2.0899,3.4324,4.3697,5.0795,6.6117,1.4943,2.065,3.331,4.104,4.2054,6.5486,1.8362,5.1555-2.9771,7.8661-7.3722,8.4487Z"/><path class="b" d="M399.573,265.6406c-.3421,.0125-.672,.0254-1.0134,.0379-11.1976,.4686-22.3948,.8358-33.605,1.1272-.2283-.57-.4432-1.1397-.6457-1.7097,11.5768-.3044,23.1546-.6969,34.7319-1.1905,.1771,.5826,.3546,1.1523,.5322,1.7352Z"/><path class="b" d="M549.097,236.8856c-.4681,2.9556-1.4099,5.8158-3.2208,8.5174-4.6869,6.991-13.3053,10.1274-21.2563,11.6213-15.6704,2.9452-32.0042,2.8504-47.8692,4.0687-25.0673,1.9255-50.1728,3.395-75.2908,4.4586-.6332,.0382-1.2536,.0637-1.8869,.089-.1776-.5829-.3551-1.1525-.5322-1.7352-3.4329-10.9061-6.7511-21.8501-9.9432-32.8324-.1523-.5447-.3169-1.0895-.4691-1.6466,.5069-.114,1.0137-.2279,1.5202-.3423,.8993-.2149,1.8113-.4304,2.7106-.6332l43.396-9.9686c14.4271-3.3185,28.829-6.941,43.358-9.8799,.7979-.1647,1.6088-.3169,2.4062-.4816,.1901-1.2536,.3801-2.4952,.5447-3.7493,1.1784-8.5498,2.356-17.1126,3.5215-25.6622,.0507-.3169,.3206-.7207,.6457-.7348,13.4601-.5918,56.6485,3.2619,56.7671,3.6703,2.5022,8.6312,3.6998,14.386,4.6191,23.9903,.6133,6.4067,1.0765,12.8351,1.2707,19.2693,.1223,4.0607,.323,8.1028-.2916,11.981Z"/><path class="f" d="M542.5648,139.6878c-.2025,6.2699-.7597,12.5526-1.7352,18.7594-.0125,.1265-.0254,.2533-.0507,.3801-.114,.7218-.2404,1.4566-.3672,2.1784-.3169,1.6844-.7348,3.2554-1.3048,4.7881-.8233,2.1913-1.9759,4.3576-3.6733,6.3334-6.9922,8.1952-18.8988,5.6367-27.2714,.2661-3.4831-2.242-6.5739-4.953-9.4239-7.917-.456-.4432-.8869-.8993-1.2918-1.368,.3418-.5825,.6965-1.1525,1.0511-1.7352,.5069-.8237,1.0004-1.6466,1.482-2.4827,1.4311-2.4703,2.8503-4.9527,4.2686-7.448,2.0774-3.6482,4.0154-7.4229,6.1307-11.0708,.3421-.5825,.6839-1.1655,1.0262-1.7355,.3035,.3421,.6079,.6715,.8993,1.0137,.0125-.8741,.0507-1.7356,.0761-2.5967,.012-.4183,.0374-.8362,.0503-1.2541,.2028-4.5979,.7218-9.1835,1.8619-13.6421,1.6595-6.5864,4.8512-14.0218,11.9957-16.0613,6.6878-1.9127,12.3368,2.9261,14.465,8.981,1.2923,3.6603,1.5073,7.625,1.7102,11.4633,.2154,4.3826,.2532,8.7652,.1011,13.1478Z"/><path class="b" d="M498.4977,161.3733c-.3546,.5826-.7093,1.1527-1.0511,1.7352-4.6109-4.9527-8.7149-10.45-13.085-15.4534-.5318-.6079,.4691-1.4566,1.0391-.9372,4.3572,4.0786,8.0051,8.9045,11.9445,13.3761,.38,.4304,.76,.8486,1.1525,1.2794Z"/><path class="b" d="M519.2206,76.2047c-1.388-1.4532-3.7123-2.0587-5.578-1.2195-2.0341,.9151-3.0657,3.0815-3.6005,5.1297-.2362,.9044,1.1251,1.1251,1.3983,.2732,.4249-1.3251,1.1185-2.7447,2.3206-3.5247,1.2923-.8386,2.9298-.5826,4.04,.4453,2.2504,2.0836,1.4566,5.6883-.6332,7.5364-.5368,.474-1.1672,.8625-1.8367,1.1148-.7904,.2977-1.5368,.2574-2.351,.388-.9559,.153-1.0146,1.3583-.106,1.6453,.8607,.2723,1.9685,.0207,2.8026-.2524,.8557-.2798,1.6778-.7297,2.3775-1.2952,1.4471-1.1697,2.539-2.8125,2.8475-4.6682,.331-1.993-.2823-4.1082-1.6811-5.5727Z"/><path class="b" d="M516.7994,78.7569c-.1277-.2579-.3967-.4209-.6882-.4042-.6357,.0354-1.2461,.4262-1.7471,.8042-.4932,.3725-.9539,.8004-1.3527,1.2732-.7851,.9318-1.3455,2.0287-1.6483,3.2075-.0948,.3676,.1979,.7546,.5551,.8241,.4046,.0791,.7127-.1909,.8242-.5551,.0498-.1637,.1355-.3979,.2469-.6483,.1044-.2349,.2217-.4636,.3505-.686,.2258-.3576,.3002-.4632,.378-.5667,.1546-.2054,.3202-.4026,.4951-.5905,.0874-.0944,.178-.1863,.2707-.2756,.3747-.331,.5763-.489,.7884-.6341,.2112-.1447,.4295-.2837,.6507-.4121,.1214-.0703,.247-.1318,.3692-.2,.1589-.0886,.2819-.2246,.4133-.3493,.2037-.1933,.2079-.5563,.094-.7871Z"/><path class="b" d="M515.5594,82.8056c-.0515-.0898-.1056-.1784-.1584-.2674-.1172-.1975-.2328-.3959-.3509-.5926-.232-.3862-.4853-.7609-.7285-1.1406-.2037-.3185-.694-.4241-1.0025-.1958-.1505,.1114-.277,.2707-.3056,.4612-.0033,.3143,.0374,.4332,.1098,.5418,.2,.3995,.3929,.8037,.6016,1.1992,.1039,.1967,.2133,.3909,.3197,.5867,.05,.0911,.0994,.1825,.1493,.2735,.104,.1912,.2782,.3623,.4807,.4486,.2183,.0932,.4349,.0965,.6479-.0091,.1999-.0985,.3721-.2865,.4032-.5172,.0391-.2927-.0186-.5314-.1663-.7883Z"/><path class="b" d="M488.0576,83.9229c-.1609-.2874-.2569-.3656-.3692-.4242-.0012-.0041-.0907-.0906-.1788-.1788-.0782-.0977-.1489-.2016-.21-.3111-.0421-.0985-.077-.1991-.1028-.3035-.0104-.0811-.0225-.1621-.0225-.2449,.0005-.163-.1097-.3755-.2365-.4748-.1193-.0935-.25-.1476-.4012-.1576-.0986-.0063-.1988,.0186-.2953,.0565-.0832-.0109-.1679-.0096-.2557,.0079-.1656,.032-.3373,.1151-.4442,.2516-.1205,.1539-.2141,.3588-.1871,.5593,.1144,.506,.2004,.7621,.3451,1.0137,.1484,.2569,.3597,.4939,.5963,.6723,.0848,.064,.1758,.1151,.2727,.1488,.0856,.0658,.1772,.124,.2686,.1821,.3389,.2096,.5763,.2138,.746,.1568,.1772-.0598,.3639-.2125,.4391-.3876,.0753-.1758,.1065-.3834,.0353-.5667Z"/><path class="b" d="M491.8032,88.999c-.8004-.156-1.0104-.9751-1.0474-1.6902-.0444-.8533,.0407-1.7078-.0004-2.5622-.0795-1.6441-.4196-3.2866-1.1971-4.7473-1.3656-2.5663-4.5228-4.3484-7.3781-3.1426-.8353,.353-.4179,1.6674,.4533,1.3513,1.2869-.4665,2.6524-.1293,3.7638,.6237,1.2308,.8349,1.9531,2.1415,2.3392,3.551,.4251,1.5514,.3247,3.1057,.3298,4.6919,.0037,1.4962,.6699,3.4101,2.4183,3.5561,1.0411,.0869,1.3946-1.4225,.3185-1.6316Z"/><path class="b" d="M505.3784,77.6549c-3.1829-1.9497-7.554-2.1331-10.7602-.1314-.6411,.4-.1172,1.5223,.5988,1.2137,3.0794-1.3276,6.5145-1.3318,9.4304,.4337,.3888,.2349,.9398-.0112,1.1232-.3929,.2133-.4428-.0037-.8849-.3921-1.1232Z"/><path class="b" d="M498.7622,82.3744c-.1859-.4079-.3247-.7688-.464-1.1297-.2117-.2637-.2363-.3373-.3011-.3797-.1298-.0849-.2919-.1418-.4504-.1252-.3351,.0363-.6067,.2661-.6811,.5988-.0453,.2025-.0591,.4209-.0345,.627,.0246,.207,.0695,.4228,.1576,.6137,.057,.1231,.1156,.2491,.1901,.363,.0753,.1152,.1697,.2163,.2619,.3177,.0507,.0558,.1039,.1081,.163,.1547,.1584,.1251,.3472,.1871,.5413,.2341,.2865,.0095,.378-.0167,.4612-.0677,.1414-.07,.2748-.1838,.3388-.3326,.05-.1161,.0737-.2391,.0712-.3647-.0038-.1904-.1173-.3851-.254-.5093Z"/><path class="b" d="M498.2877,90.4398c-.3642-.0012-.5676,.2707-.8013,.4997-.1846,.1705-.2532,.2284-.3235,.2837-.3143,.2486-.6515,.4553-1.0037,.6449-.2153,.0972-.3076,.136-.4004,.1721-.1858,.0723-.3755,.1355-.5672,.1891-.1804,.0503-.3621,.0982-.5455,.1389-.2902,.0503-.4004,.064-.5106,.0753-.3502,.037-.6686,.3434-.6291,.7148,.0407,.3792,.3384,.632,.7148,.6286,.8985-.0083,1.7738-.2195,2.5808-.6133,.4191-.2041,.8209-.4323,1.1921-.716,.2021-.1546,.3946-.3235,.5813-.4969,.2554-.237,.4949-.4807,.4582-.8644-.0382-.3971-.356-.6553-.746-.6565Z"/><path class="b" d="M509.4919,96.0893c-1.3804,1.292-3.217,2.1788-4.9269,2.9763-1.7859,.8233-3.6986,1.4446-5.6749,1.6216-3.6228,.3293-7.2324-.9376-10.0953-3.1289-2.9131-2.2291-4.9272-5.5223-5.966-9.006-.5413-1.8245-3.5638-16.8626-1.5567-17.0114,1.4171-.0998,2.1676,8.8874,2.2999,9.9041,.6528,5.0295,1.4994,9.8949,5.3751,13.5926,2.4827,2.3689,5.8774,3.8761,9.3481,3.6986,1.8869-.1011,3.711-.6711,5.4337-1.4436,1.6595-.7477,3.154-1.9002,4.8516-2.546,.7472-.2914,1.5198,.7597,.9114,1.3427Z"/><path class="e" d="M433.7967,217.423c-1.8246,2.4446-3.6612,4.8642-5.4725,7.3087-3.1285,4.2561-6.1178,8.6133-9.2467,12.8821-.2279,.5955-.4179,1.2034-.519,1.8366-.1397,.7726-1.1023,1.0765-1.6848,.5826-5.4467-4.6105-12.1349-7.2201-18.1386-10.969-2.6222-1.6341-5.7257-3.5598-7.4987-6.1436-2.0266-2.9638-.38-6.3082,1.3302-8.9552,1.8236-3.3696,4.0279-6.5106,6.6245-9.3481,.5951-.8865,1.1905-1.7604,1.786-2.6475,.1139-.2786,.2283-.57,.3546-.8357,1.0134-2.2043,2.6599-3.9777,4.3698-5.6621,.165-.3421,.3421-.6969,.5451-1.0262,1.0511-1.8113,2.9006-3.2175,5.0665-2.5206,1.4313,.4686,2.7738,1.5074,4.0403,2.2927,1.1402,.7095,2.2674,1.4058,3.3822,2.1153,2.1281,1.3301,4.2309,2.6982,6.2699,4.18,2.0774,1.5073,4.104,3.1285,5.8774,5.0034,1.6213,1.7102,3.3693,3.6101,4.1926,5.8646,.8615,2.3181,.1268,4.1547-1.279,6.042Z"/><path class="e" d="M435.3306,218.5839c-.4562,.5702-.9123,1.1527-1.3427,1.7227-.38,.4558-.7348,.9119-1.0765,1.3681-4.5726,5.8645-9.006,11.818-13.3,17.8849-.4939-.3671-.9755-.7346-1.4566-1.1143,4.3444-6.1311,8.8412-12.1473,13.4642-18.0754,.3547-.4562,.7093-.9119,1.0769-1.3681,.4051-.5446,.8358-1.0765,1.2541-1.6087,.7344-.9248,2.1023,.2661,1.3805,1.1908Z"/><path class="b" d="M547.7045,242.4109c-7.6882,14.9327-27.71,14.6164-33.2453,13.1216-11.7673-3.1792-21.4193-11.6152-29.8298-20.0515-7.2962-7.3086-14.2502-15.0351-21.0523-22.8381-5.4595,7.2961-10.7539,14.7191-15.8962,22.2431-.2536,.3671-.9122,.3925-1.229,.0885-4.5851-4.3572-9.107-8.7905-13.5403-13.2999-.4437-.4309-.8741-.8616-1.2923-1.3048-2.5585-2.5967-5.092-5.2313-7.5872-7.8912-3.5589-3.7747-7.068-7.6126-10.5258-11.4887-2.141-2.4067-4.3447-4.8134-6.4475-7.2962-.4054-.4814-.8108-.9625-1.2034-1.4436,.3547-.4944,.7095-.9755,1.0512-1.4699,.6207-.8612,1.2287-1.7099,1.8366-2.571l12.4259-17.4422c3.4454-4.8383,6.7768-9.8292,10.7415-14.2625,3.4454-3.8379,7.4733-7.3464,12.3245-9.2721,5.8018-2.2927,12.0463-1.7352,17.9616-.2025,5.8899,1.5451,11.6027,3.7493,16.3399,7.6505,8.4405,6.9506,15.6418,15.319,23.6781,22.7283,10.03,9.2475,20.5461,18.4872,32.2448,25.5608,5.2667,3.1685,7.7906,6.4571,10.7523,11.8983,2.5768,4.7339,4.1136,24.3945,2.4927,27.543Z"/><path class="b" d="M407.0587,193.6938c-.3169,.4309-.6207,.8616-.9248,1.292-4.9019,6.8778-9.7785,13.7944-14.7057,20.6597-.4562-.4184-.8995-.8362-1.3432-1.2795,5.2317-7.3976,10.5137-14.7569,15.7703-22.1158,.3926,.4811,.7979,.9622,1.2034,1.4436Z"/><path class="f" d="M419.6114,239.5596c-.3169,.4437-.6337,.887-.9376,1.3427-1.0641,1.5073-2.1152,3.015-3.141,4.5223-.494-.38-.9884-.76-1.482-1.1276-3.9651-3.0271-7.8915-6.0924-11.717-9.3098-4.3697-3.6608-8.6637-7.3973-12.8821-11.2227-.4179-.38-.8104-.7348-1.2158-1.1272-.393-.3293-.7597-.6839-1.1401-1.0132-.4179-.393-.8483-.7855-1.2665-1.1905,1.1272-1.6087,2.2549-3.2175,3.3821-4.8262,.2911-.4179,.5825-.8233,.8736-1.2412,.4437,.4433,.887,.8611,1.3432,1.2795,.7853,.7472,1.5704,1.4815,2.3559,2.2166,7.8026,7.245,15.9469,14.0975,24.3708,20.5832,.4811,.3797,.9626,.7472,1.4566,1.1143Z"/><path class="b" d="M389.0976,231.0731c-1.4441,.3293-2.8754,.6586-4.3194,.9879-9.5128,2.1788-19.0127,4.5472-28.6141,6.3843-.2153-.5323-.4562-1.0516-.7348-1.5581,11.1087-2.2549,22.1542-4.8894,33.1992-7.4607,.1523,.5571,.3169,1.1018,.4691,1.6466Z"/><path class="b" d="M358.1147,266.9833c-9.8418,.2404-19.7092,.5697-29.5513,.5447-.2154-.5955-.4179-1.1909-.6333-1.7988-6.422-18.4048-12.5273-36.9106-18.3411-55.5432-.4433-1.4441-.8995-2.8754-1.3302-4.3194-.2025-.6079-.38-1.2287-.5697-1.8366,7.9166,.9118,15.4913,5.2948,20.7225,10.8171,3.5971,3.7747,6.7261,7.9548,9.8925,12.0841,2.9638,3.8508,5.9152,7.6887,8.8667,11.5394,1.0894-.1904,2.1787-.3929,3.2682-.6083,.1139,.5193,.2407,1.0516,.3676,1.5709,2.0645,8.6512,4.3189,17.2647,6.8017,25.802,.1518,.5825,.3293,1.165,.5065,1.748Z"/><path class="f" d="M328.5634,267.528c-.5065,0-1.0004,0-1.5069-.013-1.3555,0-2.711-.0125-4.0665-.0378-.6458-.013-1.292-.0254-1.9253-.0508-.1393-.4814-.2785-.9755-.4304-1.4566-2.9514-10.0197-5.9913-20.026-9.1332-29.9949-3.2042-10.1839-6.7889-20.2539-9.8416-30.4757-.1523-.469-.2914-.9376-.4179-1.4062,.5065-.0761,1.0134-.1393,1.5197-.1647,1.1277-.0885,2.255-.1014,3.3822-.0378,.5193,.0378,1.0258,.076,1.5455,.1393,.1896,.6079,.3672,1.2287,.5697,1.8366,.4307,1.4441,.8869,2.8754,1.3302,4.3194,5.8138,18.6327,11.9191,37.1385,18.3411,55.5432,.2154,.6079,.4179,1.2034,.6333,1.7988Z"/><path class="f" d="M364.9546,266.8057c-.5825,.0254-1.165,.0379-1.748,.0507-1.1527,.0379-2.3052,.0632-3.4578,.0886-.1647,0-.3293,.0128-.494,.0128-.38,.0126-.76,.0126-1.1401,.0254-.1772-.583-.3547-1.1655-.5065-1.748-2.4827-8.5373-4.7372-17.1508-6.8017-25.802-.1268-.5193-.2537-1.0516-.3676-1.5709,.4686-.0756,.9372-.1646,1.4058-.2656,.7476-.1393,1.4818-.2916,2.2291-.4433,.4562-.076,.8995-.1776,1.3555-.2661,.2786,.5065,.5194,1.0258,.7348,1.5581,1.0765,2.5584,1.6844,5.3451,2.4192,7.9926,.9501,3.4324,1.9127,6.8654,2.9514,10.2853,.8616,2.8117,1.7609,5.6109,2.7743,8.3727,.2025,.57,.4174,1.1397,.6457,1.7097Z"/><path class="f" d="M399.18,270.8466c-.3039,.4939-.5953,.9879-.8869,1.4818-.4557,.7472-.9118,1.5074-1.3551,2.2674-.2402,.4049-.5825,.5572-1.0511,.5193-4.7755-.3546-8.7149-3.2554-12.2359-6.2699-7.8915-6.7768-15.6564-13.7307-23.3953-20.6722-3.8761-3.4707-7.7394-6.9415-11.5901-10.4371-3.8384-3.4708-7.9041-6.8401-11.4002-10.6525-.2656-.2916-.2656-.6462-.1263-.9123,0-.1393,.0253-.2916,.0886-.4433,.3418-.8362,.8232-1.5959,1.3934-2.2673,.3293-.393,.6839-.7602,1.0764-1.0895,.507,.4562,1.0134,.8995,1.5327,1.3302,2.7743,2.4067,5.5606,4.8134,8.3598,7.1947,11.7294,10.0318,23.6868,19.8106,35.8342,29.3359,4.0533,3.1792,8.1323,6.3332,12.2234,9.4493,.5069,.4053,1.0257,.7983,1.5326,1.1655Z"/><path class="b" d="M504.7821,107.4678c-.1472-1.3081-.5779-2.5909-.928-3.8582l-1.1597-4.1975c-.2749-.9934-1.808-.4737-1.5685,.5035,.3272,1.3367,.6562,2.6731,.9846,4.0096-1.4508,.3276-2.904,.6481-4.3305,1.0678-.3181,.0935-.5077,.4523-.4409,.7667,.064,.2998,.3626,.5979,.6977,.543,1.4895-.2441,2.9597-.5858,4.4309-.9239,.079,.3223,.1581,.6449,.2374,.9676,.2151,.8762,.4391,1.8824,.1268,2.7618-.2088,.5888-.8162,1.3015-1.5422,1.2303-1.1946-.1168-1.5601,1.6495-.3593,1.7614,1.1725,.1085,2.2504-.3402,2.9789-1.2362,.7904-.9721,1.0083-2.1904,.8727-3.3959Z"/><path class="b" d="M415.5329,245.4246c-.3676,.5193-.7223,1.0388-1.0765,1.5581-5.3202,7.8026-10.4127,15.7569-15.2763,23.8639-.5069-.3672-1.0257-.7602-1.5326-1.1655-4.0912-3.1161-8.1701-6.27-12.2234-9.4493-12.1473-9.5253-24.1048-19.3041-35.8342-29.3359-2.7992-2.3813-5.5855-4.7879-8.3598-7.1947-.5193-.4307-1.0257-.8741-1.5327-1.3302,1.7481-1.5201,4.028-2.4822,6.27-3.0021,4.6486-1.0765,9.4367-.6965,14.1362-.2911,5.1297,.4304,10.2599,.8993,15.2759,2.1152,2.8499,.6969,5.7883,1.5834,8.7144,1.7481,.2916-.4309,.583-.8488,.8741-1.2665,.2914-.4184,.583-.8237,.8616-1.2412,.4183,.4051,.8486,.7976,1.2665,1.1905,.3804,.3293,.7471,.6839,1.1272,1.0132,.4183,.3925,.8108,.7472,1.2287,1.1272,4.2184,3.8254,8.5124,7.5619,12.8821,11.2227,3.8254,3.2175,7.7519,6.2827,11.717,9.3098,.4935,.3676,.9879,.7476,1.482,1.1276Z"/><path class="b" d="M520.2352,257.3436c-.3676,.3801-.9248,.3676-1.3176,.1268,.4436-.0378,.8744-.0886,1.3176-.1268Z"/><path class="f" d="M465.4878,207.7194c-6.8671,8.0088-13.2696,16.4663-18.8809,25.407-5.8616-6.9901-12.3157-13.4779-18.9882-19.6885-7.2192-6.7198-13.9827-13.712-19.9341-21.5982-.7318-.9704-2.2982,.0666-1.5759,1.0612,5.7323,7.894,12.4017,14.8529,19.5199,21.4984,7.2692,6.7868,14.0838,13.9432,20.7201,21.3466,.6965,.7771,2.0192-.3635,1.4553-1.1967,5.9139-8.8791,12.2056-17.4642,19.1715-25.5538,.8217-.9543-.6644-2.2362-1.4876-1.276Z"/><path class="f" d="M519.8197,255.3507c-11.2973-1.8578-21.6219-7.1976-29.6893-15.3132-4.4879-4.5149-8.5993-9.4197-12.8866-14.1233-2.2434-2.4611-4.4866-4.9223-6.7299-7.3834-2.1846-2.3975-4.2803-5.2604-6.8084-7.2915-.729-.5851-1.7451,.2939-1.2313,1.0952,1.4279,2.2262,3.531,4.1635,5.2832,6.142,1.7244,1.948,3.4508,3.894,5.1765,5.8408,3.5144,3.9656,7.0354,7.9231,10.5868,11.8559,3.2263,3.573,6.4957,7.1161,10.2979,10.0907,3.4279,2.6819,7.1829,4.963,11.1448,6.7647,4.6042,2.0936,9.4732,3.5311,14.4734,4.2842,1.2686,.1912,1.6573-1.7523,.3829-1.9618Z"/><path class="d" d="M519.8388,146.608c-1.2873-1.5987-2.8457-3.0428-4.4016-4.4042-1.5423-1.3497-3.1169-2.7343-4.8658-3.81-.6849-.4212-1.2391,.6116-.7306,1.1172,1.4183,1.4092,2.9838,2.6687,4.4228,4.0608,1.4379,1.3913,2.7926,2.8712,4.2338,4.2561,.4378,.4207,1.1967,.2154,1.4457-.3027,.161-.3335,.0861-.6607-.1044-.9174Z"/><path class="b" d="M536.316,103.7414c-.0465-.0012-.2158-.0121-.229-.0109-.1003-.0091-.1996-.0191-.299-.0323,.0244-.3393,.1214-.677,.1027-1.047,.3858-.7114,.5958-1.5048,.536-2.4101-.0981-1.489-1.1634-3.3468-2.6794-3.6307-.136-.1265-.297-.2117-.4703-.2591-.306-.6349-.6827-1.2358-1.086-1.7822-3.0147-4.1293-7.5112-7.2833-12.1852-9.272,.7218-1.3174,1.2536-2.6599,1.5197-3.534,.2154-.7472-1.0511-1.178-1.3044-.4307-.4939,1.4441-1.1655,2.8245-2.0903,4.0537-.6457,.8611-2.3938,3.1285-3.6856,2.1406-.5193-.4051-1.5564-.0895-1.4192,.6948,1.0287,5.8824-9.0509,26.5047,5.3781,23.8697,2.3921-.4367,4.3505-1.8774,6.3652-3.1659,1.496-.3963,3.0849-1.1044,4.5048-2.0358,.4798-.1326,.9618-.2632,1.4453-.4067,.3289-.0977,.6316-.2232,.9351-.3484,1.0546,.2312,2.1294,.3689,3.2089,.3993,.3209,.0823,.5301,.0548,.7301-.0038,.3003-.0041,.6005-.0012,.8995-.0212,.7239-.0474,1.3755-.7267,1.2957-1.4719-.0861-.8021-.6961-1.277-1.4725-1.2953Z"/><path class="d" d="M535.2566,107.1261c-3.0641-1.0195-6.3302-.8969-9.2658,.4969-3.1282,1.4853-5.1814,4.2325-6.4708,7.3826-1.5444,3.7735-2.4246,7.8596-3.5128,11.7798-1.2188,4.3914-2.7157,8.8059-3.5626,13.2859-.1656,.8744,1.1946,1.3962,1.5273,.5076,1.301-3.4728,2.151-7.148,3.1572-10.7148,1.0407-3.6903,2.0299-7.3989,3.124-11.0738,.9397-3.1559,2.2259-6.5124,4.9979-8.5091,2.6222-1.8885,6.102-2.444,9.1719-1.4257,1.1555,.3837,2.0066-1.3393,.8337-1.7294Z"/><path class="b" d="M501.6628,79.9694c-.1419-.0928-.2995-.1602-.4537-.2312-.309-.1418-.6258-.2777-.953-.3739-.5647-.1655-1.1979-.242-1.7801-.1342-.6112,.1131-1.1527,.3626-1.6134,.7842-.4307,.3946-.6146,.9455-.6453,1.5155-.0174,.3307,.3277,.6084,.6288,.6233,.3567,.0175,.6032-.207,.7035-.5372,.1609-.2474,.3363-.4207,.3497-.4346,.753-.333,.8245-.3434,.8973-.3476,.343,.0109,.4491,.0258,.5542,.0461,.2367,.0458,.4645,.1198,.6953,.1884,.3323,.1139,.4462,.1576,.5597,.2025,.3996,.1579,.763,.3014,1.1664,.0386,.197-.1288,.3551-.4029,.3172-.6453-.0465-.3011-.17-.5272-.4265-.6948Z"/><path class="b" d="M488.8065,82.0176c-.0695-.1758-.1493-.3492-.2953-.4765-.0911-.079-.2033-.1467-.3032-.2099-.1226-.0774-.2495-.1386-.3858-.1872-.3776-.1344-.7721-.2004-1.1742-.1639-.4004,.0366-.7651,.1568-1.1165,.3481-.3597,.1949-.6232,.4927-.8428,.8299-.0839,.1294-.086,.3826-.0328,.5211,.0574,.1484,.1472,.2674,.2811,.3547,.267,.1746,.6998,.1579,.9016-.1235,.2357-.2491,.3127-.2956,.3895-.3426,1.3372,.1497,1.4628,.2386,1.6071,.3065,.2561,.1205,.5581,.0735,.7681-.1131,.1974-.1755,.3051-.4856,.2033-.7435Z"/><path class="d" d="M304.5173,48.7689c-.3206-.3504-.7032-.6469-1.0616-.9588-.1718-.1493-.3434-.299-.5156-.4483,.1393-.1314,.2753-.266,.4158-.395,.2712-.2428,.3618-.3214,.4533-.3996,.1056-.0898,.2133-.1776,.3172-.2698,.1318-.1172,.21-.2856,.2977-.4378,.264-.4591-.2628-.951-.7172-.813-.1439,.0437-.2949,.0819-.4237,.163-.0986,.0619-.1896,.1526-.2791,.227-.1846,.1523-.3667,.3077-.5463,.4661-.1974,.1738-.3804,.3621-.5713,.5423-.5767-.5049-1.153-1.0084-1.7606-1.4762-.2686-.207-.6565-.1991-.886,.0677-.237,.2758-.1705,.6433,.0677,.8865,.5193,.5293,1.0686,1.0267,1.62,1.5227-.5214,.5742-1.0354,1.156-1.4965,1.7801-.2021,.2737-.2207,.6914,.0703,.9202,.269,.2107,.6939,.2167,.9206-.0703,.4735-.5992,.9967-1.1559,1.5268-1.706,.1817,.1647,.3639,.3293,.546,.494,.3621,.3281,.7123,.6839,1.1098,.9692,.2969,.213,.7406,.2404,.9883-.0756,.2574-.3281,.1909-.6977-.0756-.9884Z"/><path class="d" d="M312.821,45.3481c-.0691-.4669-.3609-.8216-.7888-.9376-.3169-.0856-.6786-.0498-1.0025-.0444-.3938,.0058-.7876,.0211-1.1809,.0453-.7509,.0461-1.4994,.1276-2.2445,.2383-.18,.027-.3426,.1184-.457,.254-.2986-.3655-1.0404-.3074-1.0769,.2823-.0458,.7435-.0732,1.4869-.0665,2.2325,.0058,.6395-.0479,1.3941,.1451,2.0083,.2291,.7306,.8741,.9962,1.5426,.9355,.6625-.0598,1.3235-.1521,1.9843-.2286,.6707-.0774,1.3435-.1426,2.0129-.2325,.3173-.0428,.6358-.1202,.8625-.3851,.2674-.3118,.2935-.6981,.2944-1.1027,.0012-.6998-.0012-1.3995-.0017-2.099-.0004-.3193,.0242-.6507-.0228-.9663Zm-2.9589,3.3053c-.5442,.0632-1.0881,.126-1.6325,.1888-.2341,.027-.4694,.0635-.7048,.0785-.2574-.9039-.2774-1.9713-.2619-2.9826,.1223,.1011,.269,.166,.4267,.1426,1.0644-.1558,2.1364-.2495,3.2103-.2723,.1972-.0046,.3954-.0009,.593-.0042,.01,.719,.0096,1.302,.0088,1.8849,0,.2581-.0025,.5167-.0005,.775-.5509,.0649-1.0952,.1265-1.639,.1893Z"/><path class="d" d="M322.4626,47.9769c-.5248-.2209-1.1995-.2063-1.7746-.2358-.5771-.0295-1.1567-.0345-1.7352-.027-1.1372,.0141-2.2715,.0906-3.3984,.2225-.4008,.047-.7272,.3181-.7002,.6806,.0246,.3331,.3921,.6383,.7958,.5988,1.1086-.1077,2.2234-.1621,3.3389-.1563,.5589,.003,1.1156,.0254,1.6732,.0516,.5642,.0267,1.1651,.1202,1.7165,.0054,.6344-.1319,.6129-.9169,.0839-1.1397Z"/><path class="f" d="M328.2091,56.3017c-4.1428,.2059-8.2849,.6995-12.4235,.9955-4.1444,.2965-8.2882,.5913-12.4355,.8386-1.1729,.0695-1.0532,1.8658,.1156,1.8158,4.1514-.1758,8.3016-.3816,12.4459-.6727,4.1307-.2903,8.317-.4761,12.4222-1.0196,1.2424-.1642,1.148-2.0204-.1247-1.9576Z"/><path class="f" d="M308.1622,63.9688c-.4041-.3489-.98-.2528-1.4765-.2416-.3604,.0083-.7209,.0167-1.0815,.0246l-2.2466,.0511c-.3975,.0091-.7509,.4096-.7086,.805,.0466,.4383,.3805,.699,.8051,.7086,.7372,.017,1.4744,.0337,2.2112,.0503,.3618,.0083,.7235,.0167,1.0849,.0246,.4228,.0095,.9946,.1088,1.3401-.1859,.378-.3227,.4903-.8757,.0719-1.2366Z"/><path class="f" d="M329.8994,63.3621c-.6188-.3347-1.2953-.2191-1.9785-.1954-.6278,.0221-1.2557,.0445-1.8831,.0661-1.413,.0495-2.8255,.0993-4.2379,.1488-2.7734,.097-5.5435,.2026-8.3141,.3544-1.1264,.0614-1.0016,1.7471,.1107,1.7355,2.7763-.0295,5.5493-.1044,8.3249-.1879,1.3604-.0412,2.721-.0824,4.0819-.1231,.6802-.0204,1.3609-.0411,2.0408-.0616,.7023-.0211,1.3413,.0308,1.9543-.3546,.5351-.3368,.4128-1.1048-.099-1.3822Z"/><path class="f" d="M326.8228,108.3049c-1.7518-.3556-3.8698,.1089-5.6492,.222-2.0254,.1289-4.0507,.2579-6.0761,.3863-4.0442,.2574-8.1157,.4761-12.1412,.9397-1.0104,.1168-.9165,1.5901,.1002,1.5743,4.0521-.0623,8.1173-.3739,12.1606-.6432,2.0246-.1347,4.0496-.2698,6.0745-.4051,1.7734-.1181,3.9482,.0653,5.6339-.513,.7655-.2628,.6902-1.4-.1028-1.5609Z"/><path class="f" d="M309.3586,116.248c-.9913-.1721-2.0374-.0682-3.0399-.0986-.9489-.0291-1.8923-.1335-2.8283-.2906-1.0274-.1726-1.3293,1.365-.3098,1.5871,.9976,.2179,2.0076,.3709,3.0254,.4504,1.0595,.0827,2.2229,.1697,3.2496-.166,.7223-.2358,.662-1.3506-.0969-1.4823Z"/><path class="f" d="M326.1487,115.7406c-3.7958,.3917-7.6175,.4891-11.4317,.4142-.9418-.0183-1.0599,1.5971-.1072,1.6608,3.8919,.2611,7.7759,.1526,11.6563-.2383,1.1783-.1189,1.062-1.9585-.1173-1.8367Z"/><path class="b" d="M530.5155,48.927c-1.0346-.7148-2.1473-1.2886-3.3131-1.736-.5223-.4499-1.0574-.8678-1.5855-1.249-3.1414-2.2674-7.0554-3.724-10.9822-3.2429-3.5087,.4183-6.9032,2.242-8.8414,5.2442-1.8113,2.7866-1.9759,6.3589-.5825,9.3606,.7476,1.5706,1.8748,2.9389,3.3817,3.8254,1.0009,.5955,2.0903,.8993,3.2175,1.0641,.1181,.0503,.2407,.0898,.3602,.1381,.3185,1.0199,1.4436,1.6478,2.4041,2.1452,1.5917,.8245,3.3127,1.4341,5.062,1.8257,3.2147,.7202,6.7224,.6599,9.6804-.9264,2.9801-1.5988,4.9705-5.0712,5.5456-8.341,.6112-3.4745-1.6316-6.2313-4.3468-8.1078Zm1.2229,10.7797c-1.5922,3.282-4.487,4.8812-8.0854,4.9672-1.772,.0424-3.5414-.2225-5.2462-.7006-.2677-.0753-.5297-.168-.7934-.2553,2.5331,.3176,5.1348,.1888,7.4712-.6637,3.3061-1.2158,6.0674-4.18,6.3714-7.7772,.1048-1.2088-.1277-2.3522-.583-3.4196,.7697,.7302,1.4487,1.5783,1.795,2.5264,.6375,1.7439-.1663,3.7501-.9297,5.3227Z"/><path class="b" d="M501.9576,104.6986c-1.1397,1.178-2.7231,1.2918-4.1926,1.7862-1.5201,.5065-2.6091,1.4944-3.6479,2.6853-1.0387,1.178-2.2927,2.3684-3.9393,2.5077-2.8375,.2283-4.3954-2.8624-3.8384-5.3198,.7348-3.2045,3.9015-5.1427,4.4209-8.4233,.1523-.8993,1.4695-.7725,1.5456,.1014,.0378,.3547,.0249,.7093-.0254,1.0512,.6711-.0761,1.3422,.1014,1.8237,.5446,.2153,.0125,.4183,.0379,.6332,.0379,.9755-.0254,1.9381-.2279,2.9136-.3293,1.7097-.1896,3.5847,.1144,4.6358,1.6341,.8237,1.1655,.6586,2.7106-.3293,3.724Z"/><path class="g" d="M474.4367,49.9058c.076,.4814-.4054,1.0262-.8865,1.0134-.3925-.0125-.7855-.0125-1.178-.0379-.1647,.2911-.4309,.5065-.8616,.5447-2.5838,.2153-5.1805,.3797-7.7643,.5446,.0756,.3797,.1393,.7597,.2154,1.1274,.1393,.6586,.2786,1.3297,.4179,1.9887,.2914,1.3427,.57,2.6724,.8486,4.0026,.076,.38,.0253,.7218-.2786,1.0004-.2661,.2407-.7093,.3293-1.0387,.1521-1.6974-.9501-3.2808-2.0903-4.687-3.4328-.7218-.6837-1.393-1.4183-2.0013-2.1913-.2914-.38-.57-.7597-.8358-1.1527-.2407-.3418-.3929-.6965-.5318-1.0641-7.9044,.3676-15.808,.5577-23.7121,.5069-1.5709-.0128-3.1543-.0253-4.7248-.0507-1.2416-.0253-2.8629,.2154-4.0408-.2914-1.0258-.4433-1.3425-1.3934-1.4944-2.4067-.266-1.6211-.4183-3.2549-.5825-4.889-.3293-3.0654-.57-6.1436-.6969-9.2214-.0632-1.6341-.1139-3.2807-.1268-4.9272-.0253-1.3555-.1393-2.7996,.4437-4.0533,.1896-.4054,.6204-.4437,.9372-.2537,.1139-.2025,.3039-.3671,.6079-.4053,8.094-1.2537,16.4921-1.3169,24.6618-1.4691,8.2463-.1521,16.4668-.0128,24.7001,.3547,.5193,.0254,1.1023,.3672,1.0894,.9626-.19,7.9165,.3423,15.8205,1.5198,23.6485Z"/><path class="d" d="M457.2169,29.6922c-.0977-.1555-.2407-.3056-.3788-.4265-1.1027-.9663-2.7248-.4628-3.3057,.7509-1.1676,.6911-2.2336,1.6587-3.1542,2.5963-1.0113,1.03-1.929,2.178-2.7943,3.3301-1.1401,1.5181-2.1684,3.1215-3.0949,4.781-.3597-.4217-.713-.8486-1.0865-1.2586-1.1804-1.2974-2.3763-2.6204-3.953-3.4354-1.2155-.6279-3.0724,.736-2.398,2.1148,.7597,1.5522,1.8811,2.7871,2.951,4.1323,1.0346,1.3006,2.0578,2.605,3.0233,3.9588,1.0058,1.4104,3.2308,1.3319,4.0017-.2877,1.2-2.5198,2.5771-4.8811,4.1954-7.0733,.8354-1.1318,1.7431-2.1904,2.6575-3.257,.7481-.872,1.5771-1.7704,2.2483-2.7335,1.2715-.4441,1.852-1.9755,1.0881-3.1922Z"/></g></svg>