<?xml version="1.0" encoding="UTF-8"?><svg id="a" xmlns="http://www.w3.org/2000/svg" viewBox="0 0 860 300"><defs><style>.b{fill:#032120;}.c{fill:#eaf7ec;}.d{fill:#fff;}.e{fill:#fccfb0;}.f{fill:#96d1cf;}.g{fill:#246bb8;}.h{fill:#52a8ff;}</style></defs><rect class="c" width="860" height="300"/><g><path class="h" d="M272.6403,39.3596c-6.2149,21.7995-11.6254,43.8539-16.8785,65.912-1.4905,6.2597-3.1581,12.5224-4.3728,18.8446-.2165,1.1251,1.4053,1.4191,1.6946,.3371,1.4626-5.4691,2.5877-11.05,3.8946-16.5608,1.3081-5.5173,2.636-11.0293,3.9845-16.5367,2.6963-11.0139,5.4728-22.0078,8.3051-32.986,1.6102-6.2403,3.2402-12.4743,4.8221-18.722,.2397-.9477-1.188-1.2072-1.4497-.2883Z"/><path class="h" d="M273.6703,217.7497c-1.642-5.6377-3.7782-11.1452-5.5086-16.7613-1.7006-5.5198-3.2845-11.0771-4.7507-16.6667-2.9953-11.4198-5.4999-22.9733-7.4937-34.6181-1.1209-6.5451-2.1117-13.1174-2.9618-19.7046-.1215-.9422-1.563-.8587-1.4536,.0946,2.6816,23.3707,7.5717,46.486,14.3282,68.9806,1.9228,6.4014,3.7482,13.0313,6.3411,19.1886,.3977,.9452,1.7922,.4933,1.4991-.5131Z"/><path class="g" d="M485.693,109.3474c-.3985,4.507-1.7161,8.7488-5.3907,11.3646-3.155,2.227-7.1593,2.9691-10.9035,3.3225-11.1461,1.0076-22.5519,.7072-33.7324,.5832-5.8422-.0706-13.989-.371-19.8308-.6186-5.0446-.1941-11.1636-.0171-14.1275-4.6658-2.2882-3.6058-3.1029-7.6173-3.5015-11.789-.1386-1.3606-.225-2.7217-.312-4.1003,2.6174-2.598,5.6684-4.7545,8.9444-6.3277,7.2458-3.4995,14.7516-2.9516,22.5347-3.5166,4.3857-.3362,8.3899-1.4149,12.0301-4.0124,3.2936-2.333,6.1882-5.232,9.187-7.9364,5.8943-5.3192,11.9263-10.5515,18.7039-14.6871,3.1723-1.9266,6.518-3.6409,9.9847-4.9309,.6241-.2303,1.2827-.4774,1.9761-.743,.2083,1.2732,.3818,2.5279,.5719,3.7473,.2083,1.485,.4163,2.8989,.6418,4.189,1.6464,9.2964,2.669,18.7173,3.0161,28.1557,.1386,3.5523,.5543,7.8649,.2078,11.9656Z"/><path class="h" d="M481.2554,61.2899c-.6934,.2655-1.3521,.5127-1.9761,.743-3.4667,1.29-6.8124,3.0043-9.9847,4.9309-6.7775,4.1356-12.8096,9.3679-18.7039,14.6871-2.9988,2.7044-5.8934,5.6034-9.187,7.9364-3.6401,2.5975-7.6444,3.6763-12.0301,4.0124-7.7831,.5651-15.2889,.0171-22.5347,3.5166-3.276,1.5732-6.3269,3.7297-8.9444,6.3277-.1386-2.598-.2772-5.1962-.6241-7.759-1.3176-9.8447-1.1093-22.2347-1.0051-32.1504,.0516-5.5143-.5721-14.3867,4.94-17.639,3.935-2.3153,9.1699-1.661,13.5035-1.661,17.1091,0,34.8247-2.0325,52.1417-2.4921,10.314-.2652,12.9314,10.1099,14.4048,19.5475Z"/><path class="d" d="M433.7687,77.5344c-1.612,2.4504-4.1601,4.0121-6.7604,4.7429-5.2696,1.4428-12.55,.7907-16.2599-4.2487-2.2012-2.9843-2.8597-7.5886-2.1318-11.7581-.1563-3.3203,1.7506-6.4025,4.0215-8.34,2.9467-2.5486,6.7603-3.102,10.3488-2.7862,3.0681,.2966,7.0202,.7907,9.3256,3.3991,2.1323,2.4113,3.1723,6.1065,3.5015,9.4462,.3465,3.3591-.26,6.8175-2.0454,9.5448Z"/><path class="h" d="M497.3555,30.9443c-29.1374,.5126-58.278,.8983-87.4188,1.1656-29.1401,.2668-58.2815,.395-87.4229,.3847-16.3951-.0055-32.7927-.1097-49.187,.0078-1.067,.0078-.9413,1.6538,.1046,1.6727,29.135,.5256,58.2932,.3245,87.4314,.1998,29.1401-.1244,58.2806-.3719,87.4182-.7895,16.3959-.235,32.7913-.5316,49.1859-.8626,1.1282-.0227,1.0103-1.7982-.1115-1.7784Z"/><path class="h" d="M501.801,96.5486c-.0452-2.9187-.1017-5.838-.1674-8.7567-.1378-6.0616-.3202-12.1221-.547-18.1814-.2273-6.0587-.4834-12.1174-.8153-18.1709-.3305-6.0342-.545-12.1442-1.2526-18.1457-.1055-.8952-1.3852-.8144-1.3705,.0892,.0995,6.051,.6164,12.1221,.9206,18.1672,.2987,5.9438,.5824,11.8871,.8093,17.834,.2268,5.9468,.411,11.8949,.5518,17.8443,.069,2.9184,.1275,5.8371,.1761,8.7562,.0516,3.1124-.1391,6.3337,.2027,9.4255,.0912,.8256,1.4188,1.0185,1.5031,.099,.2717-2.9502,.0358-5.9997-.0107-8.9606Z"/><path class="h" d="M510.1001,213.8448c-30.929,1.1313-61.8634,2.0945-92.8018,2.8869-30.7181,.7873-61.44,1.405-92.1644,1.8525-17.4588,.2544-34.9277,.3151-52.3834,.7382-.9422,.0232-.8785,1.4776,.055,1.4845,30.9366,.2165,61.9097-.5824,92.8399-1.2009,30.7214-.6142,61.4394-1.3984,92.1522-2.3519,17.4556-.5423,34.9096-1.1445,52.3613-1.7978,1.0189-.0383,.9582-1.6487-.0589-1.6116Z"/><path class="b" d="M579.4345,149.5877c-1.8986-2.5541-4.9185-4.3869-8.0472-4.5664,5.0811-6.4517,4.0679-16.164-1.3465-22.453-3.3948-3.9436-7.9134-6.4628-12.8504-7.956-6.4152-1.9404-13.0476-3.0848-19.4674-5.0553-3.7456-1.1493-7.4595-2.4204-11.1219-3.8119-2.8899-1.0984-5.9252-2.3932-7.7063-5.0542-.5863-.8759-1.8294,.0052-1.3374,.9005,2.3777,4.3272,7.6702,5.8669,12.0077,7.4629,5.6752,2.0875,11.4705,3.8677,17.3303,5.3584,5.599,1.4239,11.5144,2.286,16.4756,5.4392,4.1118,2.614,7.5325,6.6545,8.674,11.4632,1.2555,5.2887-.498,11.3096-4.9345,14.5933-1.0174,.7532-.2307,2.7159,1.0443,2.1173,4.42-2.076,9.4406,1.2542,10.7315,5.6446,1.6291,5.5422-1.262,11.7339-4.8092,15.9048-8.5127,10.0096-22.0734,4.9852-32.3648,1.2323-1.0731-.3917-1.8685,1.1291-.7877,1.634,9.3097,4.3494,20.865,8.4691,30.5031,2.5808,7.496-4.5802,13.9563-17.4286,8.0069-25.4345Z"/><path class="b" d="M573.2407,164.5461c-2.6363,7.0461-7.9355,13.0467-13.7806,17.4994-10.2124,7.8064-23.6603,12.0831-36.3627,12.4764-6.564,.2041-13.2881-1.154-18.1748-5.9054-4.9129-4.7925-8.4015-11.4718-10.9578-17.8254-2.7295-6.7336-4.3805-13.9425-4.9134-21.2193-.2526-3.5976-.1731-7.1818,.0801-10.7793,.1464-2.2809,.1597-4.4528-.6393-6.6252-.6787-1.8599-1.7574-3.5295-2.796-5.1996-4.4868-7.2768-9.0007-14.5398-13.4746-21.8168-3.6479-5.9054-10.2885-11.2587-8.9969-18.4675-.3732-.3125,2.2985-3.2476,2.8844-3.5193,10.9049-5.1857,23.7937-10.3234,35.6443-5.1372,15.2983,6.7199,19.3603,29.1199,36.19,33.2331,5.2461,1.2762,10.7453,1.2087,15.8312,3.2041,3.8347,1.5207,7.2298,4.0998,9.933,7.2497,5.3524,6.2313,7.9887,14.7844,6.524,22.9702,5.0998,5.2272,5.4859,13.21,3.0092,19.8618Z"/><path class="e" d="M536.4657,147.6711c-.3866,5.2133-5.5659,8.0645-9.5074,10.4129-5.086,3.041-10.3854,5.797-15.9375,7.8743-10.159,3.7878-20.9843,4.2625-31.6891,3.7335-9.8396-.4756-19.9189-2.1723-28.5736-7.2092-2.0773-1.2083-4.1145-2.5658-5.8853-4.195-1.4647-1.3438-3.422-3.1766-3.7813-5.2401-.3461-2.0363,1.1453-3.3396,2.9028-3.8557,2.5296-.733,5.2594-1.0318,7.8558-1.4119,5.6984-.8418,11.4373-1.3847,17.2025-1.4935,1.4914-.0272,2.9825-.0272,4.4739-.0134,.7455,0,1.5043,.0814,2.2364,.0405,0,0,.2664,0,.3599,.0952,.0133-.2579-.0534-.733-.0534-.8282-.1064-2.756-.4791-5.4712-1.0786-8.1455-5.9782,1.154-12.9951,1.9141-17.5219-3.0682-2.3038-2.5252-2.8361-6.0277-3.5816-9.259-.9324-4.0184-1.8508-8.0507-2.7832-12.0825-.1863-.7739,.3594-1.4798,1.1721-1.3576,2.9291,.4344,2.9558-3.8691,3.0354-5.7565,.0934-1.9413,.3198-3.8825,.7192-5.7833,.4658-2.1719,1.145-4.2762,2.0101-6.3126,.6531-1.7381,1.5181-3.3939,2.5835-4.9688,.0534-.0681,.093-.1494,.1464-.2308,.2797-.4076,.7326-.4346,1.132-.2583,.5458-1.1264,1.9304-.4343,1.5177,.5295-.1068,.2583-.1998,.516-.3065,.7739,.0668,.0679,.1335,.1222,.1998,.2174,3.3952,5.5253,7.443,10.6027,11.9836,15.1915,1.225,.6108,2.5563,1.2626,3.5282,2.2266,1.0252,.9909,1.1587,2.2129,1.172,3.5838,.0263,3.7473,0,7.4942-.0133,11.2411,.3194-.3801,.5992-.842,.6921-1.0047,1.3051-2.1856,1.3981-4.8737,2.0239-7.2768,.9719-3.7331,4.0611-8.3761,8.4682-6.7198,3.981,1.4931,5.6055,7.4257,4.4868,11.2678-.6522,2.2128-2.3833,3.6655-4.5802,4.1136-2.1169,.421-4.1408-.1765-6.0846-.9909,.5992,1.2895,1.0116,2.6609,1.5577,3.9643,.6126,1.4522,1.3447,2.8507,2.0902,4.2491,1.4914,2.7424,3.2226,5.3352,5.0731,7.8334,1.7842,2.4569,3.9944,4.9009,5.6588,7.5752,5.9254,1.7381,12.303,1.8327,18.4543,1.2087,.919-.0952,1.225,.7872,.9457,1.4522,5.6317-.2579,11.1709-2.0768,16.8694-1.371,.6129,.0814,.8656,.7059,.826,1.2488Z"/><path class="f" d="M607.6238,246.8971c-6.1057,4.6581-14.332,9.2874-22.0427,6.1629-3.626-1.4618-6.6355-4.1993-9.6025-6.7074-3.4111-2.895-6.7788-5.819-10.1327-8.8285-5.3889-4.8441-10.6488-9.8031-15.7795-14.9337-1.4333,8.8427-3.1959,17.6424-5.2452,26.3565-1.4048,5.9477-2.537,13.6437-8.4415,16.7824-2.9097,1.5483-6.3351,1.7773-9.5741,1.8634-3.8553,.0861-7.725-.2005-11.5656-.745-7.7396-1.1325-15.2639-3.4112-22.6302-6.0338-6.6502-2.379-13.1711-5.1023-19.3913-8.4704-10.62-5.7471-20.495-13.5151-27.1592-23.7623-.5875-.8601-1.132-1.7484-1.6481-2.6515-.5587,.6164-1.132,1.2181-1.6912,1.8345-3.9987,4.3426-8.0116,8.671-12.0244,12.9706-8.47,9.0149-17.5851,17.1552-28.4634,23.0172-2.5224,1.3467-5.1019,2.5937-7.7392,3.712-2.7229,1.1462-5.5465,2.2929-8.513,2.4646-5.2456,.2871-9.7604-3.2101-12.5836-7.4666-5.2456-7.9113-4.9301-18.7035-1.29-27.2022,1.247-2.8806,2.8379-5.5608,4.6724-8.0831-.1291-.4446-.2437-.8888-.3581-1.3187-.8027,.9749-1.8634-.0568-1.3189-.9026,5.9335-9.1153,12.5978-17.8005,18.7607-26.7576,5.432-7.8972,10.7491-15.8803,15.9659-23.9349,4.2135-6.4922,8.427-13.1853,14.3751-18.1874,5.2599-4.4136,11.6376-6.4492,18.187-7.8394,.6594-.1433,1.3331-.2866,2.0067-.4012,.4299,.8743,.903,1.6912,1.4333,2.4939,3.4968,5.4458,8.6705,9.5021,14.8335,12.0676,14.3751,5.9618,31.516,5.1448,46.1059,.4441,9.8029-3.1817,18.9324-8.284,26.7722-15.0198,.8312-.7308,1.677-1.4764,2.4794-2.2502,1.0321,.0289,2.0496,.0719,3.0813,.1433,1.7631,.1291,3.4973,.344,5.2169,.7308,9.4449,2.1212,15.2209,10.4767,21.3549,17.4135,12.2965,13.902,24.7079,27.8471,36.1737,42.4511,8.2552,10.5201,19.9358,29.7535,5.7759,40.5882Z"/><path class="d" d="M442.7198,220.9707c.7025,2.8094,1.9206,5.1741,3.3393,7.6104-.5875-.8601-1.132-1.7484-1.6481-2.6515-.5587,.6164-1.132,1.2181-1.6912,1.8345-2.6372-4.7725-3.2962-10.8494-3.3534-16.0661-.0577-5.7472,.1433-12.5547,4.2994-16.9547-2.3935-2.8236-5.0734-5.3317-7.7679-7.8682-.7881-.7597,.2148-1.8492,1.089-1.2611,3.4542,2.3216,6.3923,5.4031,9.0579,8.5848,.2726,.3293,.2295,1.0176-.0861,1.3038-4.3425,4.0706-4.3855,10.8063-4.2994,16.3387,.0572,3.0673,.3155,6.1482,1.0605,9.1294Z"/><path class="e" d="M559.3934,259.9451c-.4796,1.7106-1.2117,3.7469-2.6098,4.9009-1.6507,1.3847-4.3003,1.4798-6.3377,1.9008-3.6883,1.575-7.4697,2.905-11.371,3.8962-5.4325,1.3848-11.344,2.6472-16.9629,1.9956-2.45-.285-4.8599-1.059-6.8838-2.5116-2.3966-1.7106-4.1541-4.3035-6.0845-6.4891-.44-.4891-.8656-.9914-1.2918-1.4936-.253-.0405-.4795-.1765-.6525-.4344-.346-.5022-.6654-1.0318-.9853-1.5474-2.3169-2.9867-4.2607-6.2451-4.6864-10.0328-.7726-1.3171-1.4518-2.7289-1.2918-4.1408,.1064-.8823,.5726-1.7784,1.2651-2.5928,.1726-1.8328,.9319-3.6252,2.2631-4.969,1.4781-1.4936,3.4353-2.4164,5.4058-3.0138,1.9576-.5975,3.422-.421,4.8867,1.0997,.9052,.9366,1.784,1.9279,2.6763,2.8917,.8652,.9499,1.8772,2.4844,3.0493,3.0272,2.2364,1.0455,5.6851-1.8599,7.5492-2.8646,4.6603-2.5248,9.4535-4.7515,14.3664-6.7065,1.0254-.4072,1.5711,.7468,1.1984,1.5479,2.9562,.1765,5.6988,.9095,8.1755,3.0139,3.0758,2.5929,5.5654,6.1904,7.1765,9.8968,1.7041,3.91,2.3299,8.458,1.145,12.6258Z"/><path class="b" d="M541.3119,234.2321c-6.4707,3.1223-13.0352,6.1092-19.6793,8.7567-.6124,.244-1.225,.4747-1.8371,.7192-.3999-.2307-.6925-.5023-.9856-.7739,.0133-.285,.1597-.5837,.4795-.7331,.3327-.1631,.6787-.312,1.012-.4613,5.645-2.62,11.3306-5.1183,16.9627-7.7521,1.0653-.5023,2.1307-1.0045,3.1959-1.5203,.2927,.5837,.5725,1.1674,.8519,1.7648Z"/><path class="b" d="M555.1592,267.3442c-4.1808,1.3576-8.3883,2.6333-12.6357,3.7469-5.3257,1.4117-10.9445,2.9729-16.457,3.2174-10.7849,.4891-19.0268-9.0145-23.727-17.8933-.3728-.7059,.5992-1.575,1.1453-.9095,3.5683,4.3715,6.4573,9.2994,11.038,12.7343,2.1302,1.5886,4.5401,2.8512,7.1364,3.462,3.0359,.7058,6.125,.2986,9.1475-.2579,8.0154-1.4665,15.8445-3.6385,23.6069-6.1228,.2531,.6787,.5058,1.3442,.7455,2.023Z"/><path class="b" d="M486.5057,76.5602c-5.238,1.306-10.4504,2.748-15.5554,4.4942-4.1695,1.4264-7.8949,3.4683-10.6122,6.9583-2.4397,3.1331-3.9483,6.8809-4.8023,10.7113-.4696,2.1057-.678,4.2224-.8561,6.3664-.1829,2.2046-.6202,5.5066-3.4692,5.7523-1.4015,.121-1.262,2.2628,.1395,2.1362,4.7571-.4295,5.234-5.3825,5.5426-9.0605,.362-4.3155,1.3916-8.6504,3.5669-12.4503,2.4453-4.2724,6.2081-6.8386,10.8279-8.5276,5.1445-1.8806,10.4251-3.4774,15.6818-5.027,.9066-.2677,.4344-1.5771-.4635-1.3534Z"/><path class="b" d="M475.0253,136.6616c-6.382,.9077-14.4826,2.2903-18.1275-4.4459-1.5711-2.9024-2.2774-6.3471-3.0453-9.5189-.8436-3.4843-1.4062-7.0294-2.2571-10.5099-.1907-.7795-1.3761-.4816-1.3568,.2609,.1017,3.9126,.9242,7.8273,1.7976,11.6362,.8075,3.5192,1.5207,7.4757,3.5841,10.5361,4.3482,6.4495,13.1441,5.7018,19.8381,4.2035,1.2448-.2784,.836-2.3427-.433-2.162Z"/><path class="b" d="M475.8565,147.5627c-10.0127,.0679-20.1588,.8418-30.0251,2.7698-.5325-.8011-1.012-1.6292-1.438-2.4983,1.0786-.2174,2.1573-.421,3.2359-.6108,8.934-1.5888,17.8951-2.2675,26.9359-1.8599-.3599-2.5116-.826-4.9959-1.2651-7.4942-.213-1.2491,1.7175-1.3576,1.9305-.1222,.5062,2.7969,.9457,5.6206,1.571,8.3899,.1468,.6384-.1996,1.4257-.9452,1.4257Z"/><path class="b" d="M495.6884,109.0314c-1.7789-2.1401-4.556-3.2678-7.2828-2.719-2.5077,.5049-7.2674,3.2192-5.7626,6.3117,.3169,.6516,.9155,.6974,1.4506-.257,.6599-1.1785,1.1523-2.1258,1.8595-2.7272,.7708-.656,1.7212-1.1144,2.7104-1.2964,1.9317-.3552,3.9634,.3981,5.2465,1.909,1.4264,1.6787,1.6059,4.0257,1.1204,6.1108-.4455,1.9123-1.575,3.9965-3.4224,4.8105-.9406,.4145-1.9878,.4764-2.9821,.2501-1.0872-.248-1.7729-.9573-2.7099-1.4876-.9667-.547-1.6894,.6849-1.2749,1.5013,.5871,1.1571,2.0944,1.8092,3.2662,2.1385,1.2448,.3503,2.6044,.3237,3.8424-.0457,2.7637-.8247,4.5155-3.4627,5.3097-6.1465,.8234-2.7827,.5203-6.0772-1.371-8.3525Z"/><path class="b" d="M492.2885,111.0557c-.4326-.3534-.9406-.1954-1.3861,.0254-.4239,.2105-.8483,.4192-1.2719,.6306-1.6899,.8436-3.4116,1.6865-4.9977,2.7203-.6315,.4115-.1248,1.4704,.5828,1.2112,1.1832-.4334,2.302-.9891,3.4391-1.5365,.5962-.2871,1.1941-.5704,1.7846-.8695l.8445-.4279c.0844-.0425,.1692-.0856,.2535-.1282,.2708,.0797,.5746,.0271,.8019-.1863,.4253-.3994,.4008-1.0701-.0507-1.4389Z"/><path class="b" d="M489.4877,114.9176c-.1662-.5608-.4756-1.1071-.8165-1.5768-.2457-.3387-.7434-.4859-1.0971-.2187-.1644,.1244-.303,.3022-.3344,.5145-.0336,.225,.0189,.4032,.1201,.6046,.1575,.3797,.2074,.5226,.2514,.6672,.0694,.2281,.121,.4631,.1709,.6972,.0697,.3995,.105,.8024,.0883,1.2079-.0134,.3322,.2526,.6736,.5341,.8079,.2105,.1012,.4894,.1386,.7115,.0456,.411-.1713,.6473-.5247,.6439-.9762-.0051-.5979-.1024-1.2014-.2721-1.7733Z"/><path class="b" d="M471.6688,100.3811c-3.1236-2.7578-8.2831-3.5915-11.8325-1.1591-.7502,.5143-.1576,1.8516,.7205,1.4896,1.6395-.6758,3.3203-1.0911,5.0976-.8565,1.7506,.2312,3.3806,.8768,4.7269,2.0557,.9638,.8441,2.2516-.6783,1.2875-1.5297Z"/><path class="b" d="M466.3598,102.8603c-.7368-.3168-1.5232-.4735-2.323-.4579-1.5,.0296-3.3423,.8229-3.622,2.5012-.04,.2423,.0258,.4782,.158,.6697-.1985,.9208-.0074,1.8823,.4571,2.7075,.2819,.5005,.9559,.4364,1.3011,.077,.9358-.9724,.8045-2.5339-.0193-3.5019,.3004-.2415,.3632-.2781,.4265-.3151,.5794-.2531,.9277-.3047,1.5513-.2815,.1141,.0111,.1893,.0198,.2643,.0314,.1351,.0207,.269,.0473,.4019,.0801,.0737,.0184,.1469,.0391,.2199,.0602,.1834,.0668,.3198,.124,.4533,.189,.1231,.0603,.2423,.1279,.3607,.1971,.5532,.4025,.8914,.755,1.3589,.6758,.3569-.0603,.6896-.285,.7541-.6758,.1598-.9689-.996-1.6356-1.7428-1.9567Z"/><path class="b" d="M459.5436,118.5142c-.2634-.3624-.8303-.5527-1.213-.2414-.8807,.717-1.7729,1.4221-2.6427,2.1525-.4292,.3607-.8527,.7292-1.2789,1.0942-.207,.1769-.4136,.3538-.6202,.5303-.2982,.2552-.6745,.5035-.7136,.9344-.0336,.3705,.1497,.7898,.5587,.8462,.4248,.0586,.6981-.1235,1.0227-.3749,.2139-.1657,.4283-.3314,.6422-.4971,.455-.3521,.9134-.6999,1.3645-1.0568,.8906-.7041,1.7631-1.4337,2.6438-2.1509,.3563-.2901,.5336-.8277,.2367-1.2366Z"/><path class="b" d="M482.7743,109.2656c-.2096,3.0613-.9602,5.9697-2.2339,8.6905-.1584-1.2961-.1963-2.6058-.0556-3.9131,.1051-.9754,.2884-1.946,.5488-2.8904,.2238-.8135,.7068-1.6589,.7713-2.5111,.1024-1.3585-.8983-1.9129-1.9451-2.4311-1.5405-.7631-3.019-1.6442-4.4051-2.6725-5.4599-4.0508-9.3781-9.8637-11.4791-16.3792-.2975-.9233-1.5939-.4417-1.3808,.4722,1.4987,6.4319,5.2202,12.1768,10.23,16.3525,1.2026,1.002,2.4814,1.9097,3.8145,2.7228,.7007,.4275,1.4182,.8247,2.1516,1.1906,1.1313,.5647,.8661,1.1019,.5274,2.1878-1.1295,3.6174-1.1131,7.4391-.1507,11.0896,.245,.9284,1.3976,.7847,1.8082,.1158,2.1681-3.5295,3.4336-7.4878,3.7182-11.6428,.0861-1.2654-1.8319-1.6609-1.9198-.3818Z"/><path class="h" d="M312.0026,147.5505c-.2763,.5265-.5523,1.0528-.816,1.5862-.6594-.2858-1.312-.5841-1.9714-.8703-.2294-.1064-.3538-.2815-.3947-.4885-.2437-.1649-.4257-.4081-.4933-.7631-.9848-6.123-4.4136-11.8662-10.4449-14.9949-3.1567-1.6421-6.725-2.444-10.1026-2.187-3.3706,.2448-6.4504,1.4604-9.7682,1.9193-2.7112,.3654-5.6025,.2904-8.2857-.9142-.5734-.2669-5.2534-3.4327-4.8393-1.3447,.188,.9246,3.3917,2.0991,4.0895,2.4582,3.4289,1.7588,6.8507,3.5291,10.2795,5.2879,1.7017,.8874,3.4078,1.8774,5.1424,2.6531,.913,.4077,.9392,.3905,1.7453,.0383,.6013-.2784,1.0998-.5203,1.7825-.6336,6.1839-.8952,8.739,7.391,4.3025,11.0871-2.8679,2.4031-6.9468,1.5879-8.6767-1.7975-.3162-.6224-.4364-1.1919-.581-1.8586-.1903-.8932-.207-.9199-1.0554-1.4368-1.63-1.0094-3.4098-1.8461-5.0851-2.7509-3.3983-1.8387-6.8035-3.6654-10.1896-5.497-.6905-.371-3.4968-2.3621-4.3246-1.9735-1.8629,.8823,3.3664,2.9442,3.9044,3.2716,2.5284,1.5241,4.3065,3.9135,5.6146,6.4134,1.6166,3.0522,2.5038,6.3536,4.3137,9.3249,1.8078,3.003,4.5384,5.5099,7.6736,7.1886,5.9887,3.202,12.4696,2.6863,17.7884-.1084,.2337-.1218,.4533-.1369,.6564-.096,.1137-.4433,.5644-.7971,1.1089-.5643,.5329,.2252,1.0467,.4555,1.5723,.693-.2643,.5338-.5327,1.0477-.7898,1.5693-.3249-.1649-.6547-.3495-.9727-.5263-.0353,.2263-.1446,.4406-.3761,.6142-5.2737,3.8799-13.3072,3.863-19.6897,.5861-2.9845-1.5207-5.6386-3.7163-7.6749-6.3294-2.2421-2.8706-3.3913-6.1668-4.7912-9.3675-1.6278-3.7529-3.6525-6.607-7.5807-8.3718-2.1573-.9673-5.1032-3.5226-3.2093-5.7583,1.4916-1.77,4.2248-.4851,6.0628,.5023,3.8543,2.0841,7.6826,4.185,11.5298,6.2808,1.9215,1.0381,3.857,2.0523,5.757,3.1271,.9892,.553,1.7682,1.0777,1.9998,2.1776,.1032,.4597,.1924,.9439,.3198,1.4182,.3081,1.3287,1.7759,2.5042,3.0818,2.5722,2.407,.127,4.4256-3.1241,3.7244-5.3864-.3293-1.0439-.9538-2.0528-1.9765-2.4939-1.3262-.5599-2.49,.0706-3.697,.6082-.9873,.4399-1.85,.1128-2.8559-.3844-1.964-.965-3.8928-1.9911-5.8426-2.9807-3.8924-1.9912-7.7873-3.9509-11.6728-5.9545-1.859-.9504-4.4734-2.4939-3.9858-4.7928,.6082-2.9196,4.327-1.9602,6.3467-.7297,3.6852,2.262,7.1064,2.2629,10.9651,1.4062,3.3126-.727,6.5314-1.7088,10.0695-1.5207,3.2282,.1644,6.5124,1.0908,9.4424,2.6772,6.3041,3.4107,11.0546,10.1082,11.217,16.8045,.5543,.1889,1.1131,.3972,1.6533,.6103Z"/><path class="h" d="M515.8274,263.5224c-2.15,2.4078-4.916,4.4714-7.9686,5.5177-1.5478,.5303-3.2106,.774-4.8586,.6594-1.4046-.0861-3.2102-.5018-4.2996-1.4905-.0715-.0572-.1146-.1575-.1576-.2436-13.8163-8.0835-27.6895-16.0804-41.6345-23.9633-25.3532-14.3316-50.9216-28.3486-76.6333-41.9928-8.943-4.7153-17.9148-9.4302-26.9009-14.0879-.5587-.3013-1.1178-.5879-1.6912-.8888,.3581-.5875,.7168-1.1751,1.0606-1.7773,.5445-.8883,1.0464-1.7913,1.5621-2.6945,1.9925-3.4825,3.9273-7.0224,5.7759-10.62,.1718-.3151,.3297-.6447,.4873-.9887,.3155-.5875,.6021-1.1609,.903-1.7626,.6017,.2862,1.2039,.573,1.8056,.8738,.1003,.043,.2007,.0861,.3155,.1291,31.5303,15.1059,62.4015,31.6164,93.5879,47.4678,15.5786,7.9255,31.2436,15.7076,47.1093,23.0314,.9172,.43,1.8198,.8454,2.7375,1.2611,2.379,1.089,4.7721,2.1785,7.1515,3.2389,.3293,.1433,.6449,.3009,.9887,.4442,.6306,.86,1.2328,1.8203,1.7201,2.8236,1.0459,2.0063,1.7626,4.2423,1.9489,6.4208,.2724,3.2531-.86,6.2485-3.0096,8.6421Z"/><path class="e" d="M513.0847,244.835c-1.478,.4618-3.3156-.0952-4.8599-.041-1.7041,.041-3.422,.2855-5.0865,.7197-3.3418,.8824-6.431,2.4711-9.0941,4.6973-2.4229,2.023-4.6203,4.3851-7.802,5.0502-.6525,.136-1.1587-.2987-1.3316-.7873-2.5568-1.1268-.4395-4.1541,.6658-5.5253,3.9543-4.9281,8.628-9.2048,13.7407-12.8295-2.0902-1.2081-4.647-1.466-6.9235-.516-2.3837,.9775-4.0878,3.1227-6.3781,4.3172-1.9571,2.5254-3.6483,5.3493-5.552,7.7929-1.4248,1.8327-4.0611,4.29-6.3778,2.335-1.6778-1.4119-1.3184-3.3263-.9185-5.1996-2.1307,.8282-4.7002,.9095-6.4582-.4889-2.4896-1.9959-.6654-5.8918,.7994-7.9281,2.1569-3.0277,4.9529-5.797,7.6293-8.3362,2.1435-2.0363,4.4338-3.9095,6.9635-5.4169-2.6365-1.5065-5.6589-2.1449-8.6947-1.9818-3.9011,.2036-7.2299,1.7239-10.7716,3.2042-2.49,1.045-5.9782,.1626-5.6188-3.218,.1197-1.0588,.6792-1.7784,1.4115-2.199,.0663-.1088,.133-.204,.2263-.2853,6.0579-5.3352,14.2997-5.2401,21.8228-4.7106,.7593,.0404,1.0254,.6379,.9319,1.2216,.4529,.095,.9057,.1902,1.3585,.2986,3.2751,.842,6.085,2.444,8.7742,4.4804,3.1025,2.3483,6.3115,4.3713,9.64,6.3669,5.3261,3.1903,10.8515,6.9781,13.2482,13.06,.7726,1.9689,1.225,5.1454-1.3447,5.9194Z"/><path class="b" d="M523.8695,247.6043c-1.3981-1.2762-2.796-2.5657-4.1808-3.8553-.2931-.2715-.5857-.5432-.8789-.8148-4.0211-3.7603-7.9755-7.589-11.7167-11.6479-.6258-.6792,.2526-1.7923,.9452-1.1273,4.0478,3.9104,8.1489,7.7521,12.263,11.5807,.4395,.4072,.8923,.8282,1.3313,1.2491,1.1454,1.0583,2.3036,2.1177,3.4487,3.1903,.8785,.8144-.3194,2.24-1.2117,1.4251Z"/><path class="b" d="M361.472,169.1895c-.3009,.6017-.5875,1.1751-.903,1.7626-.1576,.344-.3155,.6736-.4873,.9887-1.8487,3.5976-3.7834,7.1375-5.7759,10.62-.5156,.9031-1.0176,1.8061-1.5621,2.6945-.3438,.6022-.7025,1.1897-1.0606,1.7773-3.325-1.7054-6.6642-3.4253-9.9893-5.1454-11.9243-6.1052-24.121-11.8092-35.9019-18.2299-.5445-.2867-1.1035-.5875-1.6338-.8884,.2583-.5307,.5303-1.0464,.7886-1.5766,1.7054-3.3539,3.4683-6.6932,5.2168-10.0471,.344-.6732,.6736-1.3468,1.0176-2.0062l.8169-1.5909c.6159,.2148,1.2181,.43,1.8056,.6589,7.8684,2.924,15.5649,6.3493,23.2179,9.7317,8.198,3.626,16.3387,7.3956,24.4506,11.2509Z"/><path class="e" d="M382.0383,209.634c-4.2996,.2294-8.5707,.4157-12.8702,.0718-4.5002-.3727-8.8716-1.6338-13.4001-1.6911-1.8917-.0143-4.1851,.5445-6.0196,.0856-1.5047-.3869-2.1642-1.7768-2.7517-3.0668-.86-1.8917-1.9064-3.626-3.1387-5.2314-.1722-.0427-.344-.1287-.5161-.2721-.7167-.6878-1.4905-1.2758-2.3075-1.7915-.8596-.4016-1.7054-.8169-2.5655-1.2611-.6878-.344-.8022-.9749-.6017-1.4905-4.0559-2.3076-7.9686-4.8299-11.8381-7.4099-.2866-.2005-.4157-.4299-.4731-.6736-1.419-.9314-2.6945-2.0492-3.8265-3.3103-2.6661-2.9523-4.5006-6.5499-5.7761-10.2907-.1863-.573-.3726-1.1605-.5734-1.7769-.5732-.0146-1.1608-.3585-1.2753-1.0894-.2866-2.0352-.3727-4.056-.2294-6.1199,.1144-1.6481,.2294-3.5971,1.0606-5.0734,1.4186-2.4936,4.6005-1.8198,5.8328,.4731,.817,1.4905,.6164,3.2962,.8458,4.9301,.2579,1.8774,.9315,3.6977,1.8061,5.3747,.9168,1.7626,2.0492,3.3964,3.2531,4.9732-.6736-3.483-1.1178-7.0229-.86-10.5774,.1291-1.8775,.2437-4.5715,1.8487-5.8904,.1433-.1146,.3013-.2007,.4442-.2867,1.5336-1.7768,4.5006-1.2753,5.2026,1.2758,.2437,.2437,.4873,.4873,.7025,.7455,.2437,.3009,.4873,.6017,.7167,.9168,.0857,.0577,.1287,.115,.2007,.1722,.1144-.5445,.0861-1.1897,.2577-1.7199,.3728-1.1321,1.0895-2.1638,2.2215-2.6657,5.475-2.4078,6.4926,8.3843,6.7935,12.2396,1.0894,4.3426,2.2214,8.6707,3.4683,12.9848,.1291,.4442-.0572,.8743-.3585,1.1609,.158,.2867,.3013,.5875,.4588,.8743,.5592,1.0033,1.3331,2.895,2.6227,2.8519,1.806-.0572,.9319-3.0099,.7739-4.2996-.2007-1.4905-.3581-2.9954-.4012-4.5148-.0289-1.4905,.1144-2.938,.4442-4.3568-.1003-3.282,.0861-6.7646,2.4651-9.2728,.6878-.7308,1.9778-.3727,2.0497,.6736,.0572,.8601,.1291,1.7054,.229,2.5655,1.0033,1.1035,1.4764,2.6514,1.8202,4.1278,.5303,2.264,.5734,4.5573,.2579,6.836,.5592,2.0067,1.1897,3.9987,1.9353,5.9477,.1286,.3585,.0714,.6451-.0719,.8888,1.2039,1.9631,2.5223,3.8984,3.3681,6.091,.1863,.516,.1863,.8458,.1144,1.1896,3.2678,2.9954,7.5386,3.626,11.7956,4.7727,2.3359,.6302,3.8837,1.5762,5.1737,3.6543,1.2755,2.0497,2.1785,4.2712,2.809,6.5787,.2148,.7882-.2579,1.6336-1.1178,1.6766Z"/><path class="b" d="M335.3945,159.8764c-.9367-2.794-3.5709-5.2341-6.682-4.1314-3.2609,1.1558-3.369,5.8978-3.4934,8.7649-.3659,8.448,2.8163,16.791,6.4414,24.2666,.4506,.9289,1.9373,.508,1.5684-.5276-2.1-5.9016-4.6646-11.6655-5.5246-17.9282-.4192-3.0553-.47-6.1702,.0943-9.2104,.269-1.4475,.545-3.3418,2.3803-3.3875,1.6572-.0416,2.6312,1.4803,3.0962,2.8668,.4588,1.3692,2.5779,.6546,2.1194-.7132Z"/><path class="b" d="M351.6462,186.8638c-3.7629-2.6162-4.1881-7.5721-4.801-11.7498-.3968-2.7023-.9035-5.3898-1.5221-8.0499-.6246-2.6872-1.1896-5.5495-2.2804-8.0921-.764-1.7807-2.0588-3.4008-4.0259-3.8566-1.778-.4115-3.5001,.3874-4.4088,1.9563-.9005,1.555-.9754,3.4731-.8807,5.224,.1588,2.9304,.5031,5.8625,.9181,8.7666,.9039,6.3291,2.3725,12.5582,4.4196,18.6131,.3491,1.0326,1.8737,.5014,1.5895-.535-1.6967-6.1891-3.0263-12.4786-3.8561-18.8455-.3844-2.9509-.8084-5.9975-.7998-8.9787,.0034-1.089,.0783-2.5886,.8776-3.4318,1.1752-1.2392,2.8069-.1889,3.5735,.9366,1.6047,2.3554,2.1251,5.8905,2.7591,8.622,.7115,3.0642,1.2172,6.1546,1.661,9.2667,.6181,4.3357,1.4893,9.1715,5.3205,11.8561,1.1683,.8187,2.639-.8789,1.4558-1.7019Z"/><path class="e" d="M383.8014,216.0547c-.8459,3.4253-4.5721,3.8265-7.5102,4.4145-7.2666,1.4328-15.3354,1.6338-22.53-.3728-3.1098-.86-4.3711-3.1529-4.9874-6.1624-.7025-3.4685-1.0748-6.994-1.1897-10.5201-.0572-.1004-.1003-.2148-.1575-.3151-.5303-.9315-1.6912-1.9636-1.677-3.0815,0-.2724,.0861-.6017,.3581-.7308,.43-.2152,.6736-.2579,1.1324-.0715,.2437,.1004,.43,.387,.43,.6591,.0142,.2436-.0142,.3438-.043,.4299,.1575,.1865,.3581,.387,.5445,.5734,.5303-.2436,1.247-.0719,1.5336,.6164,.1865,.43,.3728,.8596,.5592,1.2896,.9026-1.2039,1.9348-2.3359,3.124-3.2674,3.2106-2.4651,6.8365-1.8775,10.5769-1.3903,4.0133,.5303,8.1119,.903,12.0676,1.7195,3.3828,.6883,4.7011,2.6519,5.7474,5.7759,1.0318,3.0673,2.8374,7.1516,2.021,10.4336Z"/><path class="f" d="M397.3259,261.8731c-1.7441,4.3848-5.7518,6.9643-10.2257,7.9147-8.8276,1.8599-18.1349-2.2399-24.0864-8.7433-6.8705-7.4937-9.933-17.4448-11.7705-27.2469-1.0648-5.6477-1.7574-11.3492-2.7293-17.0106-.0133-.0952-.0267-.1902-.0534-.285-.0796-.516-.1729-1.0183-.2664-1.534,.7459,0,1.5048,.0133,2.2504,.0271,7.8691,.1218,15.7381,.312,23.6206,.4751,3.0887,.0676,6.178,.1356,9.2671,.1899,.9052,.0271,1.8238,.0409,2.7293,.0679,.093,.3934,.1865,.7873,.2798,1.1811,.0267,.1222,.0529,.2579,.093,.3801,5.0731,10.2093,9.7996,20.6899,11.6637,31.9172,.6921,4.195,.8256,8.6616-.7722,12.6668Z"/><path class="b" d="M350.4444,214.995c-.0263-.1089-.0396-.2174-.0663-.3258-1.1196-4.576-1.754-9.4428-4.6922-13.3898-3.1434-4.2229-8.0116-7.3013-12.6305-9.6623-4.5006-2.2809-8.4682-5.3085-11.5708-9.3403-2.9159-3.7744-4.9931-8.1729-6.018-12.8431-.5196-2.3485-.9457-5.0364-.4528-7.4125,.3727-1.8056,2.4896-4.2629,4.3539-3.3259,.8523,1.0318,1.1316,2.5383,1.265,3.8417,.1998,1.8331,.4262,3.6251,.9186,5.4169,.9853,3.4349,2.716,6.7883,5.1265,9.4493,.8118,.8957,2.3699-.4753,1.6106-1.4394-2.4095-3.041-4.2204-6.2718-5.0992-10.0866-.4395-1.9417-.5196-4.3582-1.2517-6.3269-.5191-1.4119-1.3847-2.6062-2.9559-3.2308-.2263-.0271-.4528-.0271-.6925-.0138-1.7041,.0952-3.4353,1.0321-4.3805,2.4302-2.3699,3.489-1.3578,8.6482-.386,12.4627,2.1836,8.5127,7.7891,16.2099,15.3522,20.6899,2.5297,1.507,5.299,2.5662,7.8558,4.046,7.3792,4.2712,9.9683,10.9894,11.4636,19.0337,.7459,0,1.5048,.0133,2.2504,.0271Z"/><path class="b" d="M386.0615,215.728c-.9056-.0271-1.8242-.0409-2.7293-.0679-.1068-.4482-.1996-.8824-.2931-1.3305-.7188-3.3802-1.2784-6.8017-2.0505-10.1685-.7188-3.1766-3.7947-4.8328-6.6704-5.797-3.2093-1.086-6.6041-1.4932-9.454-3.4754-2.543-1.7784-4.1407-4.5345-5.206-7.399-1.3047-3.4752-2.0902-7.1817-2.7961-10.8063-.3727-1.887-.6921-3.774-.9452-5.6748-.1863-1.3167,.1468-4.5617-1.5444-4.7516-3.5816-.3938-2.8761,7.3854-2.9028,9.3946-.0267,4.195,.3594,8.3356,.5329,12.5169,.0396,.801-1.225,1.0997-1.4119,.2853-1.318-5.6748-1.4108-11.7572-1.0781-17.5404,.1996-3.2037,1.6644-7.9827,5.8853-6.6384,1.5844,.5022,2.0634,1.6562,2.2631,3.2174,.3064,2.4845,.6126,4.9552,1.0653,7.4262,.8789,4.7649,1.784,10.1138,4.1808,14.3905,2.5167,4.507,7.0035,5.3624,11.6104,6.6114,3.4218,.9366,7.0436,2.6201,8.535,6.0957,.9853,2.2809,1.1182,5.0502,1.6244,7.4805,.4395,2.0906,.9052,4.1678,1.3847,6.2313Z"/><path class="b" d="M513.7746,244.4449c-.0189-.1798-.0817-.3357-.2001-.4717-.1093-.1253-.259-.2299-.4265-.2557-.1912-.0292-.4283-.012-.5828,.1206-.5054,.433-1.0042,.8725-1.5018,1.3145-2.8998-1.5608-6.6833-1.1084-9.5444,.0155-3.6823,1.4462-6.4857,4.1343-9.4789,6.5425-1.3972,1.1247-2.9876,2.5326-4.7932,3.0018-2.3407,.6082-3.1529-1.5414-2.4001-3.3069,.7497-1.7588,2.3463-3.2451,3.632-4.6629,1.2319-1.3592,2.5003-2.6923,3.8355-3.9607,1.5655-1.4872,3.2329-2.8749,5.0382-4.0938,.9086-.6129,1.8517-1.1734,2.8176-1.7006,.9508-.5192,2.0424-.8901,2.889-1.5543,.6642-.5209,.4064-1.6736-.5725-1.6022-1.9291,.1408-3.9474,1.405-5.5422,2.3812-1.7876,1.0942-3.4438,2.3623-5.021,3.716-3.1387,2.6945-6.4138,5.8533-8.6624,9.2817-1.8363,2.7991-1.5681,7.7125,2.815,7.9669,2.0652,.1195,3.9414-1.0043,5.5258-2.1401,1.7975-1.2884,3.4291-2.7664,5.141-4.1519,1.8655-1.5096,3.8415-2.9514,6.1655-3.7507,2.6049-.8957,4.8359-.7515,7.3758,.1924,.7266,.2699,1.4713-.2328,1.6149-.8338,.5937-.4571,1.1656-.9439,1.6899-1.4811,.1261-.1291,.2045-.3874,.1855-.5665Z"/><path class="b" d="M507.4925,231.761c-3.888-2.6067-7.0702-6.2718-11.158-8.6206-.3065-.1765-.6258-.353-.9453-.5023-4.6069-2.335-9.5999-.6651-13.8073,1.6291-2.6496,1.4389-5.0996,3.2718-7.2432,5.4303-1.0252,1.0318-1.9309,2.1182-2.9429,3.1495-1.0516,1.0997-2.0238,2.2675-2.9024,3.5166-1.4647,2.0906-3.7951,5.7423-.8255,7.6835,.8656,.5708,1.9972,.6789,2.9558,.2993,.4528-.1903,2.6097-.7878,3.102-.774,.5062,.0272,.6393-.0542,.786,.421,.1197,.3801,0,.8144-.2265,1.1264-.2397,.326-.5725,.5432-.919,.7335-2.2232,1.2216-5.7251,1.0859-7.7623-.5161-1.6908-1.3304-1.7575-3.5161-1.2913-5.376,.7054-2.9187,2.543-5.5796,4.5401-7.7929,1.5444-1.7101,3.0092-3.4614,4.7271-5.0093,1.1049-1.0183,2.2765-1.9684,3.5015-2.8236,.5992-.421,1.2517-.8552,1.9175-1.2629,.8785-.5565,1.8238-1.0859,2.7961-1.5612,2.8757-1.4255,6.0582-2.4435,9.1604-2.335,.8256,.0138,1.6511,.1084,2.4633,.3125,.8385,.2036,1.6374,.4885,2.41,.8552,1.7441,.7873,3.3419,1.9141,4.8066,3.0953,2.7426,2.199,5.6588,4.4527,8.1084,6.9372,.8389,.8552-.2394,2.0635-1.2513,1.3847Z"/><path class="b" d="M499.3592,235.347c-2.7745-2.5628-7.5489-.6818-10.0075,1.3205-3.2967,2.685-5.9933,6.1671-8.8436,9.2671-1.1562,1.2577-2.8532,3.5208-4.847,3.4231-2.4625-.1208-1.8888-3.2604-1.2242-4.6343,1.6425-3.3935,4.2127-6.5073,6.9106-9.1941,3.1047-3.0922,6.6648-5.5326,10.4237-7.8371,.7942-.4873,.148-1.8367-.7532-1.4549-7.7348,3.2729-14.336,9.7066-18.3346,16.7549-.9568,1.6876-1.6507,3.6401-1.0661,5.5546,.5191,1.6994,1.9889,3.0273,3.8888,3.1236,2.0217,.1026,3.7763-1.1573,5.145-2.4404,1.8203-1.7059,3.4245-3.6617,5.1058-5.4906,1.7673-1.9228,3.4616-4.1141,5.6154-5.6653,1.0459-.7533,2.2175-1.3529,3.5317-1.5294,1.2853-.1726,2.3557,.2114,3.5557,.5721,1.1007,.3311,1.5875-1.1346,.8997-1.7699Z"/><path class="b" d="M496.3346,223.1404c-.3065-.1765-.6258-.353-.9453-.5023-1.3583-1.2762-2.8494-2.4435-4.4338-3.462-7.5097-4.8466-17.1629-6.7198-25.9106-3.7602-2.3566,.8006-4.8466,2.1039-6.2847,4.1403-1.012,1.4527-1.5577,3.489,.7721,3.8011,1.6645,.2178,3.3957-.4747,4.9267-1.045,2.8628-1.086,5.5921-2.1177,8.721-2.2671,2.9562-.136,5.8453,.4072,8.5884,1.4527,1.478,.597,.3861,2.6881-1.0788,2.1315-.559-.2174-1.1182-.3938-1.6907-.557-3.1559-.8685-6.5111-.9094-9.6932,.0138-2.9959,.8686-5.8186,2.6609-9.0274,2.7014-1.9576,.0276-4.6203-.6921-5.0331-2.8098-.3727-1.9551,.7855-4.1407,2.0502-5.6072,3.0357-3.489,8.0554-4.9418,12.596-5.4846,9.3735-1.1406,19.3332,1.9956,25.9373,8.458,.4524,.4481,.8919,.8957,1.3047,1.3709,.5191,.6108-.1197,1.3984-.7989,1.4257Z"/><path class="b" d="M536.0262,145.5671c-.8122,.774-1.6511,1.5203-2.49,2.2533-1.7308-.0271-3.4754-.0271-5.2062-.0542-4.3938-.0543-8.8009-.1218-13.1948-.3122-1.0653-.0409-1.225-1.6972-.1068-1.7243,5.3524-.1765,10.7053-.1627,16.0576-.1898,1.6378,0,3.289-.0138,4.9401,.0271Z"/><path class="f" d="M612.4261,236.6485c-1.5844,10.3721-12.0366,15.1507-20.7174,18.0152-10.9316,3.6114-21.7035,7.6979-32.6214,11.3771-.7855,.2579-1.571,.5294-2.3565,.7735-.5196,.1903-1.0387,.353-1.5715,.5299-.2397-.6789-.4924-1.3443-.7455-2.023-3.888-10.5624-8.2552-20.9477-13.1018-31.0891-.2795-.5974-.5592-1.1811-.8519-1.7648,.4524-.204,.9052-.421,1.3581-.6516,9.1337-4.3719,18.1611-9.0145,27.0421-13.8887,4.82-2.6471,9.547-5.3893,14.9927-6.4619,4.4735-.8962,10.252-1.2353,14.6591,.5703,4.3542,.2577,7.7895,3.8962,9.7733,7.8467,2.5034,4.9826,5.0064,11.0508,4.1408,16.7664Z"/><path class="b" d="M539.0353,148.0649c-1.4119,1.928-3.3957,3.53-5.3395,4.8604-1.9972,1.371-4.9263,2.24-6.0979,4.5209-1.0252,2.0092-1.7312,3.7197-3.6354,5.0635-1.5973,1.1407-3.5148,1.7653-5.4454,1.9417-4.7403,.4344-9.1609-2.1044-12.7691-4.9556-3.7547-2.9591-7.097-6.4753-9.9059-10.3719-5.6589-7.7788-9.4936-17.2008-10.0127-26.9212-.0534-.9366,1.2379-.9638,1.3847-.0814,.0133,.0952,.0396,.1765,.0529,.2715,.2132-.0679,.4662-.0542,.7322,.1086,5.4062,3.3397,10.5188,7.263,16.2977,9.9239,5.7519,2.6476,12.0099,3.8559,18.2545,4.5346,2.9024,.3122,5.8186,.5157,8.7343,.6921,1.9176,.1089,3.8481,.2041,5.6722,.8962,4.2342,1.6429,4.5802,6.0957,2.0773,9.5167Z"/><path class="g" d="M279.8363,40.3331c.0267,.4077-.2261,.8557-.6387,.9642-1.971,.5837-3.9948,.9776-6.0321,1.154-.9853,.0814-1.9704,.1222-2.9557,.1084-.8919-.0133-1.8904,.041-2.7427-.2036-1.9705-.5703-1.5444-3.1903-1.5444-4.7923,0-2.1587,.0663-4.3034,.2528-6.4621,.0133-.2445,.1468-.4072,.3197-.5023-.6658-.3258-.7721-1.3442,.0267-1.6153,.9587-.3258,2.0502-.2041,3.0488-.2174,.9457-.0138,1.891-.0138,2.8361-.0272h3.0758c.7855,.0134,1.6378-.0679,2.3432,.3392,.8256,.4889,.972,1.4122,1.1187,2.2809,.1597,.9913,.306,1.9821,.4261,2.9867,.2397,1.9821,.399,3.9781,.4658,5.9868Z"/><path class="g" d="M279.8763,224.3155c.0534,.5432-.3861,.937-.8656,1.0045-4.0874,.5975-8.2018,.6926-12.3025,.3396-.4262-.0404-.6792-.4747-.7322-.8414-.5461-3.4757-.6925-6.9377-.3998-10.4267,.0133-.2441,.1333-.4072,.293-.5023,.0935-.1898,.2394-.3529,.4925-.4481,1.9576-.6921,3.9814-1.1807,6.0182-1.466,.9856-.1493,1.9843-.2445,2.9696-.285,.8518-.0271,1.9037-.1765,2.6231,.3663,.7984,.5841,.7984,1.6291,.9052,2.5391l.3198,3.1903c.2259,2.1857,.4523,4.3577,.6787,6.5296Z"/><path class="g" d="M503.6583,37.8762c-.7859,1.6697-3.0758,1.3981-4.5806,1.4932-1.9839,.136-3.9677,.2715-5.965,.4072-.3727,.0271-.7855-.2307-.8923-.6112-.8505-3.0251-2.041-7.8717-1.1079-10.9894,.6912-2.3105,.0663-1.1157,1.8207-1.6743,2.991-.9517,6.9114-.8669,10.0058-.7761,.4662,.0133,.9453,.312,.9453,.8414,.0133,2.0092,.0267,4.0184,.04,6.0278,.0133,.9641,.0133,1.9279,.0267,2.9053,0,.7873,.04,1.6292-.2927,2.3759Z"/><path class="b" d="M254.5145,134.2034c-1.2702,.6318-2.7573,.8514-4.2634,.467-10.0991-2.5764-1.092-18.7121,6.2374-10.4589,2.8052,3.1585,1.7768,8.1252-1.974,9.992Z"/><path class="b" d="M253.0937,117.2388c-.0628-2.0123-.1202-4.0245-.1718-6.0373-.0999-3.9129-.1791-7.8273-.2372-11.7411-.0563-3.8016-.1106-7.6035-.1493-11.4056-.0414-4.0099,.1282-8.0688-.1709-12.0675-.0581-.7855-1.3271-.9337-1.4002-.0921-.3228,3.7335-.1945,7.5226-.2005,11.2682-.0069,4.0275,.0098,8.0543,.071,12.0813,.0598,3.9144,.1408,7.8278,.2432,11.7413,.049,1.9004,.1037,3.8012,.1631,5.7015,.0612,1.9516-.0318,3.987,.3374,5.9047,.1576,.8148,1.4716,.68,1.5659-.1051,.207-1.7225,.0031-3.5144-.0507-5.2482Z"/><path class="b" d="M253.4444,133.0924c-.0167-.959-1.3959-.8282-1.4329,.093-.5487,13.6975-.377,36.4599-.1442,50.1635,.0198,1.1634,1.7829,1.0421,1.7653-.115-.2139-13.7156,.0521-36.429-.1881-50.1416Z"/><path class="b" d="M255.4967,185.366c-.3266-1.0206-1.3636-1.8147-2.3721-2.0334-1.3506-.2927-2.7319,.535-3.1997,1.8706-.545,1.5568,.3546,3.5226,2.0036,3.8419,1.3318,.2445,2.756-.4889,3.3957-1.6834,.3194-.6108,.3723-1.3442,.1726-1.9958Z"/><path class="b" d="M252.7274,73.7849c-.3593-.3939-.8919-.6516-1.4115-.733-1.2116-.2041-2.6892,.3662-3.1287,1.6287-.0801,.2174-.1201,.421-.0401,.6382,.0267,.0952,.0935,.2036,.1598,.285,0,.3125,.0267,.6108,.1201,.9095,.3194,1.1135,1.3847,2.023,2.583,1.8328,1.225-.1899,2.2636-1.3305,2.37-2.5929,.0663-.7468-.1597-1.4119-.6525-1.9684Z"/><path class="d" d="M554.3298,224.8936c-5.2892-5.1277-10.2171-10.6096-14.8209-16.3594-.675-.8427-2.061,.0512-1.4119,.9509,4.4158,6.1172,9.4015,11.8062,14.818,17.0574,1.0029,.9724,2.4168-.6774,1.4148-1.6489Z"/><path class="d" d="M578.0257,213.4772c-3.2811,1.0623-6.4379,3.0346-9.5426,4.5509-3.1714,1.5488-6.3364,3.1099-9.5034,4.6681-6.2076,3.0539-12.5151,5.9799-18.5847,9.3011-1.0648,.5828-.1687,2.4251,.9522,1.9309,6.4474-2.8408,12.7213-6.1219,19.0388-9.2404,3.0513-1.5061,6.1034-3.0096,9.15-4.5247,3.0949-1.5387,6.5796-2.8394,9.4226-4.7949,.9882-.6797,.2169-2.2633-.9328-1.891Z"/><path class="d" d="M396.3299,240.1105c-1.188-2.9371-2.3979-5.871-3.7297-8.7463-1.3352-2.8826-2.679-5.7621-3.9173-8.6882-.6182-1.4605-1.2337-2.9244-1.8113-4.4012-.4357-1.1139-.7261-1.8857-.9086-2.5886-.2635-1.0114-1.7734-1.073-2.1638-.1669-.4326,1.0042,.0671,2.051,.3878,3.0297,.4937,1.5052,1.0249,2.9976,1.6158,4.4674,1.2207,3.0359,2.5615,6.0218,3.8971,9.0085,1.2964,2.8989,2.707,5.7449,3.9057,8.6869,.5971,1.4652,1.1656,2.9425,1.6908,4.4352,.5229,1.4884,.8854,3.0771,1.7548,4.4102,.6258,.9595,1.9671,.3469,1.9847-.6758,.0508-2.9046-1.6356-6.1241-2.7061-8.7709Z"/><path class="b" d="M376.7324,53.9614c-14.421,.1111-28.8439,.1318-43.265,.0637-7.1507-.034-14.3015-.0934-21.4519-.1786-3.5738-.0427-7.1477-.0663-10.722-.0935-3.4111-.0262-7.214-.5134-10.5579,.2234-.8872,.1959-.6229,1.4304,.1068,1.6206,3.2028,.8368,6.9514,.4675,10.2468,.5445,3.5761,.084,7.1515,.1614,10.7288,.2041,7.2691,.0874,14.5392,.1484,21.8091,.1829,14.4203,.0681,28.8397,.0134,43.2594-.1533,1.5621-.0176,1.3959-2.4259-.154-2.4139Z"/><path class="b" d="M316.4331,68.7919c-4.3448-.0052-8.6896-.0176-13.0338,.0116-4.3344,.0292-8.6968-.081-13.024,.1669-1.5697,.0904-1.33,2.2852,.1511,2.3695,4.3344,.2466,8.7037,.1373,13.0456,.1671,4.3447,.0292,8.6898,.0167,13.035,.0116,1.7639-.0018,1.5759-2.7251-.1738-2.7268Z"/><path class="b" d="M379.4403,68.3227c-8.7804,.1941-17.5608,.3883-26.341,.5824-4.2712,.0943-8.5414,.207-12.8122,.3224-4.491,.121-9.0411,.0788-13.5073,.5957-1.0209,.1184-1.2697,1.8281-.123,1.9064,4.2255,.2893,8.4893,.0874,12.7209,.0056,4.5095-.0874,9.0187-.1743,13.5275-.2841,8.8979-.2157,17.7956-.4318,26.693-.6474,1.6047-.0387,1.4377-2.5163-.1579-2.481Z"/><path class="b" d="M381.0549,85.1731c-23.8678-.3658-47.7734,.0163-71.6395,.362-3.325,.0483-6.6497,.1404-9.974,.2273-1.6618,.043-3.325,.0697-4.986,.1368-1.616,.0655-3.3411,.0027-4.8696,.5734-1.0472,.3908-.8195,1.6994,.1318,2.0097,2.5662,.8376,5.8182,.3551,8.4915,.3314,2.9712-.0267,5.943-.0392,8.9138-.0697,5.9399-.0612,11.879-.1722,17.8189-.2394,11.9979-.1356,23.9965-.2169,35.9955-.2441,6.7703-.0155,13.5427,.0367,20.3129-.0254,1.9911-.018,1.7579-3.0319-.1954-3.0621Z"/></g></svg>